<?xml version="1.0" encoding="utf-8" standalone="no"?>
<!DOCTYPE svg PUBLIC "-//W3C//DTD SVG 1.1//EN"
  "http://www.w3.org/Graphics/SVG/1.1/DTD/svg11.dtd">
<!-- Created with matplotlib (http://matplotlib.org/) -->
<svg height="432pt" version="1.1" viewBox="0 0 1080 432" width="1080pt" xmlns="http://www.w3.org/2000/svg" xmlns:xlink="http://www.w3.org/1999/xlink">
 <defs>
  <style type="text/css">
*{stroke-linecap:butt;stroke-linejoin:round;}
  </style>
 </defs>
 <g id="figure_1">
  <g id="patch_1">
   <path d="M 0 432 
L 1080 432 
L 1080 0 
L 0 0 
z
" style="fill:#ffffff;"/>
  </g>
  <g id="axes_1">
   <g id="patch_2">
    <path d="M 135 378 
L 972 378 
L 972 51.84 
L 135 51.84 
z
" style="fill:#ffffff;"/>
   </g>
   <g id="matplotlib.axis_1">
    <g id="xtick_1">
     <g id="line2d_1">
      <path clip-path="url(#paaf365f7db)" d="M 173.045455 378 
L 173.045455 51.84 
" style="fill:none;stroke:#cccccc;stroke-linecap:round;"/>
     </g>
     <g id="line2d_2"/>
     <g id="text_1">
      <!-- 0 -->
      <defs>
       <path d="M 4.15625 35.296875 
Q 4.15625 48 6.765625 55.734375 
Q 9.375 63.484375 14.515625 67.671875 
Q 19.671875 71.875 27.484375 71.875 
Q 33.25 71.875 37.59375 69.546875 
Q 41.9375 67.234375 44.765625 62.859375 
Q 47.609375 58.5 49.21875 52.21875 
Q 50.828125 45.953125 50.828125 35.296875 
Q 50.828125 22.703125 48.234375 14.96875 
Q 45.65625 7.234375 40.5 3 
Q 35.359375 -1.21875 27.484375 -1.21875 
Q 17.140625 -1.21875 11.234375 6.203125 
Q 4.15625 15.140625 4.15625 35.296875 
z
M 13.1875 35.296875 
Q 13.1875 17.671875 17.3125 11.828125 
Q 21.4375 6 27.484375 6 
Q 33.546875 6 37.671875 11.859375 
Q 41.796875 17.71875 41.796875 35.296875 
Q 41.796875 52.984375 37.671875 58.78125 
Q 33.546875 64.59375 27.390625 64.59375 
Q 21.34375 64.59375 17.71875 59.46875 
Q 13.1875 52.9375 13.1875 35.296875 
z
" id="ArialMT-30"/>
      </defs>
      <g style="fill:#262626;" transform="translate(170.264986 392.157812)scale(0.1 -0.1)">
       <use xlink:href="#ArialMT-30"/>
      </g>
     </g>
    </g>
    <g id="xtick_2">
     <g id="line2d_3">
      <path clip-path="url(#paaf365f7db)" d="M 325.227273 378 
L 325.227273 51.84 
" style="fill:none;stroke:#cccccc;stroke-linecap:round;"/>
     </g>
     <g id="line2d_4"/>
     <g id="text_2">
      <!-- 20 -->
      <defs>
       <path d="M 50.34375 8.453125 
L 50.34375 0 
L 3.03125 0 
Q 2.9375 3.171875 4.046875 6.109375 
Q 5.859375 10.9375 9.828125 15.625 
Q 13.8125 20.3125 21.34375 26.46875 
Q 33.015625 36.03125 37.109375 41.625 
Q 41.21875 47.21875 41.21875 52.203125 
Q 41.21875 57.421875 37.46875 61 
Q 33.734375 64.59375 27.734375 64.59375 
Q 21.390625 64.59375 17.578125 60.78125 
Q 13.765625 56.984375 13.71875 50.25 
L 4.6875 51.171875 
Q 5.609375 61.28125 11.65625 66.578125 
Q 17.71875 71.875 27.9375 71.875 
Q 38.234375 71.875 44.234375 66.15625 
Q 50.25 60.453125 50.25 52 
Q 50.25 47.703125 48.484375 43.546875 
Q 46.734375 39.40625 42.65625 34.8125 
Q 38.578125 30.21875 29.109375 22.21875 
Q 21.1875 15.578125 18.9375 13.203125 
Q 16.703125 10.84375 15.234375 8.453125 
z
" id="ArialMT-32"/>
      </defs>
      <g style="fill:#262626;" transform="translate(319.666335 392.157812)scale(0.1 -0.1)">
       <use xlink:href="#ArialMT-32"/>
       <use x="55.615234" xlink:href="#ArialMT-30"/>
      </g>
     </g>
    </g>
    <g id="xtick_3">
     <g id="line2d_5">
      <path clip-path="url(#paaf365f7db)" d="M 477.409091 378 
L 477.409091 51.84 
" style="fill:none;stroke:#cccccc;stroke-linecap:round;"/>
     </g>
     <g id="line2d_6"/>
     <g id="text_3">
      <!-- 40 -->
      <defs>
       <path d="M 32.328125 0 
L 32.328125 17.140625 
L 1.265625 17.140625 
L 1.265625 25.203125 
L 33.9375 71.578125 
L 41.109375 71.578125 
L 41.109375 25.203125 
L 50.78125 25.203125 
L 50.78125 17.140625 
L 41.109375 17.140625 
L 41.109375 0 
z
M 32.328125 25.203125 
L 32.328125 57.46875 
L 9.90625 25.203125 
z
" id="ArialMT-34"/>
      </defs>
      <g style="fill:#262626;" transform="translate(471.848153 392.157812)scale(0.1 -0.1)">
       <use xlink:href="#ArialMT-34"/>
       <use x="55.615234" xlink:href="#ArialMT-30"/>
      </g>
     </g>
    </g>
    <g id="xtick_4">
     <g id="line2d_7">
      <path clip-path="url(#paaf365f7db)" d="M 629.590909 378 
L 629.590909 51.84 
" style="fill:none;stroke:#cccccc;stroke-linecap:round;"/>
     </g>
     <g id="line2d_8"/>
     <g id="text_4">
      <!-- 60 -->
      <defs>
       <path d="M 49.75 54.046875 
L 41.015625 53.375 
Q 39.84375 58.546875 37.703125 60.890625 
Q 34.125 64.65625 28.90625 64.65625 
Q 24.703125 64.65625 21.53125 62.3125 
Q 17.390625 59.28125 14.984375 53.46875 
Q 12.59375 47.65625 12.5 36.921875 
Q 15.671875 41.75 20.265625 44.09375 
Q 24.859375 46.4375 29.890625 46.4375 
Q 38.671875 46.4375 44.84375 39.96875 
Q 51.03125 33.5 51.03125 23.25 
Q 51.03125 16.5 48.125 10.71875 
Q 45.21875 4.9375 40.140625 1.859375 
Q 35.0625 -1.21875 28.609375 -1.21875 
Q 17.625 -1.21875 10.6875 6.859375 
Q 3.765625 14.9375 3.765625 33.5 
Q 3.765625 54.25 11.421875 63.671875 
Q 18.109375 71.875 29.4375 71.875 
Q 37.890625 71.875 43.28125 67.140625 
Q 48.6875 62.40625 49.75 54.046875 
z
M 13.875 23.1875 
Q 13.875 18.65625 15.796875 14.5 
Q 17.71875 10.359375 21.1875 8.171875 
Q 24.65625 6 28.46875 6 
Q 34.03125 6 38.03125 10.484375 
Q 42.046875 14.984375 42.046875 22.703125 
Q 42.046875 30.125 38.078125 34.390625 
Q 34.125 38.671875 28.125 38.671875 
Q 22.171875 38.671875 18.015625 34.390625 
Q 13.875 30.125 13.875 23.1875 
z
" id="ArialMT-36"/>
      </defs>
      <g style="fill:#262626;" transform="translate(624.029972 392.157812)scale(0.1 -0.1)">
       <use xlink:href="#ArialMT-36"/>
       <use x="55.615234" xlink:href="#ArialMT-30"/>
      </g>
     </g>
    </g>
    <g id="xtick_5">
     <g id="line2d_9">
      <path clip-path="url(#paaf365f7db)" d="M 781.772727 378 
L 781.772727 51.84 
" style="fill:none;stroke:#cccccc;stroke-linecap:round;"/>
     </g>
     <g id="line2d_10"/>
     <g id="text_5">
      <!-- 80 -->
      <defs>
       <path d="M 17.671875 38.8125 
Q 12.203125 40.828125 9.5625 44.53125 
Q 6.9375 48.25 6.9375 53.421875 
Q 6.9375 61.234375 12.546875 66.546875 
Q 18.171875 71.875 27.484375 71.875 
Q 36.859375 71.875 42.578125 66.421875 
Q 48.296875 60.984375 48.296875 53.171875 
Q 48.296875 48.1875 45.671875 44.5 
Q 43.0625 40.828125 37.75 38.8125 
Q 44.34375 36.671875 47.78125 31.875 
Q 51.21875 27.09375 51.21875 20.453125 
Q 51.21875 11.28125 44.71875 5.03125 
Q 38.234375 -1.21875 27.640625 -1.21875 
Q 17.046875 -1.21875 10.546875 5.046875 
Q 4.046875 11.328125 4.046875 20.703125 
Q 4.046875 27.6875 7.59375 32.390625 
Q 11.140625 37.109375 17.671875 38.8125 
z
M 15.921875 53.71875 
Q 15.921875 48.640625 19.1875 45.40625 
Q 22.46875 42.1875 27.6875 42.1875 
Q 32.765625 42.1875 36.015625 45.375 
Q 39.265625 48.578125 39.265625 53.21875 
Q 39.265625 58.0625 35.90625 61.359375 
Q 32.5625 64.65625 27.59375 64.65625 
Q 22.5625 64.65625 19.234375 61.421875 
Q 15.921875 58.203125 15.921875 53.71875 
z
M 13.09375 20.65625 
Q 13.09375 16.890625 14.875 13.375 
Q 16.65625 9.859375 20.171875 7.921875 
Q 23.6875 6 27.734375 6 
Q 34.03125 6 38.125 10.046875 
Q 42.234375 14.109375 42.234375 20.359375 
Q 42.234375 26.703125 38.015625 30.859375 
Q 33.796875 35.015625 27.4375 35.015625 
Q 21.234375 35.015625 17.15625 30.90625 
Q 13.09375 26.8125 13.09375 20.65625 
z
" id="ArialMT-38"/>
      </defs>
      <g style="fill:#262626;" transform="translate(776.21179 392.157812)scale(0.1 -0.1)">
       <use xlink:href="#ArialMT-38"/>
       <use x="55.615234" xlink:href="#ArialMT-30"/>
      </g>
     </g>
    </g>
    <g id="xtick_6">
     <g id="line2d_11">
      <path clip-path="url(#paaf365f7db)" d="M 933.954545 378 
L 933.954545 51.84 
" style="fill:none;stroke:#cccccc;stroke-linecap:round;"/>
     </g>
     <g id="line2d_12"/>
     <g id="text_6">
      <!-- 100 -->
      <defs>
       <path d="M 37.25 0 
L 28.46875 0 
L 28.46875 56 
Q 25.296875 52.984375 20.140625 49.953125 
Q 14.984375 46.921875 10.890625 45.40625 
L 10.890625 53.90625 
Q 18.265625 57.375 23.78125 62.296875 
Q 29.296875 67.234375 31.59375 71.875 
L 37.25 71.875 
z
" id="ArialMT-31"/>
      </defs>
      <g style="fill:#262626;" transform="translate(925.613139 392.157812)scale(0.1 -0.1)">
       <use xlink:href="#ArialMT-31"/>
       <use x="55.615234" xlink:href="#ArialMT-30"/>
       <use x="111.230469" xlink:href="#ArialMT-30"/>
      </g>
     </g>
    </g>
   </g>
   <g id="matplotlib.axis_2">
    <g id="ytick_1">
     <g id="line2d_13">
      <path clip-path="url(#paaf365f7db)" d="M 135 337.38937 
L 972 337.38937 
" style="fill:none;stroke:#cccccc;stroke-linecap:round;"/>
     </g>
     <g id="line2d_14"/>
     <g id="text_7">
      <!-- 0.0 -->
      <defs>
       <path d="M 9.078125 0 
L 9.078125 10.015625 
L 19.09375 10.015625 
L 19.09375 0 
z
" id="ArialMT-2e"/>
      </defs>
      <g style="fill:#262626;" transform="translate(114.1 340.968276)scale(0.1 -0.1)">
       <use xlink:href="#ArialMT-30"/>
       <use x="55.615234" xlink:href="#ArialMT-2e"/>
       <use x="83.398438" xlink:href="#ArialMT-30"/>
      </g>
     </g>
    </g>
    <g id="ytick_2">
     <g id="line2d_15">
      <path clip-path="url(#paaf365f7db)" d="M 135 283.244587 
L 972 283.244587 
" style="fill:none;stroke:#cccccc;stroke-linecap:round;"/>
     </g>
     <g id="line2d_16"/>
     <g id="text_8">
      <!-- 0.2 -->
      <g style="fill:#262626;" transform="translate(114.1 286.823493)scale(0.1 -0.1)">
       <use xlink:href="#ArialMT-30"/>
       <use x="55.615234" xlink:href="#ArialMT-2e"/>
       <use x="83.398438" xlink:href="#ArialMT-32"/>
      </g>
     </g>
    </g>
    <g id="ytick_3">
     <g id="line2d_17">
      <path clip-path="url(#paaf365f7db)" d="M 135 229.099804 
L 972 229.099804 
" style="fill:none;stroke:#cccccc;stroke-linecap:round;"/>
     </g>
     <g id="line2d_18"/>
     <g id="text_9">
      <!-- 0.4 -->
      <g style="fill:#262626;" transform="translate(114.1 232.67871)scale(0.1 -0.1)">
       <use xlink:href="#ArialMT-30"/>
       <use x="55.615234" xlink:href="#ArialMT-2e"/>
       <use x="83.398438" xlink:href="#ArialMT-34"/>
      </g>
     </g>
    </g>
    <g id="ytick_4">
     <g id="line2d_19">
      <path clip-path="url(#paaf365f7db)" d="M 135 174.955021 
L 972 174.955021 
" style="fill:none;stroke:#cccccc;stroke-linecap:round;"/>
     </g>
     <g id="line2d_20"/>
     <g id="text_10">
      <!-- 0.6 -->
      <g style="fill:#262626;" transform="translate(114.1 178.533927)scale(0.1 -0.1)">
       <use xlink:href="#ArialMT-30"/>
       <use x="55.615234" xlink:href="#ArialMT-2e"/>
       <use x="83.398438" xlink:href="#ArialMT-36"/>
      </g>
     </g>
    </g>
    <g id="ytick_5">
     <g id="line2d_21">
      <path clip-path="url(#paaf365f7db)" d="M 135 120.810238 
L 972 120.810238 
" style="fill:none;stroke:#cccccc;stroke-linecap:round;"/>
     </g>
     <g id="line2d_22"/>
     <g id="text_11">
      <!-- 0.8 -->
      <g style="fill:#262626;" transform="translate(114.1 124.389144)scale(0.1 -0.1)">
       <use xlink:href="#ArialMT-30"/>
       <use x="55.615234" xlink:href="#ArialMT-2e"/>
       <use x="83.398438" xlink:href="#ArialMT-38"/>
      </g>
     </g>
    </g>
    <g id="ytick_6">
     <g id="line2d_23">
      <path clip-path="url(#paaf365f7db)" d="M 135 66.665455 
L 972 66.665455 
" style="fill:none;stroke:#cccccc;stroke-linecap:round;"/>
     </g>
     <g id="line2d_24"/>
     <g id="text_12">
      <!-- 1.0 -->
      <g style="fill:#262626;" transform="translate(114.1 70.244361)scale(0.1 -0.1)">
       <use xlink:href="#ArialMT-31"/>
       <use x="55.615234" xlink:href="#ArialMT-2e"/>
       <use x="83.398438" xlink:href="#ArialMT-30"/>
      </g>
     </g>
    </g>
   </g>
   <g id="PolyCollection_1">
    <path clip-path="url(#paaf365f7db)" d="M 180.654545 323.629345 
L 180.654545 351.149395 
L 188.263636 351.339309 
L 195.872727 351.461897 
L 203.481818 351.483063 
L 211.090909 351.490629 
L 218.7 351.494475 
L 226.309091 351.513158 
L 233.918182 351.527688 
L 241.527273 351.549174 
L 249.136364 351.56204 
L 256.745455 351.590343 
L 264.354545 351.608457 
L 271.963636 351.625123 
L 279.572727 351.630819 
L 287.181818 351.636475 
L 294.790909 351.654397 
L 302.4 351.674913 
L 310.009091 351.683858 
L 317.618182 351.686903 
L 325.227273 351.687007 
L 332.836364 351.687122 
L 340.445455 351.690076 
L 348.054545 351.692639 
L 355.663636 351.71279 
L 363.272727 351.724063 
L 370.881818 351.728304 
L 378.490909 351.731651 
L 386.1 351.733741 
L 393.709091 351.73902 
L 401.318182 351.745325 
L 408.927273 351.75017 
L 416.536364 351.762792 
L 424.145455 351.764553 
L 431.754545 351.771973 
L 439.363636 351.775874 
L 446.972727 351.813714 
L 454.581818 351.820736 
L 462.190909 351.823868 
L 469.8 351.855342 
L 477.409091 351.909974 
L 485.018182 351.921017 
L 492.627273 351.924198 
L 500.236364 351.942566 
L 507.845455 351.94635 
L 515.454545 351.955312 
L 523.063636 351.969201 
L 530.672727 351.973005 
L 538.281818 352.231444 
L 545.890909 352.62718 
L 553.5 352.83563 
L 561.109091 352.836194 
L 568.718182 352.838533 
L 576.327273 352.855466 
L 583.936364 352.855611 
L 591.545455 352.85694 
L 599.154545 352.860355 
L 606.763636 352.860649 
L 614.372727 352.861819 
L 621.981818 352.880954 
L 629.590909 352.923526 
L 637.2 352.929906 
L 644.809091 352.943745 
L 652.418182 352.991106 
L 660.027273 352.993931 
L 667.636364 352.996342 
L 675.245455 353.001306 
L 682.854545 353.007259 
L 690.463636 353.010109 
L 698.072727 353.026576 
L 705.681818 353.028227 
L 713.290909 353.03836 
L 720.9 353.047755 
L 728.509091 353.051278 
L 736.118182 353.053764 
L 743.727273 353.053783 
L 751.336364 353.053867 
L 758.945455 353.069712 
L 766.554545 353.078708 
L 774.163636 353.099224 
L 781.772727 353.106587 
L 789.381818 353.121099 
L 796.990909 353.162053 
L 804.6 353.180217 
L 812.209091 353.181182 
L 819.818182 353.18147 
L 827.427273 353.204547 
L 835.036364 353.213077 
L 842.645455 353.222083 
L 850.254545 353.222929 
L 857.863636 353.223075 
L 865.472727 353.223316 
L 873.081818 353.2355 
L 880.690909 353.239661 
L 888.3 353.250956 
L 895.909091 353.284252 
L 903.518182 353.381304 
L 911.127273 353.510213 
L 918.736364 353.625491 
L 926.345455 353.625804 
L 933.954545 353.626233 
L 933.954545 321.152507 
L 933.954545 321.152507 
L 926.345455 321.152936 
L 918.736364 321.153249 
L 911.127273 321.268527 
L 903.518182 321.397436 
L 895.909091 321.494488 
L 888.3 321.527784 
L 880.690909 321.539079 
L 873.081818 321.54324 
L 865.472727 321.555424 
L 857.863636 321.555665 
L 850.254545 321.555811 
L 842.645455 321.556657 
L 835.036364 321.565663 
L 827.427273 321.574193 
L 819.818182 321.59727 
L 812.209091 321.597558 
L 804.6 321.598523 
L 796.990909 321.616688 
L 789.381818 321.657641 
L 781.772727 321.672153 
L 774.163636 321.679516 
L 766.554545 321.700032 
L 758.945455 321.709029 
L 751.336364 321.724873 
L 743.727273 321.724957 
L 736.118182 321.724976 
L 728.509091 321.727462 
L 720.9 321.730985 
L 713.290909 321.74038 
L 705.681818 321.750514 
L 698.072727 321.752165 
L 690.463636 321.768632 
L 682.854545 321.771481 
L 675.245455 321.777434 
L 667.636364 321.782398 
L 660.027273 321.78481 
L 652.418182 321.787634 
L 644.809091 321.834995 
L 637.2 321.848834 
L 629.590909 321.855214 
L 621.981818 321.897786 
L 614.372727 321.916921 
L 606.763636 321.918091 
L 599.154545 321.918385 
L 591.545455 321.9218 
L 583.936364 321.923129 
L 576.327273 321.923274 
L 568.718182 321.940208 
L 561.109091 321.942546 
L 553.5 321.94311 
L 545.890909 322.15156 
L 538.281818 322.547297 
L 530.672727 322.805735 
L 523.063636 322.80954 
L 515.454545 322.823428 
L 507.845455 322.83239 
L 500.236364 322.836175 
L 492.627273 322.854542 
L 485.018182 322.857723 
L 477.409091 322.868766 
L 469.8 322.923398 
L 462.190909 322.954873 
L 454.581818 322.958004 
L 446.972727 322.965026 
L 439.363636 323.002866 
L 431.754545 323.006767 
L 424.145455 323.014187 
L 416.536364 323.015948 
L 408.927273 323.02857 
L 401.318182 323.033415 
L 393.709091 323.03972 
L 386.1 323.044999 
L 378.490909 323.047089 
L 370.881818 323.050436 
L 363.272727 323.054677 
L 355.663636 323.06595 
L 348.054545 323.086101 
L 340.445455 323.088664 
L 332.836364 323.091618 
L 325.227273 323.091733 
L 317.618182 323.091837 
L 310.009091 323.094882 
L 302.4 323.103827 
L 294.790909 323.124344 
L 287.181818 323.142265 
L 279.572727 323.147921 
L 271.963636 323.153617 
L 264.354545 323.170284 
L 256.745455 323.188397 
L 249.136364 323.2167 
L 241.527273 323.229566 
L 233.918182 323.251052 
L 226.309091 323.265583 
L 218.7 323.284265 
L 211.090909 323.288112 
L 203.481818 323.295677 
L 195.872727 323.316843 
L 188.263636 323.439432 
L 180.654545 323.629345 
z
" style="fill:#66c2a5;fill-opacity:0.25;"/>
   </g>
   <g id="LineCollection_1">
    <path clip-path="url(#paaf365f7db)" d="M 173.045455 337.38937 
L 173.045455 66.665455 
" style="fill:none;stroke:#000000;stroke-width:1.75;"/>
    <path clip-path="url(#paaf365f7db)" d="M 180.654545 337.38937 
L 180.654545 305.474871 
" style="fill:none;stroke:#000000;stroke-width:1.75;"/>
    <path clip-path="url(#paaf365f7db)" d="M 188.263636 337.38937 
L 188.263636 363.174545 
" style="fill:none;stroke:#000000;stroke-width:1.75;"/>
    <path clip-path="url(#paaf365f7db)" d="M 195.872727 337.38937 
L 195.872727 348.131262 
" style="fill:none;stroke:#000000;stroke-width:1.75;"/>
    <path clip-path="url(#paaf365f7db)" d="M 203.481818 337.38937 
L 203.481818 343.814651 
" style="fill:none;stroke:#000000;stroke-width:1.75;"/>
    <path clip-path="url(#paaf365f7db)" d="M 211.090909 337.38937 
L 211.090909 341.971603 
" style="fill:none;stroke:#000000;stroke-width:1.75;"/>
    <path clip-path="url(#paaf365f7db)" d="M 218.7 337.38937 
L 218.7 347.492591 
" style="fill:none;stroke:#000000;stroke-width:1.75;"/>
    <path clip-path="url(#paaf365f7db)" d="M 226.309091 337.38937 
L 226.309091 346.304608 
" style="fill:none;stroke:#000000;stroke-width:1.75;"/>
    <path clip-path="url(#paaf365f7db)" d="M 233.918182 337.38937 
L 233.918182 348.23744 
" style="fill:none;stroke:#000000;stroke-width:1.75;"/>
    <path clip-path="url(#paaf365f7db)" d="M 241.527273 337.38937 
L 241.527273 345.788906 
" style="fill:none;stroke:#000000;stroke-width:1.75;"/>
    <path clip-path="url(#paaf365f7db)" d="M 249.136364 337.38937 
L 249.136364 349.85641 
" style="fill:none;stroke:#000000;stroke-width:1.75;"/>
    <path clip-path="url(#paaf365f7db)" d="M 256.745455 337.38937 
L 256.745455 347.371182 
" style="fill:none;stroke:#000000;stroke-width:1.75;"/>
    <path clip-path="url(#paaf365f7db)" d="M 264.354545 337.38937 
L 264.354545 346.969986 
" style="fill:none;stroke:#000000;stroke-width:1.75;"/>
    <path clip-path="url(#paaf365f7db)" d="M 271.963636 337.38937 
L 271.963636 342.992438 
" style="fill:none;stroke:#000000;stroke-width:1.75;"/>
    <path clip-path="url(#paaf365f7db)" d="M 279.572727 337.38937 
L 279.572727 342.973864 
" style="fill:none;stroke:#000000;stroke-width:1.75;"/>
    <path clip-path="url(#paaf365f7db)" d="M 287.181818 337.38937 
L 287.181818 347.334126 
" style="fill:none;stroke:#000000;stroke-width:1.75;"/>
    <path clip-path="url(#paaf365f7db)" d="M 294.790909 337.38937 
L 294.790909 348.036898 
" style="fill:none;stroke:#000000;stroke-width:1.75;"/>
    <path clip-path="url(#paaf365f7db)" d="M 302.4 337.38937 
L 302.4 344.423709 
" style="fill:none;stroke:#000000;stroke-width:1.75;"/>
    <path clip-path="url(#paaf365f7db)" d="M 310.009091 337.38937 
L 310.009091 341.494129 
" style="fill:none;stroke:#000000;stroke-width:1.75;"/>
    <path clip-path="url(#paaf365f7db)" d="M 317.618182 337.38937 
L 317.618182 338.149533 
" style="fill:none;stroke:#000000;stroke-width:1.75;"/>
    <path clip-path="url(#paaf365f7db)" d="M 325.227273 337.38937 
L 325.227273 336.592443 
" style="fill:none;stroke:#000000;stroke-width:1.75;"/>
    <path clip-path="url(#paaf365f7db)" d="M 332.836364 337.38937 
L 332.836364 341.432736 
" style="fill:none;stroke:#000000;stroke-width:1.75;"/>
    <path clip-path="url(#paaf365f7db)" d="M 340.445455 337.38937 
L 340.445455 341.156377 
" style="fill:none;stroke:#000000;stroke-width:1.75;"/>
    <path clip-path="url(#paaf365f7db)" d="M 348.054545 337.38937 
L 348.054545 326.822934 
" style="fill:none;stroke:#000000;stroke-width:1.75;"/>
    <path clip-path="url(#paaf365f7db)" d="M 355.663636 337.38937 
L 355.663636 329.481972 
" style="fill:none;stroke:#000000;stroke-width:1.75;"/>
    <path clip-path="url(#paaf365f7db)" d="M 363.272727 337.38937 
L 363.272727 332.537824 
" style="fill:none;stroke:#000000;stroke-width:1.75;"/>
    <path clip-path="url(#paaf365f7db)" d="M 370.881818 337.38937 
L 370.881818 333.079176 
" style="fill:none;stroke:#000000;stroke-width:1.75;"/>
    <path clip-path="url(#paaf365f7db)" d="M 378.490909 337.38937 
L 378.490909 340.796104 
" style="fill:none;stroke:#000000;stroke-width:1.75;"/>
    <path clip-path="url(#paaf365f7db)" d="M 386.1 337.38937 
L 386.1 342.80396 
" style="fill:none;stroke:#000000;stroke-width:1.75;"/>
    <path clip-path="url(#paaf365f7db)" d="M 393.709091 337.38937 
L 393.709091 343.307913 
" style="fill:none;stroke:#000000;stroke-width:1.75;"/>
    <path clip-path="url(#paaf365f7db)" d="M 401.318182 337.38937 
L 401.318182 342.578439 
" style="fill:none;stroke:#000000;stroke-width:1.75;"/>
    <path clip-path="url(#paaf365f7db)" d="M 408.927273 337.38937 
L 408.927273 345.767696 
" style="fill:none;stroke:#000000;stroke-width:1.75;"/>
    <path clip-path="url(#paaf365f7db)" d="M 416.536364 337.38937 
L 416.536364 340.519737 
" style="fill:none;stroke:#000000;stroke-width:1.75;"/>
    <path clip-path="url(#paaf365f7db)" d="M 424.145455 337.38937 
L 424.145455 343.815688 
" style="fill:none;stroke:#000000;stroke-width:1.75;"/>
    <path clip-path="url(#paaf365f7db)" d="M 431.754545 337.38937 
L 431.754545 342.050331 
" style="fill:none;stroke:#000000;stroke-width:1.75;"/>
    <path clip-path="url(#paaf365f7db)" d="M 439.363636 337.38937 
L 439.363636 351.915329 
" style="fill:none;stroke:#000000;stroke-width:1.75;"/>
    <path clip-path="url(#paaf365f7db)" d="M 446.972727 337.38937 
L 446.972727 343.651894 
" style="fill:none;stroke:#000000;stroke-width:1.75;"/>
    <path clip-path="url(#paaf365f7db)" d="M 454.581818 337.38937 
L 454.581818 333.206873 
" style="fill:none;stroke:#000000;stroke-width:1.75;"/>
    <path clip-path="url(#paaf365f7db)" d="M 462.190909 337.38937 
L 462.190909 350.657987 
" style="fill:none;stroke:#000000;stroke-width:1.75;"/>
    <path clip-path="url(#paaf365f7db)" d="M 469.8 337.38937 
L 469.8 354.896435 
" style="fill:none;stroke:#000000;stroke-width:1.75;"/>
    <path clip-path="url(#paaf365f7db)" d="M 477.409091 337.38937 
L 477.409091 345.269303 
" style="fill:none;stroke:#000000;stroke-width:1.75;"/>
    <path clip-path="url(#paaf365f7db)" d="M 485.018182 337.38937 
L 485.018182 341.619931 
" style="fill:none;stroke:#000000;stroke-width:1.75;"/>
    <path clip-path="url(#paaf365f7db)" d="M 492.627273 337.38937 
L 492.627273 327.220491 
" style="fill:none;stroke:#000000;stroke-width:1.75;"/>
    <path clip-path="url(#paaf365f7db)" d="M 500.236364 337.38937 
L 500.236364 332.77186 
" style="fill:none;stroke:#000000;stroke-width:1.75;"/>
    <path clip-path="url(#paaf365f7db)" d="M 507.845455 337.38937 
L 507.845455 344.496831 
" style="fill:none;stroke:#000000;stroke-width:1.75;"/>
    <path clip-path="url(#paaf365f7db)" d="M 515.454545 337.38937 
L 515.454545 328.538054 
" style="fill:none;stroke:#000000;stroke-width:1.75;"/>
    <path clip-path="url(#paaf365f7db)" d="M 523.063636 337.38937 
L 523.063636 332.755429 
" style="fill:none;stroke:#000000;stroke-width:1.75;"/>
    <path clip-path="url(#paaf365f7db)" d="M 530.672727 337.38937 
L 530.672727 299.02441 
" style="fill:none;stroke:#000000;stroke-width:1.75;"/>
    <path clip-path="url(#paaf365f7db)" d="M 538.281818 337.38937 
L 538.281818 289.390218 
" style="fill:none;stroke:#000000;stroke-width:1.75;"/>
    <path clip-path="url(#paaf365f7db)" d="M 545.890909 337.38937 
L 545.890909 302.205036 
" style="fill:none;stroke:#000000;stroke-width:1.75;"/>
    <path clip-path="url(#paaf365f7db)" d="M 553.5 337.38937 
L 553.5 335.552045 
" style="fill:none;stroke:#000000;stroke-width:1.75;"/>
    <path clip-path="url(#paaf365f7db)" d="M 561.109091 337.38937 
L 561.109091 341.128707 
" style="fill:none;stroke:#000000;stroke-width:1.75;"/>
    <path clip-path="url(#paaf365f7db)" d="M 568.718182 337.38937 
L 568.718182 327.323476 
" style="fill:none;stroke:#000000;stroke-width:1.75;"/>
    <path clip-path="url(#paaf365f7db)" d="M 576.327273 337.38937 
L 576.327273 336.458859 
" style="fill:none;stroke:#000000;stroke-width:1.75;"/>
    <path clip-path="url(#paaf365f7db)" d="M 583.936364 337.38937 
L 583.936364 340.210554 
" style="fill:none;stroke:#000000;stroke-width:1.75;"/>
    <path clip-path="url(#paaf365f7db)" d="M 591.545455 337.38937 
L 591.545455 341.911517 
" style="fill:none;stroke:#000000;stroke-width:1.75;"/>
    <path clip-path="url(#paaf365f7db)" d="M 599.154545 337.38937 
L 599.154545 336.062998 
" style="fill:none;stroke:#000000;stroke-width:1.75;"/>
    <path clip-path="url(#paaf365f7db)" d="M 606.763636 337.38937 
L 606.763636 334.741889 
" style="fill:none;stroke:#000000;stroke-width:1.75;"/>
    <path clip-path="url(#paaf365f7db)" d="M 614.372727 337.38937 
L 614.372727 348.097878 
" style="fill:none;stroke:#000000;stroke-width:1.75;"/>
    <path clip-path="url(#paaf365f7db)" d="M 621.981818 337.38937 
L 621.981818 353.378204 
" style="fill:none;stroke:#000000;stroke-width:1.75;"/>
    <path clip-path="url(#paaf365f7db)" d="M 629.590909 337.38937 
L 629.590909 343.5838 
" style="fill:none;stroke:#000000;stroke-width:1.75;"/>
    <path clip-path="url(#paaf365f7db)" d="M 637.2 337.38937 
L 637.2 346.515694 
" style="fill:none;stroke:#000000;stroke-width:1.75;"/>
    <path clip-path="url(#paaf365f7db)" d="M 644.809091 337.38937 
L 644.809091 354.288819 
" style="fill:none;stroke:#000000;stroke-width:1.75;"/>
    <path clip-path="url(#paaf365f7db)" d="M 652.418182 337.38937 
L 652.418182 341.519778 
" style="fill:none;stroke:#000000;stroke-width:1.75;"/>
    <path clip-path="url(#paaf365f7db)" d="M 660.027273 337.38937 
L 660.027273 341.206411 
" style="fill:none;stroke:#000000;stroke-width:1.75;"/>
    <path clip-path="url(#paaf365f7db)" d="M 667.636364 337.38937 
L 667.636364 342.865735 
" style="fill:none;stroke:#000000;stroke-width:1.75;"/>
    <path clip-path="url(#paaf365f7db)" d="M 675.245455 337.38937 
L 675.245455 343.38797 
" style="fill:none;stroke:#000000;stroke-width:1.75;"/>
    <path clip-path="url(#paaf365f7db)" d="M 682.854545 337.38937 
L 682.854545 333.238513 
" style="fill:none;stroke:#000000;stroke-width:1.75;"/>
    <path clip-path="url(#paaf365f7db)" d="M 690.463636 337.38937 
L 690.463636 347.370501 
" style="fill:none;stroke:#000000;stroke-width:1.75;"/>
    <path clip-path="url(#paaf365f7db)" d="M 698.072727 337.38937 
L 698.072727 334.228006 
" style="fill:none;stroke:#000000;stroke-width:1.75;"/>
    <path clip-path="url(#paaf365f7db)" d="M 705.681818 337.38937 
L 705.681818 329.555744 
" style="fill:none;stroke:#000000;stroke-width:1.75;"/>
    <path clip-path="url(#paaf365f7db)" d="M 713.290909 337.38937 
L 713.290909 329.844381 
" style="fill:none;stroke:#000000;stroke-width:1.75;"/>
    <path clip-path="url(#paaf365f7db)" d="M 720.9 337.38937 
L 720.9 332.76817 
" style="fill:none;stroke:#000000;stroke-width:1.75;"/>
    <path clip-path="url(#paaf365f7db)" d="M 728.509091 337.38937 
L 728.509091 333.506674 
" style="fill:none;stroke:#000000;stroke-width:1.75;"/>
    <path clip-path="url(#paaf365f7db)" d="M 736.118182 337.38937 
L 736.118182 337.723823 
" style="fill:none;stroke:#000000;stroke-width:1.75;"/>
    <path clip-path="url(#paaf365f7db)" d="M 743.727273 337.38937 
L 743.727273 338.104516 
" style="fill:none;stroke:#000000;stroke-width:1.75;"/>
    <path clip-path="url(#paaf365f7db)" d="M 751.336364 337.38937 
L 751.336364 327.585113 
" style="fill:none;stroke:#000000;stroke-width:1.75;"/>
    <path clip-path="url(#paaf365f7db)" d="M 758.945455 337.38937 
L 758.945455 329.998557 
" style="fill:none;stroke:#000000;stroke-width:1.75;"/>
    <path clip-path="url(#paaf365f7db)" d="M 766.554545 337.38937 
L 766.554545 348.555219 
" style="fill:none;stroke:#000000;stroke-width:1.75;"/>
    <path clip-path="url(#paaf365f7db)" d="M 774.163636 337.38937 
L 774.163636 344.081541 
" style="fill:none;stroke:#000000;stroke-width:1.75;"/>
    <path clip-path="url(#paaf365f7db)" d="M 781.772727 337.38937 
L 781.772727 346.788069 
" style="fill:none;stroke:#000000;stroke-width:1.75;"/>
    <path clip-path="url(#paaf365f7db)" d="M 789.381818 337.38937 
L 789.381818 353.191749 
" style="fill:none;stroke:#000000;stroke-width:1.75;"/>
    <path clip-path="url(#paaf365f7db)" d="M 796.990909 337.38937 
L 796.990909 347.92339 
" style="fill:none;stroke:#000000;stroke-width:1.75;"/>
    <path clip-path="url(#paaf365f7db)" d="M 804.6 337.38937 
L 804.6 334.960291 
" style="fill:none;stroke:#000000;stroke-width:1.75;"/>
    <path clip-path="url(#paaf365f7db)" d="M 812.209091 337.38937 
L 812.209091 338.716127 
" style="fill:none;stroke:#000000;stroke-width:1.75;"/>
    <path clip-path="url(#paaf365f7db)" d="M 819.818182 337.38937 
L 819.818182 349.270904 
" style="fill:none;stroke:#000000;stroke-width:1.75;"/>
    <path clip-path="url(#paaf365f7db)" d="M 827.427273 337.38937 
L 827.427273 344.616749 
" style="fill:none;stroke:#000000;stroke-width:1.75;"/>
    <path clip-path="url(#paaf365f7db)" d="M 835.036364 337.38937 
L 835.036364 344.817771 
" style="fill:none;stroke:#000000;stroke-width:1.75;"/>
    <path clip-path="url(#paaf365f7db)" d="M 842.645455 337.38937 
L 842.645455 339.666074 
" style="fill:none;stroke:#000000;stroke-width:1.75;"/>
    <path clip-path="url(#paaf365f7db)" d="M 850.254545 337.38937 
L 850.254545 338.336625 
" style="fill:none;stroke:#000000;stroke-width:1.75;"/>
    <path clip-path="url(#paaf365f7db)" d="M 857.863636 337.38937 
L 857.863636 336.173531 
" style="fill:none;stroke:#000000;stroke-width:1.75;"/>
    <path clip-path="url(#paaf365f7db)" d="M 865.472727 337.38937 
L 865.472727 346.032683 
" style="fill:none;stroke:#000000;stroke-width:1.75;"/>
    <path clip-path="url(#paaf365f7db)" d="M 873.081818 337.38937 
L 873.081818 332.337136 
" style="fill:none;stroke:#000000;stroke-width:1.75;"/>
    <path clip-path="url(#paaf365f7db)" d="M 880.690909 337.38937 
L 880.690909 329.063109 
" style="fill:none;stroke:#000000;stroke-width:1.75;"/>
    <path clip-path="url(#paaf365f7db)" d="M 888.3 337.38937 
L 888.3 323.083934 
" style="fill:none;stroke:#000000;stroke-width:1.75;"/>
    <path clip-path="url(#paaf365f7db)" d="M 895.909091 337.38937 
L 895.909091 312.915607 
" style="fill:none;stroke:#000000;stroke-width:1.75;"/>
    <path clip-path="url(#paaf365f7db)" d="M 903.518182 337.38937 
L 903.518182 309.083723 
" style="fill:none;stroke:#000000;stroke-width:1.75;"/>
    <path clip-path="url(#paaf365f7db)" d="M 911.127273 337.38937 
L 911.127273 310.520541 
" style="fill:none;stroke:#000000;stroke-width:1.75;"/>
    <path clip-path="url(#paaf365f7db)" d="M 918.736364 337.38937 
L 918.736364 338.793122 
" style="fill:none;stroke:#000000;stroke-width:1.75;"/>
    <path clip-path="url(#paaf365f7db)" d="M 926.345455 337.38937 
L 926.345455 335.748177 
" style="fill:none;stroke:#000000;stroke-width:1.75;"/>
    <path clip-path="url(#paaf365f7db)" d="M 933.954545 337.38937 
L 933.954545 328.629532 
" style="fill:none;stroke:#000000;stroke-width:1.75;"/>
   </g>
   <g id="line2d_25">
    <path clip-path="url(#paaf365f7db)" d="M 135 337.38937 
L 972 337.38937 
" style="fill:none;stroke:#66c2a5;stroke-linecap:round;stroke-width:1.75;"/>
   </g>
   <g id="line2d_26">
    <defs>
     <path d="M 0 2.5 
C 0.663008 2.5 1.29895 2.236584 1.767767 1.767767 
C 2.236584 1.29895 2.5 0.663008 2.5 0 
C 2.5 -0.663008 2.236584 -1.29895 1.767767 -1.767767 
C 1.29895 -2.236584 0.663008 -2.5 0 -2.5 
C -0.663008 -2.5 -1.29895 -2.236584 -1.767767 -1.767767 
C -2.236584 -1.29895 -2.5 -0.663008 -2.5 0 
C -2.5 0.663008 -2.236584 1.29895 -1.767767 1.767767 
C -1.29895 2.236584 -0.663008 2.5 0 2.5 
z
" id="m6e89141a12"/>
    </defs>
    <g clip-path="url(#paaf365f7db)">
     <use style="fill:#66c2a5;" x="173.045455" xlink:href="#m6e89141a12" y="66.665455"/>
     <use style="fill:#66c2a5;" x="180.654545" xlink:href="#m6e89141a12" y="305.474871"/>
     <use style="fill:#66c2a5;" x="188.263636" xlink:href="#m6e89141a12" y="363.174545"/>
     <use style="fill:#66c2a5;" x="195.872727" xlink:href="#m6e89141a12" y="348.131262"/>
     <use style="fill:#66c2a5;" x="203.481818" xlink:href="#m6e89141a12" y="343.814651"/>
     <use style="fill:#66c2a5;" x="211.090909" xlink:href="#m6e89141a12" y="341.971603"/>
     <use style="fill:#66c2a5;" x="218.7" xlink:href="#m6e89141a12" y="347.492591"/>
     <use style="fill:#66c2a5;" x="226.309091" xlink:href="#m6e89141a12" y="346.304608"/>
     <use style="fill:#66c2a5;" x="233.918182" xlink:href="#m6e89141a12" y="348.23744"/>
     <use style="fill:#66c2a5;" x="241.527273" xlink:href="#m6e89141a12" y="345.788906"/>
     <use style="fill:#66c2a5;" x="249.136364" xlink:href="#m6e89141a12" y="349.85641"/>
     <use style="fill:#66c2a5;" x="256.745455" xlink:href="#m6e89141a12" y="347.371182"/>
     <use style="fill:#66c2a5;" x="264.354545" xlink:href="#m6e89141a12" y="346.969986"/>
     <use style="fill:#66c2a5;" x="271.963636" xlink:href="#m6e89141a12" y="342.992438"/>
     <use style="fill:#66c2a5;" x="279.572727" xlink:href="#m6e89141a12" y="342.973864"/>
     <use style="fill:#66c2a5;" x="287.181818" xlink:href="#m6e89141a12" y="347.334126"/>
     <use style="fill:#66c2a5;" x="294.790909" xlink:href="#m6e89141a12" y="348.036898"/>
     <use style="fill:#66c2a5;" x="302.4" xlink:href="#m6e89141a12" y="344.423709"/>
     <use style="fill:#66c2a5;" x="310.009091" xlink:href="#m6e89141a12" y="341.494129"/>
     <use style="fill:#66c2a5;" x="317.618182" xlink:href="#m6e89141a12" y="338.149533"/>
     <use style="fill:#66c2a5;" x="325.227273" xlink:href="#m6e89141a12" y="336.592443"/>
     <use style="fill:#66c2a5;" x="332.836364" xlink:href="#m6e89141a12" y="341.432736"/>
     <use style="fill:#66c2a5;" x="340.445455" xlink:href="#m6e89141a12" y="341.156377"/>
     <use style="fill:#66c2a5;" x="348.054545" xlink:href="#m6e89141a12" y="326.822934"/>
     <use style="fill:#66c2a5;" x="355.663636" xlink:href="#m6e89141a12" y="329.481972"/>
     <use style="fill:#66c2a5;" x="363.272727" xlink:href="#m6e89141a12" y="332.537824"/>
     <use style="fill:#66c2a5;" x="370.881818" xlink:href="#m6e89141a12" y="333.079176"/>
     <use style="fill:#66c2a5;" x="378.490909" xlink:href="#m6e89141a12" y="340.796104"/>
     <use style="fill:#66c2a5;" x="386.1" xlink:href="#m6e89141a12" y="342.80396"/>
     <use style="fill:#66c2a5;" x="393.709091" xlink:href="#m6e89141a12" y="343.307913"/>
     <use style="fill:#66c2a5;" x="401.318182" xlink:href="#m6e89141a12" y="342.578439"/>
     <use style="fill:#66c2a5;" x="408.927273" xlink:href="#m6e89141a12" y="345.767696"/>
     <use style="fill:#66c2a5;" x="416.536364" xlink:href="#m6e89141a12" y="340.519737"/>
     <use style="fill:#66c2a5;" x="424.145455" xlink:href="#m6e89141a12" y="343.815688"/>
     <use style="fill:#66c2a5;" x="431.754545" xlink:href="#m6e89141a12" y="342.050331"/>
     <use style="fill:#66c2a5;" x="439.363636" xlink:href="#m6e89141a12" y="351.915329"/>
     <use style="fill:#66c2a5;" x="446.972727" xlink:href="#m6e89141a12" y="343.651894"/>
     <use style="fill:#66c2a5;" x="454.581818" xlink:href="#m6e89141a12" y="333.206873"/>
     <use style="fill:#66c2a5;" x="462.190909" xlink:href="#m6e89141a12" y="350.657987"/>
     <use style="fill:#66c2a5;" x="469.8" xlink:href="#m6e89141a12" y="354.896435"/>
     <use style="fill:#66c2a5;" x="477.409091" xlink:href="#m6e89141a12" y="345.269303"/>
     <use style="fill:#66c2a5;" x="485.018182" xlink:href="#m6e89141a12" y="341.619931"/>
     <use style="fill:#66c2a5;" x="492.627273" xlink:href="#m6e89141a12" y="327.220491"/>
     <use style="fill:#66c2a5;" x="500.236364" xlink:href="#m6e89141a12" y="332.77186"/>
     <use style="fill:#66c2a5;" x="507.845455" xlink:href="#m6e89141a12" y="344.496831"/>
     <use style="fill:#66c2a5;" x="515.454545" xlink:href="#m6e89141a12" y="328.538054"/>
     <use style="fill:#66c2a5;" x="523.063636" xlink:href="#m6e89141a12" y="332.755429"/>
     <use style="fill:#66c2a5;" x="530.672727" xlink:href="#m6e89141a12" y="299.02441"/>
     <use style="fill:#66c2a5;" x="538.281818" xlink:href="#m6e89141a12" y="289.390218"/>
     <use style="fill:#66c2a5;" x="545.890909" xlink:href="#m6e89141a12" y="302.205036"/>
     <use style="fill:#66c2a5;" x="553.5" xlink:href="#m6e89141a12" y="335.552045"/>
     <use style="fill:#66c2a5;" x="561.109091" xlink:href="#m6e89141a12" y="341.128707"/>
     <use style="fill:#66c2a5;" x="568.718182" xlink:href="#m6e89141a12" y="327.323476"/>
     <use style="fill:#66c2a5;" x="576.327273" xlink:href="#m6e89141a12" y="336.458859"/>
     <use style="fill:#66c2a5;" x="583.936364" xlink:href="#m6e89141a12" y="340.210554"/>
     <use style="fill:#66c2a5;" x="591.545455" xlink:href="#m6e89141a12" y="341.911517"/>
     <use style="fill:#66c2a5;" x="599.154545" xlink:href="#m6e89141a12" y="336.062998"/>
     <use style="fill:#66c2a5;" x="606.763636" xlink:href="#m6e89141a12" y="334.741889"/>
     <use style="fill:#66c2a5;" x="614.372727" xlink:href="#m6e89141a12" y="348.097878"/>
     <use style="fill:#66c2a5;" x="621.981818" xlink:href="#m6e89141a12" y="353.378204"/>
     <use style="fill:#66c2a5;" x="629.590909" xlink:href="#m6e89141a12" y="343.5838"/>
     <use style="fill:#66c2a5;" x="637.2" xlink:href="#m6e89141a12" y="346.515694"/>
     <use style="fill:#66c2a5;" x="644.809091" xlink:href="#m6e89141a12" y="354.288819"/>
     <use style="fill:#66c2a5;" x="652.418182" xlink:href="#m6e89141a12" y="341.519778"/>
     <use style="fill:#66c2a5;" x="660.027273" xlink:href="#m6e89141a12" y="341.206411"/>
     <use style="fill:#66c2a5;" x="667.636364" xlink:href="#m6e89141a12" y="342.865735"/>
     <use style="fill:#66c2a5;" x="675.245455" xlink:href="#m6e89141a12" y="343.38797"/>
     <use style="fill:#66c2a5;" x="682.854545" xlink:href="#m6e89141a12" y="333.238513"/>
     <use style="fill:#66c2a5;" x="690.463636" xlink:href="#m6e89141a12" y="347.370501"/>
     <use style="fill:#66c2a5;" x="698.072727" xlink:href="#m6e89141a12" y="334.228006"/>
     <use style="fill:#66c2a5;" x="705.681818" xlink:href="#m6e89141a12" y="329.555744"/>
     <use style="fill:#66c2a5;" x="713.290909" xlink:href="#m6e89141a12" y="329.844381"/>
     <use style="fill:#66c2a5;" x="720.9" xlink:href="#m6e89141a12" y="332.76817"/>
     <use style="fill:#66c2a5;" x="728.509091" xlink:href="#m6e89141a12" y="333.506674"/>
     <use style="fill:#66c2a5;" x="736.118182" xlink:href="#m6e89141a12" y="337.723823"/>
     <use style="fill:#66c2a5;" x="743.727273" xlink:href="#m6e89141a12" y="338.104516"/>
     <use style="fill:#66c2a5;" x="751.336364" xlink:href="#m6e89141a12" y="327.585113"/>
     <use style="fill:#66c2a5;" x="758.945455" xlink:href="#m6e89141a12" y="329.998557"/>
     <use style="fill:#66c2a5;" x="766.554545" xlink:href="#m6e89141a12" y="348.555219"/>
     <use style="fill:#66c2a5;" x="774.163636" xlink:href="#m6e89141a12" y="344.081541"/>
     <use style="fill:#66c2a5;" x="781.772727" xlink:href="#m6e89141a12" y="346.788069"/>
     <use style="fill:#66c2a5;" x="789.381818" xlink:href="#m6e89141a12" y="353.191749"/>
     <use style="fill:#66c2a5;" x="796.990909" xlink:href="#m6e89141a12" y="347.92339"/>
     <use style="fill:#66c2a5;" x="804.6" xlink:href="#m6e89141a12" y="334.960291"/>
     <use style="fill:#66c2a5;" x="812.209091" xlink:href="#m6e89141a12" y="338.716127"/>
     <use style="fill:#66c2a5;" x="819.818182" xlink:href="#m6e89141a12" y="349.270904"/>
     <use style="fill:#66c2a5;" x="827.427273" xlink:href="#m6e89141a12" y="344.616749"/>
     <use style="fill:#66c2a5;" x="835.036364" xlink:href="#m6e89141a12" y="344.817771"/>
     <use style="fill:#66c2a5;" x="842.645455" xlink:href="#m6e89141a12" y="339.666074"/>
     <use style="fill:#66c2a5;" x="850.254545" xlink:href="#m6e89141a12" y="338.336625"/>
     <use style="fill:#66c2a5;" x="857.863636" xlink:href="#m6e89141a12" y="336.173531"/>
     <use style="fill:#66c2a5;" x="865.472727" xlink:href="#m6e89141a12" y="346.032683"/>
     <use style="fill:#66c2a5;" x="873.081818" xlink:href="#m6e89141a12" y="332.337136"/>
     <use style="fill:#66c2a5;" x="880.690909" xlink:href="#m6e89141a12" y="329.063109"/>
     <use style="fill:#66c2a5;" x="888.3" xlink:href="#m6e89141a12" y="323.083934"/>
     <use style="fill:#66c2a5;" x="895.909091" xlink:href="#m6e89141a12" y="312.915607"/>
     <use style="fill:#66c2a5;" x="903.518182" xlink:href="#m6e89141a12" y="309.083723"/>
     <use style="fill:#66c2a5;" x="911.127273" xlink:href="#m6e89141a12" y="310.520541"/>
     <use style="fill:#66c2a5;" x="918.736364" xlink:href="#m6e89141a12" y="338.793122"/>
     <use style="fill:#66c2a5;" x="926.345455" xlink:href="#m6e89141a12" y="335.748177"/>
     <use style="fill:#66c2a5;" x="933.954545" xlink:href="#m6e89141a12" y="328.629532"/>
    </g>
   </g>
   <g id="patch_3">
    <path d="M 135 378 
L 135 51.84 
" style="fill:none;stroke:#cccccc;stroke-linecap:square;stroke-linejoin:miter;"/>
   </g>
   <g id="patch_4">
    <path d="M 972 378 
L 972 51.84 
" style="fill:none;stroke:#cccccc;stroke-linecap:square;stroke-linejoin:miter;"/>
   </g>
   <g id="patch_5">
    <path d="M 135 378 
L 972 378 
" style="fill:none;stroke:#cccccc;stroke-linecap:square;stroke-linejoin:miter;"/>
   </g>
   <g id="patch_6">
    <path d="M 135 51.84 
L 972 51.84 
" style="fill:none;stroke:#cccccc;stroke-linecap:square;stroke-linejoin:miter;"/>
   </g>
   <g id="text_13">
    <!-- Autocorrelation -->
    <defs>
     <path d="M -0.140625 0 
L 27.34375 71.578125 
L 37.546875 71.578125 
L 66.84375 0 
L 56.0625 0 
L 47.703125 21.6875 
L 17.78125 21.6875 
L 9.90625 0 
z
M 20.515625 29.390625 
L 44.78125 29.390625 
L 37.3125 49.21875 
Q 33.890625 58.25 32.234375 64.0625 
Q 30.859375 57.171875 28.375 50.390625 
z
" id="ArialMT-41"/>
     <path d="M 40.578125 0 
L 40.578125 7.625 
Q 34.515625 -1.171875 24.125 -1.171875 
Q 19.53125 -1.171875 15.546875 0.578125 
Q 11.578125 2.34375 9.640625 5 
Q 7.71875 7.671875 6.9375 11.53125 
Q 6.390625 14.109375 6.390625 19.734375 
L 6.390625 51.859375 
L 15.1875 51.859375 
L 15.1875 23.09375 
Q 15.1875 16.21875 15.71875 13.8125 
Q 16.546875 10.359375 19.234375 8.375 
Q 21.921875 6.390625 25.875 6.390625 
Q 29.828125 6.390625 33.296875 8.421875 
Q 36.765625 10.453125 38.203125 13.9375 
Q 39.65625 17.4375 39.65625 24.078125 
L 39.65625 51.859375 
L 48.4375 51.859375 
L 48.4375 0 
z
" id="ArialMT-75"/>
     <path d="M 25.78125 7.859375 
L 27.046875 0.09375 
Q 23.34375 -0.6875 20.40625 -0.6875 
Q 15.625 -0.6875 12.984375 0.828125 
Q 10.359375 2.34375 9.28125 4.8125 
Q 8.203125 7.28125 8.203125 15.1875 
L 8.203125 45.015625 
L 1.765625 45.015625 
L 1.765625 51.859375 
L 8.203125 51.859375 
L 8.203125 64.703125 
L 16.9375 69.96875 
L 16.9375 51.859375 
L 25.78125 51.859375 
L 25.78125 45.015625 
L 16.9375 45.015625 
L 16.9375 14.703125 
Q 16.9375 10.9375 17.40625 9.859375 
Q 17.875 8.796875 18.921875 8.15625 
Q 19.96875 7.515625 21.921875 7.515625 
Q 23.390625 7.515625 25.78125 7.859375 
z
" id="ArialMT-74"/>
     <path d="M 3.328125 25.921875 
Q 3.328125 40.328125 11.328125 47.265625 
Q 18.015625 53.03125 27.640625 53.03125 
Q 38.328125 53.03125 45.109375 46.015625 
Q 51.90625 39.015625 51.90625 26.65625 
Q 51.90625 16.65625 48.90625 10.90625 
Q 45.90625 5.171875 40.15625 2 
Q 34.421875 -1.171875 27.640625 -1.171875 
Q 16.75 -1.171875 10.03125 5.8125 
Q 3.328125 12.796875 3.328125 25.921875 
z
M 12.359375 25.921875 
Q 12.359375 15.96875 16.703125 11.015625 
Q 21.046875 6.0625 27.640625 6.0625 
Q 34.1875 6.0625 38.53125 11.03125 
Q 42.875 16.015625 42.875 26.21875 
Q 42.875 35.84375 38.5 40.796875 
Q 34.125 45.75 27.640625 45.75 
Q 21.046875 45.75 16.703125 40.8125 
Q 12.359375 35.890625 12.359375 25.921875 
z
" id="ArialMT-6f"/>
     <path d="M 40.4375 19 
L 49.078125 17.875 
Q 47.65625 8.9375 41.8125 3.875 
Q 35.984375 -1.171875 27.484375 -1.171875 
Q 16.84375 -1.171875 10.375 5.78125 
Q 3.90625 12.75 3.90625 25.734375 
Q 3.90625 34.125 6.6875 40.421875 
Q 9.46875 46.734375 15.15625 49.875 
Q 20.84375 53.03125 27.546875 53.03125 
Q 35.984375 53.03125 41.359375 48.75 
Q 46.734375 44.484375 48.25 36.625 
L 39.703125 35.296875 
Q 38.484375 40.53125 35.375 43.15625 
Q 32.28125 45.796875 27.875 45.796875 
Q 21.234375 45.796875 17.078125 41.03125 
Q 12.9375 36.28125 12.9375 25.984375 
Q 12.9375 15.53125 16.9375 10.796875 
Q 20.953125 6.0625 27.390625 6.0625 
Q 32.5625 6.0625 36.03125 9.234375 
Q 39.5 12.40625 40.4375 19 
z
" id="ArialMT-63"/>
     <path d="M 6.5 0 
L 6.5 51.859375 
L 14.40625 51.859375 
L 14.40625 44 
Q 17.4375 49.515625 20 51.265625 
Q 22.5625 53.03125 25.640625 53.03125 
Q 30.078125 53.03125 34.671875 50.203125 
L 31.640625 42.046875 
Q 28.421875 43.953125 25.203125 43.953125 
Q 22.3125 43.953125 20.015625 42.21875 
Q 17.71875 40.484375 16.75 37.40625 
Q 15.28125 32.71875 15.28125 27.15625 
L 15.28125 0 
z
" id="ArialMT-72"/>
     <path d="M 42.09375 16.703125 
L 51.171875 15.578125 
Q 49.03125 7.625 43.21875 3.21875 
Q 37.40625 -1.171875 28.375 -1.171875 
Q 17 -1.171875 10.328125 5.828125 
Q 3.65625 12.84375 3.65625 25.484375 
Q 3.65625 38.578125 10.390625 45.796875 
Q 17.140625 53.03125 27.875 53.03125 
Q 38.28125 53.03125 44.875 45.953125 
Q 51.46875 38.875 51.46875 26.03125 
Q 51.46875 25.25 51.421875 23.6875 
L 12.75 23.6875 
Q 13.234375 15.140625 17.578125 10.59375 
Q 21.921875 6.0625 28.421875 6.0625 
Q 33.25 6.0625 36.671875 8.59375 
Q 40.09375 11.140625 42.09375 16.703125 
z
M 13.234375 30.90625 
L 42.1875 30.90625 
Q 41.609375 37.453125 38.875 40.71875 
Q 34.671875 45.796875 27.984375 45.796875 
Q 21.921875 45.796875 17.796875 41.75 
Q 13.671875 37.703125 13.234375 30.90625 
z
" id="ArialMT-65"/>
     <path d="M 6.390625 0 
L 6.390625 71.578125 
L 15.1875 71.578125 
L 15.1875 0 
z
" id="ArialMT-6c"/>
     <path d="M 40.4375 6.390625 
Q 35.546875 2.25 31.03125 0.53125 
Q 26.515625 -1.171875 21.34375 -1.171875 
Q 12.796875 -1.171875 8.203125 3 
Q 3.609375 7.171875 3.609375 13.671875 
Q 3.609375 17.484375 5.34375 20.625 
Q 7.078125 23.78125 9.890625 25.6875 
Q 12.703125 27.59375 16.21875 28.5625 
Q 18.796875 29.25 24.03125 29.890625 
Q 34.671875 31.15625 39.703125 32.90625 
Q 39.75 34.71875 39.75 35.203125 
Q 39.75 40.578125 37.25 42.78125 
Q 33.890625 45.75 27.25 45.75 
Q 21.046875 45.75 18.09375 43.578125 
Q 15.140625 41.40625 13.71875 35.890625 
L 5.125 37.0625 
Q 6.296875 42.578125 8.984375 45.96875 
Q 11.671875 49.359375 16.75 51.1875 
Q 21.828125 53.03125 28.515625 53.03125 
Q 35.15625 53.03125 39.296875 51.46875 
Q 43.453125 49.90625 45.40625 47.53125 
Q 47.359375 45.171875 48.140625 41.546875 
Q 48.578125 39.3125 48.578125 33.453125 
L 48.578125 21.734375 
Q 48.578125 9.46875 49.140625 6.21875 
Q 49.703125 2.984375 51.375 0 
L 42.1875 0 
Q 40.828125 2.734375 40.4375 6.390625 
z
M 39.703125 26.03125 
Q 34.90625 24.078125 25.34375 22.703125 
Q 19.921875 21.921875 17.671875 20.9375 
Q 15.4375 19.96875 14.203125 18.09375 
Q 12.984375 16.21875 12.984375 13.921875 
Q 12.984375 10.40625 15.640625 8.0625 
Q 18.3125 5.71875 23.4375 5.71875 
Q 28.515625 5.71875 32.46875 7.9375 
Q 36.421875 10.15625 38.28125 14.015625 
Q 39.703125 17 39.703125 22.796875 
z
" id="ArialMT-61"/>
     <path d="M 6.640625 61.46875 
L 6.640625 71.578125 
L 15.4375 71.578125 
L 15.4375 61.46875 
z
M 6.640625 0 
L 6.640625 51.859375 
L 15.4375 51.859375 
L 15.4375 0 
z
" id="ArialMT-69"/>
     <path d="M 6.59375 0 
L 6.59375 51.859375 
L 14.5 51.859375 
L 14.5 44.484375 
Q 20.21875 53.03125 31 53.03125 
Q 35.6875 53.03125 39.625 51.34375 
Q 43.5625 49.65625 45.515625 46.921875 
Q 47.46875 44.1875 48.25 40.4375 
Q 48.734375 37.984375 48.734375 31.890625 
L 48.734375 0 
L 39.9375 0 
L 39.9375 31.546875 
Q 39.9375 36.921875 38.90625 39.578125 
Q 37.890625 42.234375 35.28125 43.8125 
Q 32.671875 45.40625 29.15625 45.40625 
Q 23.53125 45.40625 19.453125 41.84375 
Q 15.375 38.28125 15.375 28.328125 
L 15.375 0 
z
" id="ArialMT-6e"/>
    </defs>
    <g style="fill:#262626;" transform="translate(513.14625 45.84)scale(0.12 -0.12)">
     <use xlink:href="#ArialMT-41"/>
     <use x="66.699219" xlink:href="#ArialMT-75"/>
     <use x="122.314453" xlink:href="#ArialMT-74"/>
     <use x="150.097656" xlink:href="#ArialMT-6f"/>
     <use x="205.712891" xlink:href="#ArialMT-63"/>
     <use x="255.712891" xlink:href="#ArialMT-6f"/>
     <use x="311.328125" xlink:href="#ArialMT-72"/>
     <use x="344.628906" xlink:href="#ArialMT-72"/>
     <use x="377.929688" xlink:href="#ArialMT-65"/>
     <use x="433.544922" xlink:href="#ArialMT-6c"/>
     <use x="455.761719" xlink:href="#ArialMT-61"/>
     <use x="511.376953" xlink:href="#ArialMT-74"/>
     <use x="539.160156" xlink:href="#ArialMT-69"/>
     <use x="561.376953" xlink:href="#ArialMT-6f"/>
     <use x="616.992188" xlink:href="#ArialMT-6e"/>
    </g>
   </g>
  </g>
 </g>
 <defs>
  <clipPath id="paaf365f7db">
   <rect height="326.16" width="837" x="135" y="51.84"/>
  </clipPath>
 </defs>
</svg>
