<?xml version="1.0" encoding="utf-8" standalone="no"?>
<!DOCTYPE svg PUBLIC "-//W3C//DTD SVG 1.1//EN"
  "http://www.w3.org/Graphics/SVG/1.1/DTD/svg11.dtd">
<!-- Created with matplotlib (http://matplotlib.org/) -->
<svg height="432pt" version="1.1" viewBox="0 0 1080 432" width="1080pt" xmlns="http://www.w3.org/2000/svg" xmlns:xlink="http://www.w3.org/1999/xlink">
 <defs>
  <style type="text/css">
*{stroke-linecap:butt;stroke-linejoin:round;}
  </style>
 </defs>
 <g id="figure_1">
  <g id="patch_1">
   <path d="M 0 432 
L 1080 432 
L 1080 0 
L 0 0 
z
" style="fill:#ffffff;"/>
  </g>
  <g id="axes_1">
   <g id="patch_2">
    <path d="M 135 378 
L 972 378 
L 972 51.84 
L 135 51.84 
z
" style="fill:#ffffff;"/>
   </g>
   <g id="matplotlib.axis_1">
    <g id="xtick_1">
     <g id="line2d_1">
      <path clip-path="url(#pea9e91f317)" d="M 135 378 
L 135 51.84 
" style="fill:none;stroke:#cccccc;stroke-linecap:round;"/>
     </g>
     <g id="line2d_2"/>
    </g>
    <g id="xtick_2">
     <g id="line2d_3">
      <path clip-path="url(#pea9e91f317)" d="M 972 378 
L 972 51.84 
" style="fill:none;stroke:#cccccc;stroke-linecap:round;"/>
     </g>
     <g id="line2d_4"/>
    </g>
    <g id="xtick_3">
     <g id="line2d_5"/>
     <g id="text_1">
      <!--  -->
      <g style="fill:#262626;" transform="translate(161.473082 388.557813)scale(0.1 -0.1)"/>
      <!--  -->
      <g style="fill:#262626;" transform="translate(161.473082 399.134687)scale(0.1 -0.1)"/>
      <!-- Oct -->
      <defs>
       <path d="M 4.828125 34.859375 
Q 4.828125 52.6875 14.390625 62.765625 
Q 23.96875 72.859375 39.109375 72.859375 
Q 49.03125 72.859375 56.984375 68.109375 
Q 64.9375 63.375 69.109375 54.90625 
Q 73.296875 46.4375 73.296875 35.6875 
Q 73.296875 24.8125 68.890625 16.21875 
Q 64.5 7.625 56.4375 3.203125 
Q 48.390625 -1.21875 39.0625 -1.21875 
Q 28.953125 -1.21875 20.984375 3.65625 
Q 13.03125 8.546875 8.921875 16.984375 
Q 4.828125 25.4375 4.828125 34.859375 
z
M 14.59375 34.71875 
Q 14.59375 21.78125 21.546875 14.328125 
Q 28.515625 6.890625 39.015625 6.890625 
Q 49.703125 6.890625 56.609375 14.40625 
Q 63.53125 21.921875 63.53125 35.75 
Q 63.53125 44.484375 60.578125 51 
Q 57.625 57.515625 51.921875 61.109375 
Q 46.234375 64.703125 39.15625 64.703125 
Q 29.109375 64.703125 21.84375 57.78125 
Q 14.59375 50.875 14.59375 34.71875 
z
" id="ArialMT-4f"/>
       <path d="M 40.4375 19 
L 49.078125 17.875 
Q 47.65625 8.9375 41.8125 3.875 
Q 35.984375 -1.171875 27.484375 -1.171875 
Q 16.84375 -1.171875 10.375 5.78125 
Q 3.90625 12.75 3.90625 25.734375 
Q 3.90625 34.125 6.6875 40.421875 
Q 9.46875 46.734375 15.15625 49.875 
Q 20.84375 53.03125 27.546875 53.03125 
Q 35.984375 53.03125 41.359375 48.75 
Q 46.734375 44.484375 48.25 36.625 
L 39.703125 35.296875 
Q 38.484375 40.53125 35.375 43.15625 
Q 32.28125 45.796875 27.875 45.796875 
Q 21.234375 45.796875 17.078125 41.03125 
Q 12.9375 36.28125 12.9375 25.984375 
Q 12.9375 15.53125 16.9375 10.796875 
Q 20.953125 6.0625 27.390625 6.0625 
Q 32.5625 6.0625 36.03125 9.234375 
Q 39.5 12.40625 40.4375 19 
z
" id="ArialMT-63"/>
       <path d="M 25.78125 7.859375 
L 27.046875 0.09375 
Q 23.34375 -0.6875 20.40625 -0.6875 
Q 15.625 -0.6875 12.984375 0.828125 
Q 10.359375 2.34375 9.28125 4.8125 
Q 8.203125 7.28125 8.203125 15.1875 
L 8.203125 45.015625 
L 1.765625 45.015625 
L 1.765625 51.859375 
L 8.203125 51.859375 
L 8.203125 64.703125 
L 16.9375 69.96875 
L 16.9375 51.859375 
L 25.78125 51.859375 
L 25.78125 45.015625 
L 16.9375 45.015625 
L 16.9375 14.703125 
Q 16.9375 10.9375 17.40625 9.859375 
Q 17.875 8.796875 18.921875 8.15625 
Q 19.96875 7.515625 21.921875 7.515625 
Q 23.390625 7.515625 25.78125 7.859375 
z
" id="ArialMT-74"/>
      </defs>
      <g style="fill:#262626;" transform="translate(153.694957 409.711563)scale(0.1 -0.1)">
       <use xlink:href="#ArialMT-4f"/>
       <use x="77.783203" xlink:href="#ArialMT-63"/>
       <use x="127.783203" xlink:href="#ArialMT-74"/>
      </g>
      <!-- 2017 -->
      <defs>
       <path d="M 50.34375 8.453125 
L 50.34375 0 
L 3.03125 0 
Q 2.9375 3.171875 4.046875 6.109375 
Q 5.859375 10.9375 9.828125 15.625 
Q 13.8125 20.3125 21.34375 26.46875 
Q 33.015625 36.03125 37.109375 41.625 
Q 41.21875 47.21875 41.21875 52.203125 
Q 41.21875 57.421875 37.46875 61 
Q 33.734375 64.59375 27.734375 64.59375 
Q 21.390625 64.59375 17.578125 60.78125 
Q 13.765625 56.984375 13.71875 50.25 
L 4.6875 51.171875 
Q 5.609375 61.28125 11.65625 66.578125 
Q 17.71875 71.875 27.9375 71.875 
Q 38.234375 71.875 44.234375 66.15625 
Q 50.25 60.453125 50.25 52 
Q 50.25 47.703125 48.484375 43.546875 
Q 46.734375 39.40625 42.65625 34.8125 
Q 38.578125 30.21875 29.109375 22.21875 
Q 21.1875 15.578125 18.9375 13.203125 
Q 16.703125 10.84375 15.234375 8.453125 
z
" id="ArialMT-32"/>
       <path d="M 4.15625 35.296875 
Q 4.15625 48 6.765625 55.734375 
Q 9.375 63.484375 14.515625 67.671875 
Q 19.671875 71.875 27.484375 71.875 
Q 33.25 71.875 37.59375 69.546875 
Q 41.9375 67.234375 44.765625 62.859375 
Q 47.609375 58.5 49.21875 52.21875 
Q 50.828125 45.953125 50.828125 35.296875 
Q 50.828125 22.703125 48.234375 14.96875 
Q 45.65625 7.234375 40.5 3 
Q 35.359375 -1.21875 27.484375 -1.21875 
Q 17.140625 -1.21875 11.234375 6.203125 
Q 4.15625 15.140625 4.15625 35.296875 
z
M 13.1875 35.296875 
Q 13.1875 17.671875 17.3125 11.828125 
Q 21.4375 6 27.484375 6 
Q 33.546875 6 37.671875 11.859375 
Q 41.796875 17.71875 41.796875 35.296875 
Q 41.796875 52.984375 37.671875 58.78125 
Q 33.546875 64.59375 27.390625 64.59375 
Q 21.34375 64.59375 17.71875 59.46875 
Q 13.1875 52.9375 13.1875 35.296875 
z
" id="ArialMT-30"/>
       <path d="M 37.25 0 
L 28.46875 0 
L 28.46875 56 
Q 25.296875 52.984375 20.140625 49.953125 
Q 14.984375 46.921875 10.890625 45.40625 
L 10.890625 53.90625 
Q 18.265625 57.375 23.78125 62.296875 
Q 29.296875 67.234375 31.59375 71.875 
L 37.25 71.875 
z
" id="ArialMT-31"/>
       <path d="M 4.734375 62.203125 
L 4.734375 70.65625 
L 51.078125 70.65625 
L 51.078125 63.8125 
Q 44.234375 56.546875 37.515625 44.484375 
Q 30.8125 32.421875 27.15625 19.671875 
Q 24.515625 10.6875 23.78125 0 
L 14.75 0 
Q 14.890625 8.453125 18.0625 20.40625 
Q 21.234375 32.375 27.171875 43.484375 
Q 33.109375 54.59375 39.796875 62.203125 
z
" id="ArialMT-37"/>
      </defs>
      <g style="fill:#262626;" transform="translate(150.351207 420.288437)scale(0.1 -0.1)">
       <use xlink:href="#ArialMT-32"/>
       <use x="55.615234" xlink:href="#ArialMT-30"/>
       <use x="111.230469" xlink:href="#ArialMT-31"/>
       <use x="166.845703" xlink:href="#ArialMT-37"/>
      </g>
     </g>
    </g>
    <g id="xtick_4">
     <g id="line2d_6"/>
    </g>
    <g id="xtick_5">
     <g id="line2d_7"/>
    </g>
    <g id="xtick_6">
     <g id="line2d_8"/>
    </g>
    <g id="xtick_7">
     <g id="line2d_9"/>
    </g>
    <g id="xtick_8">
     <g id="line2d_10"/>
    </g>
    <g id="xtick_9">
     <g id="line2d_11"/>
    </g>
    <g id="xtick_10">
     <g id="line2d_12"/>
     <g id="text_2">
      <!-- 09 -->
      <defs>
       <path d="M 5.46875 16.546875 
L 13.921875 17.328125 
Q 14.984375 11.375 18.015625 8.6875 
Q 21.046875 6 25.78125 6 
Q 29.828125 6 32.875 7.859375 
Q 35.9375 9.71875 37.890625 12.8125 
Q 39.84375 15.921875 41.15625 21.1875 
Q 42.484375 26.46875 42.484375 31.9375 
Q 42.484375 32.515625 42.4375 33.6875 
Q 39.796875 29.5 35.234375 26.875 
Q 30.671875 24.265625 25.34375 24.265625 
Q 16.453125 24.265625 10.296875 30.703125 
Q 4.15625 37.15625 4.15625 47.703125 
Q 4.15625 58.59375 10.578125 65.234375 
Q 17 71.875 26.65625 71.875 
Q 33.640625 71.875 39.421875 68.109375 
Q 45.21875 64.359375 48.21875 57.390625 
Q 51.21875 50.4375 51.21875 37.25 
Q 51.21875 23.53125 48.234375 15.40625 
Q 45.265625 7.28125 39.375 3.03125 
Q 33.5 -1.21875 25.59375 -1.21875 
Q 17.1875 -1.21875 11.859375 3.4375 
Q 6.546875 8.109375 5.46875 16.546875 
z
M 41.453125 48.140625 
Q 41.453125 55.71875 37.421875 60.15625 
Q 33.40625 64.59375 27.734375 64.59375 
Q 21.875 64.59375 17.53125 59.8125 
Q 13.1875 55.03125 13.1875 47.40625 
Q 13.1875 40.578125 17.3125 36.296875 
Q 21.4375 32.03125 27.484375 32.03125 
Q 33.59375 32.03125 37.515625 36.296875 
Q 41.453125 40.578125 41.453125 48.140625 
z
" id="ArialMT-39"/>
      </defs>
      <g style="fill:#262626;" transform="translate(345.166519 388.557813)scale(0.1 -0.1)">
       <use xlink:href="#ArialMT-30"/>
       <use x="55.615234" xlink:href="#ArialMT-39"/>
      </g>
     </g>
    </g>
    <g id="xtick_11">
     <g id="line2d_13"/>
    </g>
    <g id="xtick_12">
     <g id="line2d_14"/>
    </g>
    <g id="xtick_13">
     <g id="line2d_15"/>
    </g>
    <g id="xtick_14">
     <g id="line2d_16"/>
    </g>
    <g id="xtick_15">
     <g id="line2d_17"/>
    </g>
    <g id="xtick_16">
     <g id="line2d_18"/>
    </g>
    <g id="xtick_17">
     <g id="line2d_19"/>
     <g id="text_3">
      <!-- 16 -->
      <defs>
       <path d="M 49.75 54.046875 
L 41.015625 53.375 
Q 39.84375 58.546875 37.703125 60.890625 
Q 34.125 64.65625 28.90625 64.65625 
Q 24.703125 64.65625 21.53125 62.3125 
Q 17.390625 59.28125 14.984375 53.46875 
Q 12.59375 47.65625 12.5 36.921875 
Q 15.671875 41.75 20.265625 44.09375 
Q 24.859375 46.4375 29.890625 46.4375 
Q 38.671875 46.4375 44.84375 39.96875 
Q 51.03125 33.5 51.03125 23.25 
Q 51.03125 16.5 48.125 10.71875 
Q 45.21875 4.9375 40.140625 1.859375 
Q 35.0625 -1.21875 28.609375 -1.21875 
Q 17.625 -1.21875 10.6875 6.859375 
Q 3.765625 14.9375 3.765625 33.5 
Q 3.765625 54.25 11.421875 63.671875 
Q 18.109375 71.875 29.4375 71.875 
Q 37.890625 71.875 43.28125 67.140625 
Q 48.6875 62.40625 49.75 54.046875 
z
M 13.875 23.1875 
Q 13.875 18.65625 15.796875 14.5 
Q 17.71875 10.359375 21.1875 8.171875 
Q 24.65625 6 28.46875 6 
Q 34.03125 6 38.03125 10.484375 
Q 42.046875 14.984375 42.046875 22.703125 
Q 42.046875 30.125 38.078125 34.390625 
Q 34.125 38.671875 28.125 38.671875 
Q 22.171875 38.671875 18.015625 34.390625 
Q 13.875 30.125 13.875 23.1875 
z
" id="ArialMT-36"/>
      </defs>
      <g style="fill:#262626;" transform="translate(534.420893 388.557813)scale(0.1 -0.1)">
       <use xlink:href="#ArialMT-31"/>
       <use x="55.615234" xlink:href="#ArialMT-36"/>
      </g>
     </g>
    </g>
    <g id="xtick_18">
     <g id="line2d_20"/>
    </g>
    <g id="xtick_19">
     <g id="line2d_21"/>
    </g>
    <g id="xtick_20">
     <g id="line2d_22"/>
    </g>
    <g id="xtick_21">
     <g id="line2d_23"/>
    </g>
    <g id="xtick_22">
     <g id="line2d_24"/>
    </g>
    <g id="xtick_23">
     <g id="line2d_25"/>
    </g>
    <g id="xtick_24">
     <g id="line2d_26"/>
     <g id="text_4">
      <!-- 23 -->
      <defs>
       <path d="M 4.203125 18.890625 
L 12.984375 20.0625 
Q 14.5 12.59375 18.140625 9.296875 
Q 21.78125 6 27 6 
Q 33.203125 6 37.46875 10.296875 
Q 41.75 14.59375 41.75 20.953125 
Q 41.75 27 37.796875 30.921875 
Q 33.84375 34.859375 27.734375 34.859375 
Q 25.25 34.859375 21.53125 33.890625 
L 22.515625 41.609375 
Q 23.390625 41.5 23.921875 41.5 
Q 29.546875 41.5 34.03125 44.421875 
Q 38.53125 47.359375 38.53125 53.46875 
Q 38.53125 58.296875 35.25 61.46875 
Q 31.984375 64.65625 26.8125 64.65625 
Q 21.6875 64.65625 18.265625 61.421875 
Q 14.84375 58.203125 13.875 51.765625 
L 5.078125 53.328125 
Q 6.6875 62.15625 12.390625 67.015625 
Q 18.109375 71.875 26.609375 71.875 
Q 32.46875 71.875 37.390625 69.359375 
Q 42.328125 66.84375 44.9375 62.5 
Q 47.5625 58.15625 47.5625 53.265625 
Q 47.5625 48.640625 45.0625 44.828125 
Q 42.578125 41.015625 37.703125 38.765625 
Q 44.046875 37.3125 47.5625 32.6875 
Q 51.078125 28.078125 51.078125 21.140625 
Q 51.078125 11.765625 44.234375 5.25 
Q 37.40625 -1.265625 26.953125 -1.265625 
Q 17.53125 -1.265625 11.296875 4.34375 
Q 5.078125 9.96875 4.203125 18.890625 
z
" id="ArialMT-33"/>
      </defs>
      <g style="fill:#262626;" transform="translate(723.675267 388.557813)scale(0.1 -0.1)">
       <use xlink:href="#ArialMT-32"/>
       <use x="55.615234" xlink:href="#ArialMT-33"/>
      </g>
     </g>
    </g>
    <g id="xtick_25">
     <g id="line2d_27"/>
    </g>
    <g id="xtick_26">
     <g id="line2d_28"/>
    </g>
    <g id="xtick_27">
     <g id="line2d_29"/>
    </g>
    <g id="xtick_28">
     <g id="line2d_30"/>
    </g>
    <g id="xtick_29">
     <g id="line2d_31"/>
    </g>
    <g id="xtick_30">
     <g id="line2d_32"/>
    </g>
    <g id="xtick_31">
     <g id="line2d_33"/>
     <g id="text_5">
      <!-- 30 -->
      <g style="fill:#262626;" transform="translate(912.929641 388.557813)scale(0.1 -0.1)">
       <use xlink:href="#ArialMT-33"/>
       <use x="55.615234" xlink:href="#ArialMT-30"/>
      </g>
     </g>
    </g>
    <g id="xtick_32">
     <g id="line2d_34"/>
    </g>
    <g id="text_6">
     <!-- Timestamp -->
     <defs>
      <path d="M 25.921875 0 
L 25.921875 63.140625 
L 2.34375 63.140625 
L 2.34375 71.578125 
L 59.078125 71.578125 
L 59.078125 63.140625 
L 35.40625 63.140625 
L 35.40625 0 
z
" id="ArialMT-54"/>
      <path d="M 6.640625 61.46875 
L 6.640625 71.578125 
L 15.4375 71.578125 
L 15.4375 61.46875 
z
M 6.640625 0 
L 6.640625 51.859375 
L 15.4375 51.859375 
L 15.4375 0 
z
" id="ArialMT-69"/>
      <path d="M 6.59375 0 
L 6.59375 51.859375 
L 14.453125 51.859375 
L 14.453125 44.578125 
Q 16.890625 48.390625 20.9375 50.703125 
Q 25 53.03125 30.171875 53.03125 
Q 35.9375 53.03125 39.625 50.640625 
Q 43.3125 48.25 44.828125 43.953125 
Q 50.984375 53.03125 60.84375 53.03125 
Q 68.5625 53.03125 72.703125 48.75 
Q 76.859375 44.484375 76.859375 35.59375 
L 76.859375 0 
L 68.109375 0 
L 68.109375 32.671875 
Q 68.109375 37.9375 67.25 40.25 
Q 66.40625 42.578125 64.15625 43.984375 
Q 61.921875 45.40625 58.890625 45.40625 
Q 53.421875 45.40625 49.796875 41.765625 
Q 46.1875 38.140625 46.1875 30.125 
L 46.1875 0 
L 37.40625 0 
L 37.40625 33.6875 
Q 37.40625 39.546875 35.25 42.46875 
Q 33.109375 45.40625 28.21875 45.40625 
Q 24.515625 45.40625 21.359375 43.453125 
Q 18.21875 41.5 16.796875 37.734375 
Q 15.375 33.984375 15.375 26.90625 
L 15.375 0 
z
" id="ArialMT-6d"/>
      <path d="M 42.09375 16.703125 
L 51.171875 15.578125 
Q 49.03125 7.625 43.21875 3.21875 
Q 37.40625 -1.171875 28.375 -1.171875 
Q 17 -1.171875 10.328125 5.828125 
Q 3.65625 12.84375 3.65625 25.484375 
Q 3.65625 38.578125 10.390625 45.796875 
Q 17.140625 53.03125 27.875 53.03125 
Q 38.28125 53.03125 44.875 45.953125 
Q 51.46875 38.875 51.46875 26.03125 
Q 51.46875 25.25 51.421875 23.6875 
L 12.75 23.6875 
Q 13.234375 15.140625 17.578125 10.59375 
Q 21.921875 6.0625 28.421875 6.0625 
Q 33.25 6.0625 36.671875 8.59375 
Q 40.09375 11.140625 42.09375 16.703125 
z
M 13.234375 30.90625 
L 42.1875 30.90625 
Q 41.609375 37.453125 38.875 40.71875 
Q 34.671875 45.796875 27.984375 45.796875 
Q 21.921875 45.796875 17.796875 41.75 
Q 13.671875 37.703125 13.234375 30.90625 
z
" id="ArialMT-65"/>
      <path d="M 3.078125 15.484375 
L 11.765625 16.84375 
Q 12.5 11.625 15.84375 8.84375 
Q 19.1875 6.0625 25.203125 6.0625 
Q 31.25 6.0625 34.171875 8.515625 
Q 37.109375 10.984375 37.109375 14.3125 
Q 37.109375 17.28125 34.515625 19 
Q 32.71875 20.171875 25.53125 21.96875 
Q 15.875 24.421875 12.140625 26.203125 
Q 8.40625 27.984375 6.46875 31.125 
Q 4.546875 34.28125 4.546875 38.09375 
Q 4.546875 41.546875 6.125 44.5 
Q 7.71875 47.46875 10.453125 49.421875 
Q 12.5 50.921875 16.03125 51.96875 
Q 19.578125 53.03125 23.640625 53.03125 
Q 29.734375 53.03125 34.34375 51.265625 
Q 38.96875 49.515625 41.15625 46.5 
Q 43.359375 43.5 44.1875 38.484375 
L 35.59375 37.3125 
Q 35.015625 41.3125 32.203125 43.546875 
Q 29.390625 45.796875 24.265625 45.796875 
Q 18.21875 45.796875 15.625 43.796875 
Q 13.03125 41.796875 13.03125 39.109375 
Q 13.03125 37.40625 14.109375 36.03125 
Q 15.1875 34.625 17.484375 33.6875 
Q 18.796875 33.203125 25.25 31.453125 
Q 34.578125 28.953125 38.25 27.359375 
Q 41.9375 25.78125 44.03125 22.75 
Q 46.140625 19.734375 46.140625 15.234375 
Q 46.140625 10.84375 43.578125 6.953125 
Q 41.015625 3.078125 36.171875 0.953125 
Q 31.34375 -1.171875 25.25 -1.171875 
Q 15.140625 -1.171875 9.84375 3.03125 
Q 4.546875 7.234375 3.078125 15.484375 
z
" id="ArialMT-73"/>
      <path d="M 40.4375 6.390625 
Q 35.546875 2.25 31.03125 0.53125 
Q 26.515625 -1.171875 21.34375 -1.171875 
Q 12.796875 -1.171875 8.203125 3 
Q 3.609375 7.171875 3.609375 13.671875 
Q 3.609375 17.484375 5.34375 20.625 
Q 7.078125 23.78125 9.890625 25.6875 
Q 12.703125 27.59375 16.21875 28.5625 
Q 18.796875 29.25 24.03125 29.890625 
Q 34.671875 31.15625 39.703125 32.90625 
Q 39.75 34.71875 39.75 35.203125 
Q 39.75 40.578125 37.25 42.78125 
Q 33.890625 45.75 27.25 45.75 
Q 21.046875 45.75 18.09375 43.578125 
Q 15.140625 41.40625 13.71875 35.890625 
L 5.125 37.0625 
Q 6.296875 42.578125 8.984375 45.96875 
Q 11.671875 49.359375 16.75 51.1875 
Q 21.828125 53.03125 28.515625 53.03125 
Q 35.15625 53.03125 39.296875 51.46875 
Q 43.453125 49.90625 45.40625 47.53125 
Q 47.359375 45.171875 48.140625 41.546875 
Q 48.578125 39.3125 48.578125 33.453125 
L 48.578125 21.734375 
Q 48.578125 9.46875 49.140625 6.21875 
Q 49.703125 2.984375 51.375 0 
L 42.1875 0 
Q 40.828125 2.734375 40.4375 6.390625 
z
M 39.703125 26.03125 
Q 34.90625 24.078125 25.34375 22.703125 
Q 19.921875 21.921875 17.671875 20.9375 
Q 15.4375 19.96875 14.203125 18.09375 
Q 12.984375 16.21875 12.984375 13.921875 
Q 12.984375 10.40625 15.640625 8.0625 
Q 18.3125 5.71875 23.4375 5.71875 
Q 28.515625 5.71875 32.46875 7.9375 
Q 36.421875 10.15625 38.28125 14.015625 
Q 39.703125 17 39.703125 22.796875 
z
" id="ArialMT-61"/>
      <path d="M 6.59375 -19.875 
L 6.59375 51.859375 
L 14.59375 51.859375 
L 14.59375 45.125 
Q 17.4375 49.078125 21 51.046875 
Q 24.5625 53.03125 29.640625 53.03125 
Q 36.28125 53.03125 41.359375 49.609375 
Q 46.4375 46.1875 49.015625 39.953125 
Q 51.609375 33.734375 51.609375 26.3125 
Q 51.609375 18.359375 48.75 11.984375 
Q 45.90625 5.609375 40.453125 2.21875 
Q 35.015625 -1.171875 29 -1.171875 
Q 24.609375 -1.171875 21.109375 0.6875 
Q 17.625 2.546875 15.375 5.375 
L 15.375 -19.875 
z
M 14.546875 25.640625 
Q 14.546875 15.625 18.59375 10.84375 
Q 22.65625 6.0625 28.421875 6.0625 
Q 34.28125 6.0625 38.453125 11.015625 
Q 42.625 15.96875 42.625 26.375 
Q 42.625 36.28125 38.546875 41.203125 
Q 34.46875 46.140625 28.8125 46.140625 
Q 23.1875 46.140625 18.859375 40.890625 
Q 14.546875 35.640625 14.546875 25.640625 
z
" id="ArialMT-70"/>
     </defs>
     <g style="fill:#262626;" transform="translate(526.305078 434.149531)scale(0.11 -0.11)">
      <use xlink:href="#ArialMT-54"/>
      <use x="61.037109" xlink:href="#ArialMT-69"/>
      <use x="83.253906" xlink:href="#ArialMT-6d"/>
      <use x="166.554688" xlink:href="#ArialMT-65"/>
      <use x="222.169922" xlink:href="#ArialMT-73"/>
      <use x="272.169922" xlink:href="#ArialMT-74"/>
      <use x="299.953125" xlink:href="#ArialMT-61"/>
      <use x="355.568359" xlink:href="#ArialMT-6d"/>
      <use x="438.869141" xlink:href="#ArialMT-70"/>
     </g>
    </g>
   </g>
   <g id="matplotlib.axis_2">
    <g id="ytick_1">
     <g id="line2d_35">
      <path clip-path="url(#pea9e91f317)" d="M 135 375.065898 
L 972 375.065898 
" style="fill:none;stroke:#cccccc;stroke-linecap:round;"/>
     </g>
     <g id="line2d_36"/>
     <g id="text_7">
      <!-- −0.15 -->
      <defs>
       <path d="M 52.828125 31.203125 
L 5.5625 31.203125 
L 5.5625 39.40625 
L 52.828125 39.40625 
z
" id="ArialMT-2212"/>
       <path d="M 9.078125 0 
L 9.078125 10.015625 
L 19.09375 10.015625 
L 19.09375 0 
z
" id="ArialMT-2e"/>
       <path d="M 4.15625 18.75 
L 13.375 19.53125 
Q 14.40625 12.796875 18.140625 9.390625 
Q 21.875 6 27.15625 6 
Q 33.5 6 37.890625 10.78125 
Q 42.28125 15.578125 42.28125 23.484375 
Q 42.28125 31 38.0625 35.34375 
Q 33.84375 39.703125 27 39.703125 
Q 22.75 39.703125 19.328125 37.765625 
Q 15.921875 35.84375 13.96875 32.765625 
L 5.71875 33.84375 
L 12.640625 70.609375 
L 48.25 70.609375 
L 48.25 62.203125 
L 19.671875 62.203125 
L 15.828125 42.96875 
Q 22.265625 47.46875 29.34375 47.46875 
Q 38.71875 47.46875 45.15625 40.96875 
Q 51.609375 34.46875 51.609375 24.265625 
Q 51.609375 14.546875 45.953125 7.46875 
Q 39.0625 -1.21875 27.15625 -1.21875 
Q 17.390625 -1.21875 11.203125 4.25 
Q 5.03125 9.71875 4.15625 18.75 
z
" id="ArialMT-35"/>
      </defs>
      <g style="fill:#262626;" transform="translate(102.698437 378.644804)scale(0.1 -0.1)">
       <use xlink:href="#ArialMT-2212"/>
       <use x="58.398438" xlink:href="#ArialMT-30"/>
       <use x="114.013672" xlink:href="#ArialMT-2e"/>
       <use x="141.796875" xlink:href="#ArialMT-31"/>
       <use x="197.412109" xlink:href="#ArialMT-35"/>
      </g>
     </g>
    </g>
    <g id="ytick_2">
     <g id="line2d_37">
      <path clip-path="url(#pea9e91f317)" d="M 135 306.443455 
L 972 306.443455 
" style="fill:none;stroke:#cccccc;stroke-linecap:round;"/>
     </g>
     <g id="line2d_38"/>
     <g id="text_8">
      <!-- −0.10 -->
      <g style="fill:#262626;" transform="translate(102.698437 310.022362)scale(0.1 -0.1)">
       <use xlink:href="#ArialMT-2212"/>
       <use x="58.398438" xlink:href="#ArialMT-30"/>
       <use x="114.013672" xlink:href="#ArialMT-2e"/>
       <use x="141.796875" xlink:href="#ArialMT-31"/>
       <use x="197.412109" xlink:href="#ArialMT-30"/>
      </g>
     </g>
    </g>
    <g id="ytick_3">
     <g id="line2d_39">
      <path clip-path="url(#pea9e91f317)" d="M 135 237.821013 
L 972 237.821013 
" style="fill:none;stroke:#cccccc;stroke-linecap:round;"/>
     </g>
     <g id="line2d_40"/>
     <g id="text_9">
      <!-- −0.05 -->
      <g style="fill:#262626;" transform="translate(102.698437 241.399919)scale(0.1 -0.1)">
       <use xlink:href="#ArialMT-2212"/>
       <use x="58.398438" xlink:href="#ArialMT-30"/>
       <use x="114.013672" xlink:href="#ArialMT-2e"/>
       <use x="141.796875" xlink:href="#ArialMT-30"/>
       <use x="197.412109" xlink:href="#ArialMT-35"/>
      </g>
     </g>
    </g>
    <g id="ytick_4">
     <g id="line2d_41">
      <path clip-path="url(#pea9e91f317)" d="M 135 169.19857 
L 972 169.19857 
" style="fill:none;stroke:#cccccc;stroke-linecap:round;"/>
     </g>
     <g id="line2d_42"/>
     <g id="text_10">
      <!-- 0.00 -->
      <g style="fill:#262626;" transform="translate(108.539062 172.777476)scale(0.1 -0.1)">
       <use xlink:href="#ArialMT-30"/>
       <use x="55.615234" xlink:href="#ArialMT-2e"/>
       <use x="83.398438" xlink:href="#ArialMT-30"/>
       <use x="139.013672" xlink:href="#ArialMT-30"/>
      </g>
     </g>
    </g>
    <g id="ytick_5">
     <g id="line2d_43">
      <path clip-path="url(#pea9e91f317)" d="M 135 100.576127 
L 972 100.576127 
" style="fill:none;stroke:#cccccc;stroke-linecap:round;"/>
     </g>
     <g id="line2d_44"/>
     <g id="text_11">
      <!-- 0.05 -->
      <g style="fill:#262626;" transform="translate(108.539062 104.155034)scale(0.1 -0.1)">
       <use xlink:href="#ArialMT-30"/>
       <use x="55.615234" xlink:href="#ArialMT-2e"/>
       <use x="83.398438" xlink:href="#ArialMT-30"/>
       <use x="139.013672" xlink:href="#ArialMT-35"/>
      </g>
     </g>
    </g>
   </g>
   <g id="line2d_45">
    <path clip-path="url(#pea9e91f317)" d="M 135 165.239737 
L 135.563257 179.609222 
L 136.126514 151.976978 
L 136.689771 160.001854 
L 137.253028 174.010209 
L 137.816285 172.174497 
L 138.379542 172.072259 
L 138.942799 163.975726 
L 139.506057 151.849478 
L 140.069314 175.856336 
L 140.632571 157.253258 
L 141.195828 168.350838 
L 141.759085 211.191671 
L 142.322342 165.6955 
L 142.885599 175.506432 
L 143.448856 167.729299 
L 144.57537 185.142213 
L 145.138627 184.605275 
L 145.701884 168.677447 
L 146.265141 163.153835 
L 146.828398 172.707517 
L 147.391655 175.131958 
L 148.51817 158.110555 
L 149.081427 174.983495 
L 149.644684 180.84285 
L 150.207941 169.370945 
L 150.771198 161.703133 
L 151.334455 189.354228 
L 151.897712 152.419543 
L 152.460969 165.56797 
L 153.024226 148.446714 
L 153.587483 164.443 
L 154.15074 164.36002 
L 154.713997 172.307368 
L 155.277254 159.773677 
L 155.840511 165.174799 
L 156.403769 187.553971 
L 156.967026 170.523468 
L 157.530283 163.674353 
L 158.656797 156.047098 
L 159.220054 182.851483 
L 159.783311 160.644582 
L 160.346568 172.445266 
L 160.909825 164.394493 
L 161.473082 159.212858 
L 162.036339 155.72051 
L 162.599596 171.229547 
L 163.162853 160.111251 
L 163.72611 131.858861 
L 164.289367 175.441521 
L 164.852624 166.512043 
L 165.415882 141.537841 
L 165.979139 173.330406 
L 166.542396 178.155334 
L 167.105653 160.783534 
L 167.66891 165.892225 
L 168.232167 217.607073 
L 168.795424 172.589589 
L 169.358681 165.231829 
L 169.921938 165.493741 
L 170.485195 188.53985 
L 171.048452 174.177967 
L 171.611709 176.682223 
L 172.174966 195.082051 
L 173.30148 154.126001 
L 173.864738 179.159619 
L 174.427995 176.961396 
L 174.991252 170.064348 
L 175.554509 178.415211 
L 176.117766 161.480346 
L 176.681023 179.9577 
L 177.24428 155.876197 
L 177.807537 178.568203 
L 178.370794 162.465412 
L 178.934051 167.463524 
L 179.497308 161.160578 
L 180.060565 180.210537 
L 180.623822 162.491836 
L 181.187079 169.818473 
L 181.750336 166.442443 
L 182.313594 181.551958 
L 182.876851 156.530777 
L 183.440108 166.948537 
L 184.003365 155.43404 
L 184.566622 167.428674 
L 185.129879 170.584325 
L 185.693136 161.263203 
L 186.256393 172.470428 
L 186.81965 161.470393 
L 187.382907 176.586622 
L 187.946164 176.65087 
L 188.509421 178.455914 
L 189.635935 158.80914 
L 190.199192 167.009467 
L 190.76245 164.288409 
L 191.325707 160.880751 
L 191.888964 153.218623 
L 192.452221 175.604606 
L 193.015478 185.804742 
L 193.578735 165.346765 
L 194.141992 166.356411 
L 194.705249 169.646203 
L 195.268506 159.604008 
L 195.831763 169.413606 
L 196.39502 209.652675 
L 196.958277 157.192353 
L 197.521534 160.685484 
L 198.084791 194.260187 
L 198.648048 172.038313 
L 199.211306 172.618536 
L 199.774563 166.258308 
L 200.33782 188.637211 
L 200.901077 178.090217 
L 201.464334 179.222182 
L 202.027591 179.098533 
L 202.590848 166.744134 
L 203.154105 150.772006 
L 203.717362 168.439355 
L 204.280619 175.000907 
L 205.407133 160.326514 
L 206.533647 172.113007 
L 207.096904 159.209946 
L 207.660162 157.185456 
L 208.223419 165.112095 
L 208.786676 165.467846 
L 209.349933 162.587486 
L 209.91319 157.256429 
L 210.476447 189.956817 
L 211.039704 159.797377 
L 211.602961 174.336605 
L 212.166218 161.126511 
L 212.729475 164.646955 
L 213.292732 183.821407 
L 213.855989 146.674915 
L 214.419246 181.356518 
L 214.982503 161.763678 
L 215.54576 182.941897 
L 216.109017 171.342876 
L 216.672275 172.771243 
L 217.235532 172.913175 
L 217.798789 144.694369 
L 218.362046 174.042729 
L 218.925303 187.613328 
L 219.48856 158.017047 
L 220.051817 169.655693 
L 220.615074 163.909091 
L 221.178331 142.884478 
L 221.741588 157.402781 
L 222.304845 135.487163 
L 222.868102 196.430888 
L 223.431359 146.973881 
L 223.994616 209.623017 
L 224.557873 176.429662 
L 225.121131 169.881452 
L 225.684388 172.998279 
L 226.247645 190.894721 
L 226.810902 193.957641 
L 227.374159 170.964682 
L 227.937416 172.920023 
L 228.500673 164.10131 
L 229.06393 173.284449 
L 230.190444 176.593509 
L 230.753701 189.595521 
L 231.316958 169.589855 
L 231.880215 165.040021 
L 232.443472 156.687263 
L 233.569987 175.113276 
L 234.133244 154.489518 
L 234.696501 148.627088 
L 235.259758 174.40727 
L 235.823015 149.009722 
L 236.386272 169.806456 
L 236.949529 179.346896 
L 237.512786 166.910592 
L 238.076043 170.519713 
L 238.6393 176.371638 
L 239.202557 167.023708 
L 239.765814 160.797727 
L 240.329071 133.637207 
L 240.892328 170.840506 
L 241.455585 167.549526 
L 242.018843 153.822742 
L 243.145357 169.220542 
L 243.708614 158.563191 
L 244.271871 177.695054 
L 244.835128 166.032358 
L 245.398385 180.643724 
L 245.961642 165.63964 
L 246.524899 139.667599 
L 247.088156 140.109293 
L 247.651413 162.122883 
L 248.21467 164.300478 
L 248.777927 113.135595 
L 249.341184 178.759948 
L 249.904441 70.499529 
L 250.467699 162.435585 
L 251.030956 322.84406 
L 251.594213 200.775227 
L 252.15747 199.138847 
L 252.720727 195.925989 
L 253.283984 181.644315 
L 253.847241 175.201907 
L 254.410498 194.184734 
L 254.973755 163.565499 
L 255.537012 181.877251 
L 256.100269 167.32473 
L 256.663526 174.652991 
L 257.226783 154.791651 
L 257.79004 191.712629 
L 258.353297 168.97346 
L 258.916555 167.232562 
L 259.479812 182.830373 
L 260.043069 156.9284 
L 260.606326 157.607364 
L 261.169583 171.891486 
L 261.73284 159.16106 
L 262.296097 180.281002 
L 262.859354 164.842759 
L 263.422611 175.503595 
L 263.985868 183.518771 
L 264.549125 169.157914 
L 265.112382 162.148375 
L 265.675639 168.339073 
L 266.238896 171.239717 
L 266.802153 168.373206 
L 267.36541 153.112128 
L 267.928668 155.886193 
L 268.491925 185.150032 
L 269.055182 168.67788 
L 269.618439 175.984064 
L 270.181696 186.816431 
L 270.744953 154.000375 
L 271.30821 156.675511 
L 271.871467 173.479855 
L 272.434724 156.201101 
L 272.997981 167.381394 
L 273.561238 145.285988 
L 274.124495 154.448272 
L 274.687752 186.52523 
L 275.251009 160.538317 
L 275.814266 148.758301 
L 276.377524 183.005247 
L 276.940781 182.115329 
L 277.504038 188.429933 
L 278.067295 173.4892 
L 278.630552 186.787758 
L 279.193809 184.394237 
L 279.757066 168.411108 
L 280.320323 165.173249 
L 281.446837 170.638817 
L 282.010094 174.838931 
L 282.573351 175.398924 
L 283.136608 157.794708 
L 283.699865 171.883051 
L 284.263122 163.191979 
L 284.82638 181.38279 
L 285.389637 158.439887 
L 285.952894 164.436383 
L 286.516151 158.963194 
L 287.079408 172.947439 
L 287.642665 169.106059 
L 288.205922 170.432132 
L 289.332436 154.855833 
L 289.895693 171.623356 
L 290.45895 178.139687 
L 291.585464 157.707966 
L 292.148721 168.71242 
L 292.711978 170.54991 
L 293.275236 151.150945 
L 293.838493 174.049492 
L 294.40175 177.952683 
L 294.965007 154.508626 
L 295.528264 178.300511 
L 296.091521 161.733799 
L 296.654778 167.505212 
L 297.218035 186.170241 
L 297.781292 165.607263 
L 298.344549 170.382732 
L 298.907806 169.278715 
L 299.471063 162.927717 
L 300.03432 162.138482 
L 300.597577 184.408502 
L 301.160834 161.806774 
L 301.724092 165.135693 
L 302.287349 159.500444 
L 302.850606 143.749878 
L 303.413863 90.949486 
L 303.97712 154.222724 
L 304.540377 294.89789 
L 305.103634 196.607135 
L 305.666891 182.810996 
L 306.230148 165.987592 
L 306.793405 192.824621 
L 307.356662 166.1216 
L 307.919919 170.80829 
L 308.483176 162.664871 
L 309.046433 175.676396 
L 309.60969 167.607382 
L 310.172948 188.340612 
L 310.736205 160.354722 
L 311.299462 165.186346 
L 311.862719 173.993781 
L 312.425976 172.939749 
L 312.989233 168.448922 
L 313.55249 159.758966 
L 314.115747 185.458306 
L 314.679004 140.598786 
L 315.242261 163.837644 
L 315.805518 172.17008 
L 316.368775 149.247398 
L 316.932032 155.515451 
L 317.495289 155.879547 
L 318.058546 171.203096 
L 318.621803 165.247843 
L 319.185061 185.124319 
L 319.748318 155.180492 
L 320.311575 171.893059 
L 320.874832 178.56051 
L 321.438089 168.305157 
L 322.001346 182.995526 
L 322.564603 168.147842 
L 323.12786 188.146805 
L 323.691117 158.140054 
L 324.254374 146.730171 
L 324.817631 191.648182 
L 325.380888 176.785269 
L 325.944145 186.24599 
L 326.507402 174.490704 
L 327.633917 158.354781 
L 328.760431 176.52949 
L 329.323688 158.76953 
L 329.886945 171.044567 
L 330.450202 179.562924 
L 331.013459 172.514874 
L 331.576716 161.442511 
L 332.139973 179.858118 
L 332.70323 166.07005 
L 333.266487 171.334072 
L 333.829744 170.118203 
L 334.393001 174.804946 
L 334.956258 163.266403 
L 335.519515 169.877854 
L 336.082773 167.871294 
L 336.64603 176.074727 
L 337.209287 166.003363 
L 337.772544 168.328479 
L 338.335801 180.30397 
L 338.899058 164.57746 
L 339.462315 163.397525 
L 340.025572 178.032283 
L 340.588829 163.38616 
L 341.152086 164.631519 
L 341.715343 161.114832 
L 342.2786 159.43667 
L 342.841857 151.553208 
L 343.405114 163.681608 
L 343.968371 154.513917 
L 344.531629 175.258335 
L 345.094886 147.970921 
L 345.658143 179.45966 
L 346.2214 183.322831 
L 346.784657 156.188143 
L 347.347914 181.232249 
L 347.911171 167.098353 
L 348.474428 175.956313 
L 349.037685 163.377647 
L 349.600942 168.752026 
L 350.164199 172.308083 
L 350.727456 162.994263 
L 351.290713 137.723139 
L 351.85397 175.649921 
L 352.417227 154.11643 
L 352.980485 168.060499 
L 353.543742 190.225263 
L 354.670256 158.278946 
L 355.233513 155.676813 
L 355.79677 156.027197 
L 356.360027 156.921971 
L 356.923284 171.989467 
L 357.486541 167.852923 
L 358.049798 134.234281 
L 358.613055 215.20052 
L 359.176312 215.741564 
L 359.739569 173.896442 
L 360.302826 175.888994 
L 360.866083 186.435912 
L 361.429341 181.502391 
L 361.992598 172.066885 
L 362.555855 160.010856 
L 363.119112 169.190011 
L 363.682369 172.70928 
L 364.245626 161.342844 
L 364.808883 178.923416 
L 365.37214 163.892455 
L 365.935397 175.956276 
L 366.498654 169.870688 
L 367.061911 157.679662 
L 367.625168 174.908075 
L 368.188425 173.934086 
L 368.751682 162.548046 
L 369.314939 158.621787 
L 369.878197 171.491929 
L 370.441454 158.71225 
L 371.004711 156.695401 
L 371.567968 163.352743 
L 372.131225 142.367787 
L 372.694482 203.334522 
L 373.257739 167.494943 
L 373.820996 146.202875 
L 374.384253 165.213456 
L 374.94751 199.231921 
L 375.510767 152.487202 
L 376.074024 176.417072 
L 376.637281 173.860928 
L 377.200538 155.153492 
L 377.763795 169.159502 
L 378.327052 165.892493 
L 378.89031 177.43854 
L 379.453567 172.532444 
L 380.016824 159.783138 
L 380.580081 171.458909 
L 381.143338 167.168687 
L 381.706595 148.165224 
L 382.269852 80.433643 
L 382.833109 122.332289 
L 383.396366 154.650785 
L 383.959623 135.237272 
L 384.52288 104.550754 
L 385.086137 117.077556 
L 385.649394 206.320814 
L 386.212651 344.444849 
L 386.775908 241.251465 
L 387.339166 199.790457 
L 387.902423 180.462881 
L 388.46568 172.645942 
L 389.028937 167.093031 
L 389.592194 178.049504 
L 390.155451 184.953646 
L 390.718708 176.59356 
L 391.281965 171.241157 
L 391.845222 162.954458 
L 392.408479 176.311704 
L 392.971736 156.862256 
L 393.534993 178.942586 
L 394.09825 175.986514 
L 394.661507 165.007661 
L 395.224764 165.020419 
L 395.788022 165.428666 
L 396.351279 153.940282 
L 396.914536 174.098884 
L 397.477793 147.99668 
L 398.04105 176.74526 
L 399.167564 166.691241 
L 399.730821 161.31809 
L 400.294078 178.429874 
L 400.857335 175.338232 
L 401.420592 166.189756 
L 401.983849 176.802835 
L 402.547106 162.930203 
L 403.110363 174.275416 
L 403.67362 162.625782 
L 404.236878 168.675192 
L 404.800135 152.012825 
L 405.363392 169.346188 
L 405.926649 157.569455 
L 406.489906 162.143521 
L 407.053163 188.393527 
L 407.61642 172.059772 
L 408.179677 147.885525 
L 408.742934 177.668553 
L 409.306191 152.610517 
L 409.869448 169.405244 
L 410.432705 153.600832 
L 410.995962 178.905934 
L 411.559219 166.429053 
L 412.685734 181.778711 
L 413.248991 177.905438 
L 413.812248 202.93699 
L 414.375505 149.901042 
L 414.938762 142.820547 
L 415.502019 185.458716 
L 416.065276 195.867698 
L 416.628533 169.932623 
L 417.19179 170.421993 
L 417.755047 172.053313 
L 418.318304 186.090612 
L 418.881561 171.776477 
L 420.008075 165.023098 
L 420.571332 168.650665 
L 421.13459 159.356035 
L 421.697847 179.222422 
L 422.261104 168.865992 
L 422.824361 151.561925 
L 423.950875 173.444146 
L 424.514132 162.98502 
L 425.077389 161.825098 
L 425.640646 166.371532 
L 426.203903 164.629261 
L 426.76716 166.06464 
L 427.330417 162.054713 
L 427.893674 178.287383 
L 428.456931 163.993358 
L 429.020188 179.057982 
L 429.583445 167.037384 
L 430.146703 173.22725 
L 430.70996 166.866118 
L 431.273217 166.312251 
L 431.836474 163.703927 
L 432.399731 162.552691 
L 432.962988 180.75591 
L 433.526245 172.376551 
L 434.089502 160.620105 
L 435.216016 176.18043 
L 435.779273 142.56231 
L 436.34253 165.142871 
L 436.905787 162.847351 
L 437.469044 147.492381 
L 438.032301 181.831218 
L 438.595559 168.844517 
L 439.158816 194.032254 
L 439.722073 153.36834 
L 440.28533 177.383068 
L 440.848587 190.239619 
L 441.975101 164.757538 
L 442.538358 162.571245 
L 443.101615 174.068417 
L 443.664872 183.122725 
L 444.228129 177.953341 
L 444.791386 168.646381 
L 445.354643 184.760727 
L 445.9179 160.548245 
L 446.481157 170.629843 
L 447.044415 164.255953 
L 447.607672 187.899059 
L 448.170929 170.540856 
L 448.734186 168.879732 
L 449.297443 160.853794 
L 449.8607 161.283161 
L 450.423957 171.297862 
L 450.987214 153.313702 
L 451.550471 175.303276 
L 452.113728 161.048548 
L 452.676985 169.530946 
L 453.240242 156.555074 
L 453.803499 162.455721 
L 454.366756 179.3491 
L 454.930013 177.224147 
L 455.493271 155.844035 
L 456.056528 180.55525 
L 456.619785 147.225276 
L 457.183042 168.394601 
L 457.746299 168.247302 
L 458.309556 162.125369 
L 458.872813 183.689198 
L 459.43607 174.637322 
L 459.999327 144.995785 
L 460.562584 174.04962 
L 461.125841 162.459225 
L 461.689098 161.730777 
L 462.252355 167.119297 
L 462.815612 136.350924 
L 463.378869 182.305883 
L 463.942127 171.77577 
L 464.505384 143.558397 
L 465.068641 166.324629 
L 465.631898 156.334234 
L 466.195155 122.815165 
L 466.758412 103.821417 
L 467.321669 216.246934 
L 467.884926 222.048874 
L 468.448183 212.970532 
L 469.01144 179.376403 
L 470.137954 161.198337 
L 470.701211 143.836302 
L 471.264468 181.896527 
L 471.827725 186.272372 
L 472.390983 163.540744 
L 472.95424 188.189479 
L 473.517497 187.493393 
L 474.080754 165.463306 
L 474.644011 163.797047 
L 475.207268 173.340164 
L 475.770525 154.865542 
L 476.333782 145.689852 
L 476.897039 172.181275 
L 477.460296 145.367732 
L 478.023553 169.661694 
L 478.58681 182.565965 
L 479.713324 158.139261 
L 480.276581 172.308765 
L 480.839838 154.549307 
L 481.403096 174.218523 
L 481.966353 182.91988 
L 482.52961 177.496779 
L 483.092867 182.616011 
L 483.656124 156.376413 
L 484.219381 161.9011 
L 484.782638 172.007085 
L 485.345895 131.195673 
L 485.909152 174.706472 
L 486.472409 166.230817 
L 487.035666 185.402102 
L 487.598923 165.800096 
L 488.16218 174.217511 
L 488.725437 144.219546 
L 489.288694 149.558288 
L 489.851952 186.106149 
L 490.415209 138.694342 
L 490.978466 170.300617 
L 491.541723 144.56215 
L 492.10498 178.530579 
L 493.231494 113.43613 
L 493.794751 87.21032 
L 494.358008 82.402167 
L 494.921265 363.174545 
L 495.484522 185.425475 
L 496.047779 171.186067 
L 496.611036 183.178354 
L 497.174293 203.314926 
L 498.300808 183.117907 
L 498.864065 195.752792 
L 499.427322 195.519593 
L 499.990579 160.077638 
L 500.553836 168.620795 
L 501.117093 165.887719 
L 501.68035 171.934842 
L 502.243607 165.302328 
L 502.806864 170.808398 
L 503.370121 142.216013 
L 503.933378 160.878112 
L 504.496635 164.551966 
L 505.059892 177.260794 
L 505.623149 171.223197 
L 506.186406 147.731653 
L 506.749664 179.404081 
L 507.312921 167.220474 
L 507.876178 161.255787 
L 508.439435 159.256164 
L 509.002692 184.547564 
L 509.565949 155.191803 
L 510.129206 164.780598 
L 510.692463 181.952497 
L 511.818977 157.902695 
L 512.382234 153.605641 
L 512.945491 161.702359 
L 513.508748 166.826633 
L 514.072005 175.276543 
L 514.635262 170.60477 
L 515.19852 161.457822 
L 515.761777 189.562481 
L 516.325034 152.749677 
L 516.888291 151.638851 
L 517.451548 147.158808 
L 518.014805 190.893973 
L 518.578062 182.597552 
L 519.141319 155.229824 
L 519.704576 155.071859 
L 520.267833 151.696067 
L 520.83109 66.665455 
L 521.394347 204.375395 
L 521.957604 276.426518 
L 523.084118 143.807808 
L 523.647376 161.823624 
L 524.210633 185.59502 
L 524.77389 175.108114 
L 525.337147 170.801988 
L 525.900404 200.236678 
L 526.463661 187.082636 
L 527.026918 184.691244 
L 527.590175 157.11079 
L 528.716689 174.883072 
L 529.279946 174.326167 
L 529.843203 155.068785 
L 530.40646 162.902953 
L 530.969717 180.390421 
L 531.532974 154.006692 
L 532.096231 152.834599 
L 532.659489 180.110812 
L 533.222746 165.381738 
L 533.786003 156.54378 
L 534.34926 189.379996 
L 534.912517 182.971869 
L 535.475774 150.901236 
L 536.039031 180.409711 
L 537.165545 157.042005 
L 537.728802 173.87119 
L 538.292059 177.898912 
L 538.855316 161.948888 
L 539.418573 179.757172 
L 539.98183 168.156668 
L 540.545087 178.289931 
L 541.108345 157.803671 
L 542.234859 166.015095 
L 542.798116 165.2232 
L 543.361373 166.172232 
L 543.92463 161.482689 
L 544.487887 164.606602 
L 545.051144 166.875903 
L 545.614401 186.486778 
L 546.177658 172.668436 
L 546.740915 153.922552 
L 547.304172 149.911542 
L 547.867429 177.870102 
L 548.430686 168.351731 
L 548.993943 170.146141 
L 549.557201 169.508909 
L 550.120458 153.797869 
L 551.246972 190.839334 
L 551.810229 181.802851 
L 552.373486 149.81533 
L 553.5 180.809425 
L 554.063257 200.556404 
L 554.626514 193.012417 
L 555.189771 152.194392 
L 555.753028 184.394381 
L 556.316285 164.972049 
L 556.879542 154.786716 
L 557.442799 171.328018 
L 558.006057 156.988648 
L 558.569314 161.148025 
L 559.132571 172.523086 
L 559.695828 149.667215 
L 560.822342 178.959135 
L 561.385599 169.53551 
L 561.948856 174.066323 
L 562.512113 175.739287 
L 563.07537 165.224152 
L 563.638627 177.375843 
L 564.201884 167.179163 
L 564.765141 174.794671 
L 565.328398 165.317391 
L 565.891655 172.730269 
L 566.454913 155.35686 
L 567.01817 170.577011 
L 567.581427 141.113053 
L 568.144684 156.149489 
L 569.271198 197.505078 
L 570.397712 160.832725 
L 570.960969 149.312916 
L 571.524226 153.991403 
L 572.087483 193.568332 
L 572.65074 178.864659 
L 573.213997 152.469138 
L 573.777254 146.358982 
L 574.340511 187.193724 
L 574.903769 174.895197 
L 575.467026 177.201685 
L 576.030283 161.06511 
L 576.59354 170.742999 
L 577.156797 170.836212 
L 577.720054 181.304325 
L 578.283311 175.329371 
L 578.846568 165.003453 
L 579.409825 196.522506 
L 579.973082 178.743958 
L 580.536339 146.963358 
L 581.099596 153.984126 
L 581.662853 181.829395 
L 582.22611 171.38574 
L 582.789367 184.822483 
L 583.352624 177.208927 
L 583.915882 153.65239 
L 584.479139 170.622771 
L 585.042396 169.021225 
L 585.605653 132.778378 
L 586.16891 190.349666 
L 587.295424 156.385326 
L 587.858681 172.348627 
L 588.421938 180.207181 
L 588.985195 155.836329 
L 589.548452 178.451462 
L 590.111709 164.739512 
L 590.674966 169.379441 
L 591.238223 168.439982 
L 591.80148 168.440401 
L 592.364738 169.504051 
L 592.927995 166.575831 
L 593.491252 167.791844 
L 594.054509 167.17996 
L 594.617766 173.822733 
L 595.181023 175.712053 
L 595.74428 166.97979 
L 596.307537 171.431502 
L 596.870794 155.43708 
L 597.434051 172.103634 
L 597.997308 159.485423 
L 598.560565 160.838772 
L 599.123822 158.856641 
L 599.687079 142.542066 
L 600.250336 185.327812 
L 600.813594 174.305889 
L 601.376851 194.56562 
L 601.940108 149.627852 
L 602.503365 157.959408 
L 603.066622 162.675522 
L 603.629879 205.38571 
L 604.193136 167.904672 
L 604.756393 163.760382 
L 605.31965 190.752517 
L 605.882907 167.298462 
L 606.446164 166.044283 
L 607.009421 189.806758 
L 607.572678 177.357977 
L 608.135935 179.518248 
L 608.699192 186.50388 
L 609.26245 151.747207 
L 609.825707 157.451596 
L 610.388964 170.849803 
L 610.952221 170.851792 
L 611.515478 162.068269 
L 612.078735 165.287541 
L 612.641992 175.836585 
L 613.205249 158.487523 
L 613.768506 177.06123 
L 614.89502 173.386395 
L 615.458277 179.656501 
L 616.021534 164.166581 
L 616.584791 173.520915 
L 617.148048 174.915681 
L 617.711306 160.428761 
L 618.274563 172.400856 
L 618.83782 163.694061 
L 619.401077 167.5063 
L 619.964334 164.959285 
L 620.527591 169.651834 
L 621.090848 166.113644 
L 621.654105 154.956584 
L 622.217362 166.45382 
L 622.780619 172.369927 
L 623.343876 149.42727 
L 623.907133 181.027596 
L 624.47039 159.811272 
L 625.033647 149.327878 
L 625.596904 131.324513 
L 626.160162 172.441629 
L 626.723419 188.428729 
L 627.286676 217.444243 
L 627.849933 126.498043 
L 628.41319 99.218409 
L 628.976447 202.9678 
L 629.539704 103.295239 
L 630.666218 197.925056 
L 631.229475 183.769811 
L 631.792732 228.861306 
L 632.355989 200.289029 
L 632.919246 148.267016 
L 633.482503 198.218196 
L 634.04576 154.191332 
L 634.609017 176.926713 
L 635.735532 155.227241 
L 636.298789 174.143704 
L 636.862046 197.445223 
L 637.425303 173.877306 
L 637.98856 183.474699 
L 638.551817 154.275546 
L 639.115074 157.130757 
L 639.678331 145.678722 
L 640.241588 179.569615 
L 640.804845 166.038402 
L 641.368102 173.061143 
L 641.931359 176.560808 
L 643.057873 163.605967 
L 643.621131 165.891007 
L 644.184388 164.718054 
L 644.747645 169.424239 
L 645.310902 163.644568 
L 645.874159 178.958929 
L 646.437416 157.801918 
L 647.000673 154.51553 
L 647.56393 176.851533 
L 648.127187 173.210899 
L 648.690444 167.011309 
L 649.253701 177.95977 
L 649.816958 178.986605 
L 650.380215 174.877872 
L 650.943472 173.008329 
L 651.506729 180.746907 
L 652.069987 163.982054 
L 652.633244 153.291021 
L 653.196501 167.214451 
L 653.759758 164.443299 
L 654.323015 155.55927 
L 654.886272 181.615064 
L 655.449529 177.976696 
L 656.012786 178.017914 
L 656.576043 141.1776 
L 657.1393 166.701778 
L 657.702557 172.538924 
L 658.265814 175.13474 
L 658.829071 186.620574 
L 659.392328 183.988317 
L 659.955585 170.89974 
L 660.518843 166.200956 
L 661.0821 182.154821 
L 661.645357 160.103218 
L 662.208614 184.700103 
L 662.771871 162.218779 
L 663.335128 173.349905 
L 663.898385 174.895419 
L 664.461642 171.743242 
L 665.024899 157.601137 
L 665.588156 177.293365 
L 666.151413 172.282221 
L 666.71467 148.727026 
L 667.277927 166.167899 
L 667.841184 174.032279 
L 668.404441 160.620567 
L 668.967699 169.081439 
L 669.530956 185.319206 
L 670.094213 162.321216 
L 670.65747 171.665763 
L 671.220727 170.082802 
L 671.783984 175.528618 
L 672.347241 159.530091 
L 672.910498 150.791004 
L 673.473755 165.641415 
L 674.037012 167.862331 
L 674.600269 157.392722 
L 675.163526 177.255766 
L 676.29004 171.050719 
L 676.853297 173.842594 
L 677.416555 173.823927 
L 677.979812 161.295812 
L 678.543069 164.225823 
L 679.106326 190.394509 
L 679.669583 167.779733 
L 680.23284 165.17465 
L 680.796097 143.893348 
L 681.359354 168.317702 
L 681.922611 149.70717 
L 682.485868 170.791389 
L 683.049125 174.889021 
L 683.612382 183.711652 
L 684.175639 207.230178 
L 684.738896 170.936066 
L 685.302153 175.936802 
L 685.86541 168.22738 
L 686.428668 168.073356 
L 686.991925 186.605219 
L 687.555182 174.848025 
L 688.118439 171.610545 
L 688.681696 178.361793 
L 689.244953 181.499605 
L 689.80821 155.221643 
L 690.371467 164.528437 
L 690.934724 164.263046 
L 691.497981 181.390844 
L 692.061238 156.395744 
L 692.624495 148.47558 
L 693.187752 160.329796 
L 693.751009 169.347937 
L 694.314266 164.004576 
L 694.877524 183.703868 
L 695.440781 179.307423 
L 696.004038 160.47314 
L 696.567295 175.407226 
L 697.130552 170.064921 
L 698.257066 165.301648 
L 698.820323 167.394456 
L 699.38358 169.046519 
L 699.946837 175.59566 
L 700.510094 171.703508 
L 701.073351 154.085204 
L 701.636608 165.057788 
L 702.199865 172.457274 
L 702.763122 172.843122 
L 703.32638 163.652949 
L 703.889637 180.855643 
L 704.452894 168.161533 
L 705.016151 162.926138 
L 706.142665 173.145275 
L 706.705922 162.392659 
L 707.269179 177.894904 
L 707.832436 174.033547 
L 708.395693 161.835417 
L 708.95895 167.121915 
L 709.522207 170.126345 
L 710.085464 168.905153 
L 710.648721 184.280593 
L 711.211978 162.619032 
L 711.775236 176.931385 
L 712.338493 166.594915 
L 712.90175 173.173427 
L 713.465007 164.615942 
L 714.591521 178.959505 
L 715.718035 167.279614 
L 716.281292 174.156586 
L 716.844549 169.685531 
L 717.407806 162.501394 
L 717.971063 173.407607 
L 718.53432 168.767703 
L 719.097577 165.139322 
L 719.660834 157.565031 
L 720.224092 167.195454 
L 720.787349 183.096485 
L 721.350606 158.736972 
L 721.913863 169.920988 
L 722.47712 159.230981 
L 723.040377 169.364028 
L 723.603634 170.191301 
L 724.166891 180.123827 
L 724.730148 184.431984 
L 725.293405 167.689267 
L 725.856662 160.598725 
L 726.419919 172.120108 
L 726.983176 167.861695 
L 727.546433 168.860737 
L 728.10969 171.255773 
L 728.672948 160.679809 
L 729.236205 159.045679 
L 729.799462 185.612749 
L 730.362719 168.512087 
L 730.925976 168.196952 
L 731.489233 166.792309 
L 732.05249 169.576815 
L 732.615747 155.321458 
L 733.742261 178.152451 
L 734.305518 161.72528 
L 734.868775 160.963969 
L 735.432032 166.647728 
L 735.995289 178.703263 
L 736.558546 158.967499 
L 737.121803 154.481653 
L 737.685061 154.62474 
L 738.248318 181.49453 
L 738.811575 184.779441 
L 739.374832 156.758142 
L 739.938089 173.882017 
L 740.501346 171.546212 
L 741.064603 181.600577 
L 741.62786 151.13903 
L 742.191117 162.67411 
L 742.754374 162.355942 
L 743.317631 207.913 
L 743.880888 185.161956 
L 744.444145 179.005583 
L 745.007402 158.709254 
L 745.570659 167.328846 
L 746.133917 157.05371 
L 746.697174 174.178377 
L 747.260431 137.500612 
L 747.823688 175.054428 
L 748.386945 146.934682 
L 748.950202 168.107696 
L 749.513459 158.598196 
L 750.076716 161.028616 
L 750.639973 184.425889 
L 751.20323 145.958009 
L 751.766487 177.306791 
L 752.329744 162.975404 
L 752.893001 182.856199 
L 753.456258 166.364336 
L 754.019515 175.903914 
L 754.582773 171.078871 
L 755.14603 187.395496 
L 755.709287 172.611908 
L 756.272544 172.013736 
L 756.835801 164.697339 
L 757.399058 165.67268 
L 757.962315 162.534294 
L 758.525572 168.043556 
L 759.088829 164.48714 
L 759.652086 170.745331 
L 760.215343 183.326042 
L 760.7786 127.280397 
L 761.341857 169.140485 
L 761.905114 192.142805 
L 762.468371 189.282509 
L 763.031629 166.554309 
L 763.594886 152.485947 
L 764.158143 164.029604 
L 764.7214 181.2862 
L 765.284657 183.985125 
L 765.847914 164.555613 
L 766.411171 178.723426 
L 766.974428 182.695097 
L 767.537685 192.835821 
L 768.100942 171.897679 
L 768.664199 165.241273 
L 769.227456 172.765759 
L 769.790713 178.147947 
L 770.35397 174.636089 
L 770.917227 173.517556 
L 771.480485 162.905925 
L 772.043742 163.540334 
L 772.606999 171.453409 
L 773.170256 162.985591 
L 773.733513 141.182691 
L 774.29677 171.422151 
L 774.860027 159.892924 
L 775.423284 183.296012 
L 775.986541 165.151573 
L 776.549798 159.292231 
L 777.113055 189.135449 
L 777.676312 170.009848 
L 778.239569 164.903357 
L 778.802826 172.686325 
L 779.366083 165.772602 
L 779.929341 172.603666 
L 780.492598 167.709531 
L 781.055855 168.652348 
L 781.619112 162.593496 
L 782.182369 168.609305 
L 782.745626 177.471016 
L 783.308883 169.088297 
L 783.87214 157.227773 
L 784.435397 173.746003 
L 784.998654 159.354348 
L 785.561911 172.378289 
L 786.125168 157.172182 
L 786.688425 175.243812 
L 787.251682 160.800899 
L 787.814939 167.824612 
L 788.378197 150.279904 
L 788.941454 173.821968 
L 789.504711 137.679971 
L 790.067968 152.928122 
L 790.631225 202.952961 
L 791.194482 141.812147 
L 791.757739 208.466062 
L 792.320996 169.970591 
L 792.884253 179.363863 
L 793.44751 179.775154 
L 794.010767 164.150878 
L 794.574024 123.879535 
L 795.137281 173.08623 
L 795.700538 199.216822 
L 796.263795 205.154366 
L 797.39031 172.871853 
L 797.953567 165.144339 
L 798.516824 169.710954 
L 799.080081 169.711145 
L 800.206595 151.710289 
L 800.769852 169.817514 
L 801.333109 145.938561 
L 801.896366 176.214441 
L 802.459623 180.567342 
L 803.02288 163.286637 
L 803.586137 173.297856 
L 804.149394 169.022664 
L 804.712651 174.879305 
L 805.275908 161.844194 
L 805.839166 161.816136 
L 806.402423 169.993186 
L 806.96568 186.438083 
L 807.528937 156.012186 
L 808.092194 174.571641 
L 809.218708 155.674886 
L 809.781965 178.815829 
L 810.345222 166.804638 
L 810.908479 174.650501 
L 811.471736 159.588483 
L 812.034993 164.35784 
L 812.59825 175.056624 
L 813.161507 161.636053 
L 813.724764 162.804922 
L 814.288022 150.10111 
L 814.851279 162.919588 
L 815.414536 170.938441 
L 815.977793 147.581191 
L 816.54105 160.483177 
L 817.104307 157.305349 
L 817.667564 209.231606 
L 818.230821 152.277663 
L 818.794078 150.641868 
L 819.357335 183.190312 
L 819.920592 206.357744 
L 820.483849 155.47037 
L 821.047106 154.304457 
L 821.610363 181.227896 
L 822.17362 190.775016 
L 822.736878 157.966446 
L 823.300135 182.008667 
L 823.863392 185.31407 
L 824.426649 174.506495 
L 825.553163 160.879436 
L 826.11642 174.487574 
L 826.679677 164.037022 
L 827.242934 177.810784 
L 827.806191 161.435243 
L 828.369448 157.39356 
L 828.932705 175.407249 
L 829.495962 171.00409 
L 830.059219 169.001291 
L 830.622476 174.023231 
L 831.185734 169.866535 
L 831.748991 167.242231 
L 832.312248 166.919 
L 832.875505 172.115203 
L 833.438762 167.596284 
L 834.002019 160.685648 
L 834.565276 164.918877 
L 835.128533 179.372766 
L 836.255047 161.485558 
L 836.818304 170.680851 
L 837.381561 165.356169 
L 837.944818 177.235201 
L 838.508075 168.620194 
L 839.071332 162.363721 
L 839.63459 161.860222 
L 840.197847 158.039971 
L 840.761104 155.239898 
L 841.324361 175.827289 
L 841.887618 157.284577 
L 842.450875 177.736328 
L 843.014132 167.731678 
L 844.140646 152.560372 
L 844.703903 167.038415 
L 845.26716 170.412231 
L 845.830417 190.981241 
L 846.393674 191.343058 
L 846.956931 163.210454 
L 847.520188 178.476412 
L 848.083445 162.376867 
L 848.646703 176.018547 
L 849.20996 185.346646 
L 849.773217 169.944637 
L 850.336474 169.389994 
L 850.899731 155.020551 
L 851.462988 172.006719 
L 852.026245 195.041664 
L 852.589502 172.198532 
L 853.152759 181.214978 
L 853.716016 162.83256 
L 854.279273 150.736008 
L 854.84253 165.571322 
L 855.405787 165.423443 
L 855.969044 162.394066 
L 856.532301 173.571697 
L 857.095559 165.98828 
L 857.658816 177.416907 
L 858.78533 160.082096 
L 859.348587 171.353695 
L 859.911844 160.601986 
L 860.475101 183.387549 
L 861.038358 177.040374 
L 861.601615 172.93962 
L 862.164872 167.717225 
L 862.728129 151.395064 
L 863.291386 179.448699 
L 863.854643 157.187874 
L 864.4179 196.441586 
L 864.981157 161.279692 
L 865.544415 152.532938 
L 866.670929 199.492827 
L 867.234186 142.576054 
L 867.797443 133.430928 
L 868.3607 167.674435 
L 868.923957 209.745133 
L 869.487214 160.987412 
L 870.050471 166.198833 
L 870.613728 176.346407 
L 871.176985 146.578429 
L 871.740242 175.688014 
L 872.303499 174.125158 
L 872.866756 160.236724 
L 873.430013 162.370849 
L 873.993271 163.007363 
L 874.556528 186.920065 
L 875.119785 186.576747 
L 875.683042 199.714944 
L 876.246299 161.273592 
L 876.809556 170.106373 
L 877.372813 182.041259 
L 877.93607 189.014386 
L 878.499327 163.207404 
L 879.062584 156.124456 
L 879.625841 181.595769 
L 880.189098 171.718925 
L 880.752355 157.28242 
L 881.315612 173.382981 
L 881.878869 158.977424 
L 882.442127 161.624742 
L 883.568641 174.798903 
L 884.131898 168.684423 
L 884.695155 165.572568 
L 885.258412 158.576332 
L 885.821669 155.593222 
L 886.384926 166.222673 
L 886.948183 179.798389 
L 887.51144 180.3051 
L 888.074697 177.784543 
L 888.637954 178.081572 
L 889.201211 165.749567 
L 889.764468 163.545651 
L 890.327725 165.063978 
L 890.890983 155.650976 
L 891.45424 189.77618 
L 892.017497 182.663789 
L 892.580754 159.589062 
L 893.144011 176.829361 
L 893.707268 164.804838 
L 894.270525 179.888978 
L 894.833782 167.303051 
L 895.397039 168.801283 
L 895.960296 174.691638 
L 896.523553 160.686678 
L 897.08681 176.400048 
L 897.650067 163.475081 
L 898.213324 167.7776 
L 898.776581 164.79016 
L 899.339838 173.66552 
L 899.903096 171.813996 
L 900.466353 176.304216 
L 901.02961 169.154522 
L 901.592867 177.530677 
L 902.719381 164.422202 
L 903.282638 179.968346 
L 903.845895 165.201184 
L 904.409152 173.85374 
L 904.972409 163.982307 
L 905.535666 162.369581 
L 906.098923 174.685252 
L 906.66218 164.546248 
L 907.225437 162.799823 
L 907.788694 173.901479 
L 908.351952 168.022677 
L 908.915209 149.098697 
L 909.478466 140.051519 
L 910.041723 138.087682 
L 910.60498 154.427332 
L 911.168237 113.535189 
L 911.731494 178.765134 
L 912.294751 205.807707 
L 912.858008 225.468915 
L 913.421265 162.650736 
L 913.984522 166.826619 
L 914.547779 174.616461 
L 915.111036 198.778238 
L 915.674293 159.403092 
L 916.23755 156.523635 
L 916.800808 177.781861 
L 917.364065 143.413122 
L 917.927322 188.697756 
L 918.490579 192.282068 
L 919.053836 162.10925 
L 919.617093 170.501687 
L 920.18035 160.915547 
L 920.743607 165.439964 
L 921.306864 164.362141 
L 921.870121 155.155599 
L 922.433378 188.416106 
L 922.996635 155.15654 
L 923.559892 156.721966 
L 924.686406 193.526373 
L 925.249664 182.255655 
L 925.812921 161.488613 
L 926.376178 173.835875 
L 926.939435 168.615138 
L 927.502692 159.061585 
L 928.065949 182.562976 
L 928.629206 168.417751 
L 929.192463 181.670672 
L 929.75572 161.712879 
L 930.318977 168.566655 
L 930.882234 166.117832 
L 931.445491 176.869401 
L 932.008748 164.208092 
L 932.572005 162.741839 
L 933.135262 164.4466 
L 933.69852 188.313562 
L 934.261777 155.930699 
L 934.825034 169.87191 
L 935.388291 167.541103 
L 935.951548 165.716186 
L 936.514805 167.412307 
L 937.078062 171.976115 
L 937.641319 164.417434 
L 938.204576 171.448821 
L 938.767833 175.750799 
L 939.33109 168.51931 
L 939.894347 178.850812 
L 940.457604 163.190641 
L 941.584118 178.46232 
L 942.147376 167.666075 
L 942.710633 172.875331 
L 943.27389 171.160498 
L 943.837147 164.338506 
L 944.400404 165.630032 
L 944.963661 171.019732 
L 945.526918 173.931133 
L 946.653432 160.657841 
L 947.216689 167.678283 
L 948.343203 165.493691 
L 948.90646 169.818174 
L 949.469717 160.544496 
L 950.032974 176.293928 
L 951.159489 150.280772 
L 951.722746 174.915981 
L 952.286003 147.982645 
L 952.84926 150.468301 
L 953.412517 139.158849 
L 953.975774 161.187123 
L 954.539031 203.749812 
L 955.102288 196.881569 
L 955.665545 181.335459 
L 956.228802 184.337788 
L 956.792059 160.780085 
L 957.355316 168.931578 
L 957.918573 173.369733 
L 958.48183 193.337094 
L 959.045087 164.463601 
L 959.608345 160.855586 
L 960.171602 170.933167 
L 960.734859 153.566331 
L 961.298116 184.493505 
L 962.42463 164.919307 
L 962.987887 160.637009 
L 963.551144 155.093945 
L 964.114401 180.093426 
L 964.677658 176.997768 
L 965.240915 170.33028 
L 965.804172 174.960522 
L 966.367429 174.260968 
L 966.930686 159.218996 
L 967.493943 164.09347 
L 968.057201 162.609755 
L 968.620458 182.344647 
L 969.746972 166.957421 
L 970.310229 179.072008 
L 970.873486 168.456007 
L 971.436743 168.853847 
L 972 161.207845 
L 972 161.207845 
" style="fill:none;stroke:#66c2a5;stroke-linecap:round;stroke-width:1.75;"/>
   </g>
   <g id="patch_3">
    <path d="M 135 378 
L 135 51.84 
" style="fill:none;stroke:#cccccc;stroke-linecap:square;stroke-linejoin:miter;"/>
   </g>
   <g id="patch_4">
    <path d="M 972 378 
L 972 51.84 
" style="fill:none;stroke:#cccccc;stroke-linecap:square;stroke-linejoin:miter;"/>
   </g>
   <g id="patch_5">
    <path d="M 135 378 
L 972 378 
" style="fill:none;stroke:#cccccc;stroke-linecap:square;stroke-linejoin:miter;"/>
   </g>
   <g id="patch_6">
    <path d="M 135 51.84 
L 972 51.84 
" style="fill:none;stroke:#cccccc;stroke-linecap:square;stroke-linejoin:miter;"/>
   </g>
   <g id="legend_1">
    <g id="line2d_46">
     <path d="M 914.439062 64.497812 
L 934.439062 64.497812 
" style="fill:none;stroke:#66c2a5;stroke-linecap:round;stroke-width:1.75;"/>
    </g>
    <g id="line2d_47"/>
    <g id="text_12">
     <!-- CO2 -->
     <defs>
      <path d="M 58.796875 25.09375 
L 68.265625 22.703125 
Q 65.28125 11.03125 57.546875 4.90625 
Q 49.8125 -1.21875 38.625 -1.21875 
Q 27.046875 -1.21875 19.796875 3.484375 
Q 12.546875 8.203125 8.765625 17.140625 
Q 4.984375 26.078125 4.984375 36.328125 
Q 4.984375 47.515625 9.25 55.828125 
Q 13.53125 64.15625 21.40625 68.46875 
Q 29.296875 72.796875 38.765625 72.796875 
Q 49.515625 72.796875 56.828125 67.328125 
Q 64.15625 61.859375 67.046875 51.953125 
L 57.71875 49.75 
Q 55.21875 57.5625 50.484375 61.125 
Q 45.75 64.703125 38.578125 64.703125 
Q 30.328125 64.703125 24.78125 60.734375 
Q 19.234375 56.78125 16.984375 50.109375 
Q 14.75 43.453125 14.75 36.375 
Q 14.75 27.25 17.40625 20.4375 
Q 20.0625 13.625 25.671875 10.25 
Q 31.296875 6.890625 37.84375 6.890625 
Q 45.796875 6.890625 51.3125 11.46875 
Q 56.84375 16.0625 58.796875 25.09375 
z
" id="ArialMT-43"/>
     </defs>
     <g style="fill:#262626;" transform="translate(942.439062 67.997812)scale(0.1 -0.1)">
      <use xlink:href="#ArialMT-43"/>
      <use x="72.216797" xlink:href="#ArialMT-4f"/>
      <use x="150" xlink:href="#ArialMT-32"/>
     </g>
    </g>
   </g>
  </g>
 </g>
 <defs>
  <clipPath id="pea9e91f317">
   <rect height="326.16" width="837" x="135" y="51.84"/>
  </clipPath>
 </defs>
</svg>
