<?xml version="1.0" encoding="utf-8" standalone="no"?>
<!DOCTYPE svg PUBLIC "-//W3C//DTD SVG 1.1//EN"
  "http://www.w3.org/Graphics/SVG/1.1/DTD/svg11.dtd">
<!-- Created with matplotlib (http://matplotlib.org/) -->
<svg height="432pt" version="1.1" viewBox="0 0 1080 432" width="1080pt" xmlns="http://www.w3.org/2000/svg" xmlns:xlink="http://www.w3.org/1999/xlink">
 <defs>
  <style type="text/css">
*{stroke-linecap:butt;stroke-linejoin:round;}
  </style>
 </defs>
 <g id="figure_1">
  <g id="patch_1">
   <path d="M 0 432 
L 1080 432 
L 1080 0 
L 0 0 
z
" style="fill:#ffffff;"/>
  </g>
  <g id="axes_1">
   <g id="patch_2">
    <path d="M 135 378 
L 972 378 
L 972 51.84 
L 135 51.84 
z
" style="fill:#ffffff;"/>
   </g>
   <g id="matplotlib.axis_1">
    <g id="xtick_1">
     <g id="line2d_1">
      <path clip-path="url(#p2fc0ff4241)" d="M 135 378 
L 135 51.84 
" style="fill:none;stroke:#cccccc;stroke-linecap:round;"/>
     </g>
     <g id="line2d_2"/>
     <g id="text_1">
      <!--  -->
      <g style="fill:#262626;" transform="translate(135 392.157812)scale(0.1 -0.1)"/>
      <!--  -->
      <g style="fill:#262626;" transform="translate(135 402.734688)scale(0.1 -0.1)"/>
      <!-- Oct -->
      <defs>
       <path d="M 4.828125 34.859375 
Q 4.828125 52.6875 14.390625 62.765625 
Q 23.96875 72.859375 39.109375 72.859375 
Q 49.03125 72.859375 56.984375 68.109375 
Q 64.9375 63.375 69.109375 54.90625 
Q 73.296875 46.4375 73.296875 35.6875 
Q 73.296875 24.8125 68.890625 16.21875 
Q 64.5 7.625 56.4375 3.203125 
Q 48.390625 -1.21875 39.0625 -1.21875 
Q 28.953125 -1.21875 20.984375 3.65625 
Q 13.03125 8.546875 8.921875 16.984375 
Q 4.828125 25.4375 4.828125 34.859375 
z
M 14.59375 34.71875 
Q 14.59375 21.78125 21.546875 14.328125 
Q 28.515625 6.890625 39.015625 6.890625 
Q 49.703125 6.890625 56.609375 14.40625 
Q 63.53125 21.921875 63.53125 35.75 
Q 63.53125 44.484375 60.578125 51 
Q 57.625 57.515625 51.921875 61.109375 
Q 46.234375 64.703125 39.15625 64.703125 
Q 29.109375 64.703125 21.84375 57.78125 
Q 14.59375 50.875 14.59375 34.71875 
z
" id="ArialMT-4f"/>
       <path d="M 40.4375 19 
L 49.078125 17.875 
Q 47.65625 8.9375 41.8125 3.875 
Q 35.984375 -1.171875 27.484375 -1.171875 
Q 16.84375 -1.171875 10.375 5.78125 
Q 3.90625 12.75 3.90625 25.734375 
Q 3.90625 34.125 6.6875 40.421875 
Q 9.46875 46.734375 15.15625 49.875 
Q 20.84375 53.03125 27.546875 53.03125 
Q 35.984375 53.03125 41.359375 48.75 
Q 46.734375 44.484375 48.25 36.625 
L 39.703125 35.296875 
Q 38.484375 40.53125 35.375 43.15625 
Q 32.28125 45.796875 27.875 45.796875 
Q 21.234375 45.796875 17.078125 41.03125 
Q 12.9375 36.28125 12.9375 25.984375 
Q 12.9375 15.53125 16.9375 10.796875 
Q 20.953125 6.0625 27.390625 6.0625 
Q 32.5625 6.0625 36.03125 9.234375 
Q 39.5 12.40625 40.4375 19 
z
" id="ArialMT-63"/>
       <path d="M 25.78125 7.859375 
L 27.046875 0.09375 
Q 23.34375 -0.6875 20.40625 -0.6875 
Q 15.625 -0.6875 12.984375 0.828125 
Q 10.359375 2.34375 9.28125 4.8125 
Q 8.203125 7.28125 8.203125 15.1875 
L 8.203125 45.015625 
L 1.765625 45.015625 
L 1.765625 51.859375 
L 8.203125 51.859375 
L 8.203125 64.703125 
L 16.9375 69.96875 
L 16.9375 51.859375 
L 25.78125 51.859375 
L 25.78125 45.015625 
L 16.9375 45.015625 
L 16.9375 14.703125 
Q 16.9375 10.9375 17.40625 9.859375 
Q 17.875 8.796875 18.921875 8.15625 
Q 19.96875 7.515625 21.921875 7.515625 
Q 23.390625 7.515625 25.78125 7.859375 
z
" id="ArialMT-74"/>
      </defs>
      <g style="fill:#262626;" transform="translate(127.221875 413.311562)scale(0.1 -0.1)">
       <use xlink:href="#ArialMT-4f"/>
       <use x="77.783203" xlink:href="#ArialMT-63"/>
       <use x="127.783203" xlink:href="#ArialMT-74"/>
      </g>
      <!-- 2017 -->
      <defs>
       <path d="M 50.34375 8.453125 
L 50.34375 0 
L 3.03125 0 
Q 2.9375 3.171875 4.046875 6.109375 
Q 5.859375 10.9375 9.828125 15.625 
Q 13.8125 20.3125 21.34375 26.46875 
Q 33.015625 36.03125 37.109375 41.625 
Q 41.21875 47.21875 41.21875 52.203125 
Q 41.21875 57.421875 37.46875 61 
Q 33.734375 64.59375 27.734375 64.59375 
Q 21.390625 64.59375 17.578125 60.78125 
Q 13.765625 56.984375 13.71875 50.25 
L 4.6875 51.171875 
Q 5.609375 61.28125 11.65625 66.578125 
Q 17.71875 71.875 27.9375 71.875 
Q 38.234375 71.875 44.234375 66.15625 
Q 50.25 60.453125 50.25 52 
Q 50.25 47.703125 48.484375 43.546875 
Q 46.734375 39.40625 42.65625 34.8125 
Q 38.578125 30.21875 29.109375 22.21875 
Q 21.1875 15.578125 18.9375 13.203125 
Q 16.703125 10.84375 15.234375 8.453125 
z
" id="ArialMT-32"/>
       <path d="M 4.15625 35.296875 
Q 4.15625 48 6.765625 55.734375 
Q 9.375 63.484375 14.515625 67.671875 
Q 19.671875 71.875 27.484375 71.875 
Q 33.25 71.875 37.59375 69.546875 
Q 41.9375 67.234375 44.765625 62.859375 
Q 47.609375 58.5 49.21875 52.21875 
Q 50.828125 45.953125 50.828125 35.296875 
Q 50.828125 22.703125 48.234375 14.96875 
Q 45.65625 7.234375 40.5 3 
Q 35.359375 -1.21875 27.484375 -1.21875 
Q 17.140625 -1.21875 11.234375 6.203125 
Q 4.15625 15.140625 4.15625 35.296875 
z
M 13.1875 35.296875 
Q 13.1875 17.671875 17.3125 11.828125 
Q 21.4375 6 27.484375 6 
Q 33.546875 6 37.671875 11.859375 
Q 41.796875 17.71875 41.796875 35.296875 
Q 41.796875 52.984375 37.671875 58.78125 
Q 33.546875 64.59375 27.390625 64.59375 
Q 21.34375 64.59375 17.71875 59.46875 
Q 13.1875 52.9375 13.1875 35.296875 
z
" id="ArialMT-30"/>
       <path d="M 37.25 0 
L 28.46875 0 
L 28.46875 56 
Q 25.296875 52.984375 20.140625 49.953125 
Q 14.984375 46.921875 10.890625 45.40625 
L 10.890625 53.90625 
Q 18.265625 57.375 23.78125 62.296875 
Q 29.296875 67.234375 31.59375 71.875 
L 37.25 71.875 
z
" id="ArialMT-31"/>
       <path d="M 4.734375 62.203125 
L 4.734375 70.65625 
L 51.078125 70.65625 
L 51.078125 63.8125 
Q 44.234375 56.546875 37.515625 44.484375 
Q 30.8125 32.421875 27.15625 19.671875 
Q 24.515625 10.6875 23.78125 0 
L 14.75 0 
Q 14.890625 8.453125 18.0625 20.40625 
Q 21.234375 32.375 27.171875 43.484375 
Q 33.109375 54.59375 39.796875 62.203125 
z
" id="ArialMT-37"/>
      </defs>
      <g style="fill:#262626;" transform="translate(123.878125 423.888438)scale(0.1 -0.1)">
       <use xlink:href="#ArialMT-32"/>
       <use x="55.615234" xlink:href="#ArialMT-30"/>
       <use x="111.230469" xlink:href="#ArialMT-31"/>
       <use x="166.845703" xlink:href="#ArialMT-37"/>
      </g>
     </g>
    </g>
    <g id="xtick_2">
     <g id="line2d_3">
      <path clip-path="url(#p2fc0ff4241)" d="M 972 378 
L 972 51.84 
" style="fill:none;stroke:#cccccc;stroke-linecap:round;"/>
     </g>
     <g id="line2d_4"/>
    </g>
    <g id="xtick_3">
     <g id="line2d_5"/>
    </g>
    <g id="xtick_4">
     <g id="line2d_6"/>
     <g id="text_2">
      <!-- 02 -->
      <g style="fill:#262626;" transform="translate(156.45722 388.557813)scale(0.1 -0.1)">
       <use xlink:href="#ArialMT-30"/>
       <use x="55.615234" xlink:href="#ArialMT-32"/>
      </g>
     </g>
    </g>
    <g id="xtick_5">
     <g id="line2d_7"/>
    </g>
    <g id="xtick_6">
     <g id="line2d_8"/>
    </g>
    <g id="xtick_7">
     <g id="line2d_9"/>
    </g>
    <g id="xtick_8">
     <g id="line2d_10"/>
    </g>
    <g id="xtick_9">
     <g id="line2d_11"/>
    </g>
    <g id="xtick_10">
     <g id="line2d_12"/>
    </g>
    <g id="xtick_11">
     <g id="line2d_13"/>
     <g id="text_3">
      <!-- 09 -->
      <defs>
       <path d="M 5.46875 16.546875 
L 13.921875 17.328125 
Q 14.984375 11.375 18.015625 8.6875 
Q 21.046875 6 25.78125 6 
Q 29.828125 6 32.875 7.859375 
Q 35.9375 9.71875 37.890625 12.8125 
Q 39.84375 15.921875 41.15625 21.1875 
Q 42.484375 26.46875 42.484375 31.9375 
Q 42.484375 32.515625 42.4375 33.6875 
Q 39.796875 29.5 35.234375 26.875 
Q 30.671875 24.265625 25.34375 24.265625 
Q 16.453125 24.265625 10.296875 30.703125 
Q 4.15625 37.15625 4.15625 47.703125 
Q 4.15625 58.59375 10.578125 65.234375 
Q 17 71.875 26.65625 71.875 
Q 33.640625 71.875 39.421875 68.109375 
Q 45.21875 64.359375 48.21875 57.390625 
Q 51.21875 50.4375 51.21875 37.25 
Q 51.21875 23.53125 48.234375 15.40625 
Q 45.265625 7.28125 39.375 3.03125 
Q 33.5 -1.21875 25.59375 -1.21875 
Q 17.1875 -1.21875 11.859375 3.4375 
Q 6.546875 8.109375 5.46875 16.546875 
z
M 41.453125 48.140625 
Q 41.453125 55.71875 37.421875 60.15625 
Q 33.40625 64.59375 27.734375 64.59375 
Q 21.875 64.59375 17.53125 59.8125 
Q 13.1875 55.03125 13.1875 47.40625 
Q 13.1875 40.578125 17.3125 36.296875 
Q 21.4375 32.03125 27.484375 32.03125 
Q 33.59375 32.03125 37.515625 36.296875 
Q 41.453125 40.578125 41.453125 48.140625 
z
" id="ArialMT-39"/>
      </defs>
      <g style="fill:#262626;" transform="translate(345.584321 388.557813)scale(0.1 -0.1)">
       <use xlink:href="#ArialMT-30"/>
       <use x="55.615234" xlink:href="#ArialMT-39"/>
      </g>
     </g>
    </g>
    <g id="xtick_12">
     <g id="line2d_14"/>
    </g>
    <g id="xtick_13">
     <g id="line2d_15"/>
    </g>
    <g id="xtick_14">
     <g id="line2d_16"/>
    </g>
    <g id="xtick_15">
     <g id="line2d_17"/>
    </g>
    <g id="xtick_16">
     <g id="line2d_18"/>
    </g>
    <g id="xtick_17">
     <g id="line2d_19"/>
    </g>
    <g id="xtick_18">
     <g id="line2d_20"/>
     <g id="text_4">
      <!-- 16 -->
      <defs>
       <path d="M 49.75 54.046875 
L 41.015625 53.375 
Q 39.84375 58.546875 37.703125 60.890625 
Q 34.125 64.65625 28.90625 64.65625 
Q 24.703125 64.65625 21.53125 62.3125 
Q 17.390625 59.28125 14.984375 53.46875 
Q 12.59375 47.65625 12.5 36.921875 
Q 15.671875 41.75 20.265625 44.09375 
Q 24.859375 46.4375 29.890625 46.4375 
Q 38.671875 46.4375 44.84375 39.96875 
Q 51.03125 33.5 51.03125 23.25 
Q 51.03125 16.5 48.125 10.71875 
Q 45.21875 4.9375 40.140625 1.859375 
Q 35.0625 -1.21875 28.609375 -1.21875 
Q 17.625 -1.21875 10.6875 6.859375 
Q 3.765625 14.9375 3.765625 33.5 
Q 3.765625 54.25 11.421875 63.671875 
Q 18.109375 71.875 29.4375 71.875 
Q 37.890625 71.875 43.28125 67.140625 
Q 48.6875 62.40625 49.75 54.046875 
z
M 13.875 23.1875 
Q 13.875 18.65625 15.796875 14.5 
Q 17.71875 10.359375 21.1875 8.171875 
Q 24.65625 6 28.46875 6 
Q 34.03125 6 38.03125 10.484375 
Q 42.046875 14.984375 42.046875 22.703125 
Q 42.046875 30.125 38.078125 34.390625 
Q 34.125 38.671875 28.125 38.671875 
Q 22.171875 38.671875 18.015625 34.390625 
Q 13.875 30.125 13.875 23.1875 
z
" id="ArialMT-36"/>
      </defs>
      <g style="fill:#262626;" transform="translate(534.711423 388.557813)scale(0.1 -0.1)">
       <use xlink:href="#ArialMT-31"/>
       <use x="55.615234" xlink:href="#ArialMT-36"/>
      </g>
     </g>
    </g>
    <g id="xtick_19">
     <g id="line2d_21"/>
    </g>
    <g id="xtick_20">
     <g id="line2d_22"/>
    </g>
    <g id="xtick_21">
     <g id="line2d_23"/>
    </g>
    <g id="xtick_22">
     <g id="line2d_24"/>
    </g>
    <g id="xtick_23">
     <g id="line2d_25"/>
    </g>
    <g id="xtick_24">
     <g id="line2d_26"/>
    </g>
    <g id="xtick_25">
     <g id="line2d_27"/>
     <g id="text_5">
      <!-- 23 -->
      <defs>
       <path d="M 4.203125 18.890625 
L 12.984375 20.0625 
Q 14.5 12.59375 18.140625 9.296875 
Q 21.78125 6 27 6 
Q 33.203125 6 37.46875 10.296875 
Q 41.75 14.59375 41.75 20.953125 
Q 41.75 27 37.796875 30.921875 
Q 33.84375 34.859375 27.734375 34.859375 
Q 25.25 34.859375 21.53125 33.890625 
L 22.515625 41.609375 
Q 23.390625 41.5 23.921875 41.5 
Q 29.546875 41.5 34.03125 44.421875 
Q 38.53125 47.359375 38.53125 53.46875 
Q 38.53125 58.296875 35.25 61.46875 
Q 31.984375 64.65625 26.8125 64.65625 
Q 21.6875 64.65625 18.265625 61.421875 
Q 14.84375 58.203125 13.875 51.765625 
L 5.078125 53.328125 
Q 6.6875 62.15625 12.390625 67.015625 
Q 18.109375 71.875 26.609375 71.875 
Q 32.46875 71.875 37.390625 69.359375 
Q 42.328125 66.84375 44.9375 62.5 
Q 47.5625 58.15625 47.5625 53.265625 
Q 47.5625 48.640625 45.0625 44.828125 
Q 42.578125 41.015625 37.703125 38.765625 
Q 44.046875 37.3125 47.5625 32.6875 
Q 51.078125 28.078125 51.078125 21.140625 
Q 51.078125 11.765625 44.234375 5.25 
Q 37.40625 -1.265625 26.953125 -1.265625 
Q 17.53125 -1.265625 11.296875 4.34375 
Q 5.078125 9.96875 4.203125 18.890625 
z
" id="ArialMT-33"/>
      </defs>
      <g style="fill:#262626;" transform="translate(723.838525 388.557813)scale(0.1 -0.1)">
       <use xlink:href="#ArialMT-32"/>
       <use x="55.615234" xlink:href="#ArialMT-33"/>
      </g>
     </g>
    </g>
    <g id="xtick_26">
     <g id="line2d_28"/>
    </g>
    <g id="xtick_27">
     <g id="line2d_29"/>
    </g>
    <g id="xtick_28">
     <g id="line2d_30"/>
    </g>
    <g id="xtick_29">
     <g id="line2d_31"/>
    </g>
    <g id="xtick_30">
     <g id="line2d_32"/>
    </g>
    <g id="xtick_31">
     <g id="line2d_33"/>
    </g>
    <g id="xtick_32">
     <g id="line2d_34"/>
     <g id="text_6">
      <!-- 30 -->
      <g style="fill:#262626;" transform="translate(912.965626 388.557813)scale(0.1 -0.1)">
       <use xlink:href="#ArialMT-33"/>
       <use x="55.615234" xlink:href="#ArialMT-30"/>
      </g>
     </g>
    </g>
    <g id="xtick_33">
     <g id="line2d_35"/>
    </g>
    <g id="text_7">
     <!-- Timestamp -->
     <defs>
      <path d="M 25.921875 0 
L 25.921875 63.140625 
L 2.34375 63.140625 
L 2.34375 71.578125 
L 59.078125 71.578125 
L 59.078125 63.140625 
L 35.40625 63.140625 
L 35.40625 0 
z
" id="ArialMT-54"/>
      <path d="M 6.640625 61.46875 
L 6.640625 71.578125 
L 15.4375 71.578125 
L 15.4375 61.46875 
z
M 6.640625 0 
L 6.640625 51.859375 
L 15.4375 51.859375 
L 15.4375 0 
z
" id="ArialMT-69"/>
      <path d="M 6.59375 0 
L 6.59375 51.859375 
L 14.453125 51.859375 
L 14.453125 44.578125 
Q 16.890625 48.390625 20.9375 50.703125 
Q 25 53.03125 30.171875 53.03125 
Q 35.9375 53.03125 39.625 50.640625 
Q 43.3125 48.25 44.828125 43.953125 
Q 50.984375 53.03125 60.84375 53.03125 
Q 68.5625 53.03125 72.703125 48.75 
Q 76.859375 44.484375 76.859375 35.59375 
L 76.859375 0 
L 68.109375 0 
L 68.109375 32.671875 
Q 68.109375 37.9375 67.25 40.25 
Q 66.40625 42.578125 64.15625 43.984375 
Q 61.921875 45.40625 58.890625 45.40625 
Q 53.421875 45.40625 49.796875 41.765625 
Q 46.1875 38.140625 46.1875 30.125 
L 46.1875 0 
L 37.40625 0 
L 37.40625 33.6875 
Q 37.40625 39.546875 35.25 42.46875 
Q 33.109375 45.40625 28.21875 45.40625 
Q 24.515625 45.40625 21.359375 43.453125 
Q 18.21875 41.5 16.796875 37.734375 
Q 15.375 33.984375 15.375 26.90625 
L 15.375 0 
z
" id="ArialMT-6d"/>
      <path d="M 42.09375 16.703125 
L 51.171875 15.578125 
Q 49.03125 7.625 43.21875 3.21875 
Q 37.40625 -1.171875 28.375 -1.171875 
Q 17 -1.171875 10.328125 5.828125 
Q 3.65625 12.84375 3.65625 25.484375 
Q 3.65625 38.578125 10.390625 45.796875 
Q 17.140625 53.03125 27.875 53.03125 
Q 38.28125 53.03125 44.875 45.953125 
Q 51.46875 38.875 51.46875 26.03125 
Q 51.46875 25.25 51.421875 23.6875 
L 12.75 23.6875 
Q 13.234375 15.140625 17.578125 10.59375 
Q 21.921875 6.0625 28.421875 6.0625 
Q 33.25 6.0625 36.671875 8.59375 
Q 40.09375 11.140625 42.09375 16.703125 
z
M 13.234375 30.90625 
L 42.1875 30.90625 
Q 41.609375 37.453125 38.875 40.71875 
Q 34.671875 45.796875 27.984375 45.796875 
Q 21.921875 45.796875 17.796875 41.75 
Q 13.671875 37.703125 13.234375 30.90625 
z
" id="ArialMT-65"/>
      <path d="M 3.078125 15.484375 
L 11.765625 16.84375 
Q 12.5 11.625 15.84375 8.84375 
Q 19.1875 6.0625 25.203125 6.0625 
Q 31.25 6.0625 34.171875 8.515625 
Q 37.109375 10.984375 37.109375 14.3125 
Q 37.109375 17.28125 34.515625 19 
Q 32.71875 20.171875 25.53125 21.96875 
Q 15.875 24.421875 12.140625 26.203125 
Q 8.40625 27.984375 6.46875 31.125 
Q 4.546875 34.28125 4.546875 38.09375 
Q 4.546875 41.546875 6.125 44.5 
Q 7.71875 47.46875 10.453125 49.421875 
Q 12.5 50.921875 16.03125 51.96875 
Q 19.578125 53.03125 23.640625 53.03125 
Q 29.734375 53.03125 34.34375 51.265625 
Q 38.96875 49.515625 41.15625 46.5 
Q 43.359375 43.5 44.1875 38.484375 
L 35.59375 37.3125 
Q 35.015625 41.3125 32.203125 43.546875 
Q 29.390625 45.796875 24.265625 45.796875 
Q 18.21875 45.796875 15.625 43.796875 
Q 13.03125 41.796875 13.03125 39.109375 
Q 13.03125 37.40625 14.109375 36.03125 
Q 15.1875 34.625 17.484375 33.6875 
Q 18.796875 33.203125 25.25 31.453125 
Q 34.578125 28.953125 38.25 27.359375 
Q 41.9375 25.78125 44.03125 22.75 
Q 46.140625 19.734375 46.140625 15.234375 
Q 46.140625 10.84375 43.578125 6.953125 
Q 41.015625 3.078125 36.171875 0.953125 
Q 31.34375 -1.171875 25.25 -1.171875 
Q 15.140625 -1.171875 9.84375 3.03125 
Q 4.546875 7.234375 3.078125 15.484375 
z
" id="ArialMT-73"/>
      <path d="M 40.4375 6.390625 
Q 35.546875 2.25 31.03125 0.53125 
Q 26.515625 -1.171875 21.34375 -1.171875 
Q 12.796875 -1.171875 8.203125 3 
Q 3.609375 7.171875 3.609375 13.671875 
Q 3.609375 17.484375 5.34375 20.625 
Q 7.078125 23.78125 9.890625 25.6875 
Q 12.703125 27.59375 16.21875 28.5625 
Q 18.796875 29.25 24.03125 29.890625 
Q 34.671875 31.15625 39.703125 32.90625 
Q 39.75 34.71875 39.75 35.203125 
Q 39.75 40.578125 37.25 42.78125 
Q 33.890625 45.75 27.25 45.75 
Q 21.046875 45.75 18.09375 43.578125 
Q 15.140625 41.40625 13.71875 35.890625 
L 5.125 37.0625 
Q 6.296875 42.578125 8.984375 45.96875 
Q 11.671875 49.359375 16.75 51.1875 
Q 21.828125 53.03125 28.515625 53.03125 
Q 35.15625 53.03125 39.296875 51.46875 
Q 43.453125 49.90625 45.40625 47.53125 
Q 47.359375 45.171875 48.140625 41.546875 
Q 48.578125 39.3125 48.578125 33.453125 
L 48.578125 21.734375 
Q 48.578125 9.46875 49.140625 6.21875 
Q 49.703125 2.984375 51.375 0 
L 42.1875 0 
Q 40.828125 2.734375 40.4375 6.390625 
z
M 39.703125 26.03125 
Q 34.90625 24.078125 25.34375 22.703125 
Q 19.921875 21.921875 17.671875 20.9375 
Q 15.4375 19.96875 14.203125 18.09375 
Q 12.984375 16.21875 12.984375 13.921875 
Q 12.984375 10.40625 15.640625 8.0625 
Q 18.3125 5.71875 23.4375 5.71875 
Q 28.515625 5.71875 32.46875 7.9375 
Q 36.421875 10.15625 38.28125 14.015625 
Q 39.703125 17 39.703125 22.796875 
z
" id="ArialMT-61"/>
      <path d="M 6.59375 -19.875 
L 6.59375 51.859375 
L 14.59375 51.859375 
L 14.59375 45.125 
Q 17.4375 49.078125 21 51.046875 
Q 24.5625 53.03125 29.640625 53.03125 
Q 36.28125 53.03125 41.359375 49.609375 
Q 46.4375 46.1875 49.015625 39.953125 
Q 51.609375 33.734375 51.609375 26.3125 
Q 51.609375 18.359375 48.75 11.984375 
Q 45.90625 5.609375 40.453125 2.21875 
Q 35.015625 -1.171875 29 -1.171875 
Q 24.609375 -1.171875 21.109375 0.6875 
Q 17.625 2.546875 15.375 5.375 
L 15.375 -19.875 
z
M 14.546875 25.640625 
Q 14.546875 15.625 18.59375 10.84375 
Q 22.65625 6.0625 28.421875 6.0625 
Q 34.28125 6.0625 38.453125 11.015625 
Q 42.625 15.96875 42.625 26.375 
Q 42.625 36.28125 38.546875 41.203125 
Q 34.46875 46.140625 28.8125 46.140625 
Q 23.1875 46.140625 18.859375 40.890625 
Q 14.546875 35.640625 14.546875 25.640625 
z
" id="ArialMT-70"/>
     </defs>
     <g style="fill:#262626;" transform="translate(526.305078 437.749531)scale(0.11 -0.11)">
      <use xlink:href="#ArialMT-54"/>
      <use x="61.037109" xlink:href="#ArialMT-69"/>
      <use x="83.253906" xlink:href="#ArialMT-6d"/>
      <use x="166.554688" xlink:href="#ArialMT-65"/>
      <use x="222.169922" xlink:href="#ArialMT-73"/>
      <use x="272.169922" xlink:href="#ArialMT-74"/>
      <use x="299.953125" xlink:href="#ArialMT-61"/>
      <use x="355.568359" xlink:href="#ArialMT-6d"/>
      <use x="438.869141" xlink:href="#ArialMT-70"/>
     </g>
    </g>
   </g>
   <g id="matplotlib.axis_2">
    <g id="ytick_1">
     <g id="line2d_36">
      <path clip-path="url(#p2fc0ff4241)" d="M 135 349.613592 
L 972 349.613592 
" style="fill:none;stroke:#cccccc;stroke-linecap:round;"/>
     </g>
     <g id="line2d_37"/>
     <g id="text_8">
      <!-- 320 -->
      <g style="fill:#262626;" transform="translate(111.317188 353.192498)scale(0.1 -0.1)">
       <use xlink:href="#ArialMT-33"/>
       <use x="55.615234" xlink:href="#ArialMT-32"/>
       <use x="111.230469" xlink:href="#ArialMT-30"/>
      </g>
     </g>
    </g>
    <g id="ytick_2">
     <g id="line2d_38">
      <path clip-path="url(#p2fc0ff4241)" d="M 135 301.935346 
L 972 301.935346 
" style="fill:none;stroke:#cccccc;stroke-linecap:round;"/>
     </g>
     <g id="line2d_39"/>
     <g id="text_9">
      <!-- 340 -->
      <defs>
       <path d="M 32.328125 0 
L 32.328125 17.140625 
L 1.265625 17.140625 
L 1.265625 25.203125 
L 33.9375 71.578125 
L 41.109375 71.578125 
L 41.109375 25.203125 
L 50.78125 25.203125 
L 50.78125 17.140625 
L 41.109375 17.140625 
L 41.109375 0 
z
M 32.328125 25.203125 
L 32.328125 57.46875 
L 9.90625 25.203125 
z
" id="ArialMT-34"/>
      </defs>
      <g style="fill:#262626;" transform="translate(111.317188 305.514252)scale(0.1 -0.1)">
       <use xlink:href="#ArialMT-33"/>
       <use x="55.615234" xlink:href="#ArialMT-34"/>
       <use x="111.230469" xlink:href="#ArialMT-30"/>
      </g>
     </g>
    </g>
    <g id="ytick_3">
     <g id="line2d_40">
      <path clip-path="url(#p2fc0ff4241)" d="M 135 254.2571 
L 972 254.2571 
" style="fill:none;stroke:#cccccc;stroke-linecap:round;"/>
     </g>
     <g id="line2d_41"/>
     <g id="text_10">
      <!-- 360 -->
      <g style="fill:#262626;" transform="translate(111.317188 257.836006)scale(0.1 -0.1)">
       <use xlink:href="#ArialMT-33"/>
       <use x="55.615234" xlink:href="#ArialMT-36"/>
       <use x="111.230469" xlink:href="#ArialMT-30"/>
      </g>
     </g>
    </g>
    <g id="ytick_4">
     <g id="line2d_42">
      <path clip-path="url(#p2fc0ff4241)" d="M 135 206.578854 
L 972 206.578854 
" style="fill:none;stroke:#cccccc;stroke-linecap:round;"/>
     </g>
     <g id="line2d_43"/>
     <g id="text_11">
      <!-- 380 -->
      <defs>
       <path d="M 17.671875 38.8125 
Q 12.203125 40.828125 9.5625 44.53125 
Q 6.9375 48.25 6.9375 53.421875 
Q 6.9375 61.234375 12.546875 66.546875 
Q 18.171875 71.875 27.484375 71.875 
Q 36.859375 71.875 42.578125 66.421875 
Q 48.296875 60.984375 48.296875 53.171875 
Q 48.296875 48.1875 45.671875 44.5 
Q 43.0625 40.828125 37.75 38.8125 
Q 44.34375 36.671875 47.78125 31.875 
Q 51.21875 27.09375 51.21875 20.453125 
Q 51.21875 11.28125 44.71875 5.03125 
Q 38.234375 -1.21875 27.640625 -1.21875 
Q 17.046875 -1.21875 10.546875 5.046875 
Q 4.046875 11.328125 4.046875 20.703125 
Q 4.046875 27.6875 7.59375 32.390625 
Q 11.140625 37.109375 17.671875 38.8125 
z
M 15.921875 53.71875 
Q 15.921875 48.640625 19.1875 45.40625 
Q 22.46875 42.1875 27.6875 42.1875 
Q 32.765625 42.1875 36.015625 45.375 
Q 39.265625 48.578125 39.265625 53.21875 
Q 39.265625 58.0625 35.90625 61.359375 
Q 32.5625 64.65625 27.59375 64.65625 
Q 22.5625 64.65625 19.234375 61.421875 
Q 15.921875 58.203125 15.921875 53.71875 
z
M 13.09375 20.65625 
Q 13.09375 16.890625 14.875 13.375 
Q 16.65625 9.859375 20.171875 7.921875 
Q 23.6875 6 27.734375 6 
Q 34.03125 6 38.125 10.046875 
Q 42.234375 14.109375 42.234375 20.359375 
Q 42.234375 26.703125 38.015625 30.859375 
Q 33.796875 35.015625 27.4375 35.015625 
Q 21.234375 35.015625 17.15625 30.90625 
Q 13.09375 26.8125 13.09375 20.65625 
z
" id="ArialMT-38"/>
      </defs>
      <g style="fill:#262626;" transform="translate(111.317188 210.15776)scale(0.1 -0.1)">
       <use xlink:href="#ArialMT-33"/>
       <use x="55.615234" xlink:href="#ArialMT-38"/>
       <use x="111.230469" xlink:href="#ArialMT-30"/>
      </g>
     </g>
    </g>
    <g id="ytick_5">
     <g id="line2d_44">
      <path clip-path="url(#p2fc0ff4241)" d="M 135 158.900608 
L 972 158.900608 
" style="fill:none;stroke:#cccccc;stroke-linecap:round;"/>
     </g>
     <g id="line2d_45"/>
     <g id="text_12">
      <!-- 400 -->
      <g style="fill:#262626;" transform="translate(111.317188 162.479514)scale(0.1 -0.1)">
       <use xlink:href="#ArialMT-34"/>
       <use x="55.615234" xlink:href="#ArialMT-30"/>
       <use x="111.230469" xlink:href="#ArialMT-30"/>
      </g>
     </g>
    </g>
    <g id="ytick_6">
     <g id="line2d_46">
      <path clip-path="url(#p2fc0ff4241)" d="M 135 111.222362 
L 972 111.222362 
" style="fill:none;stroke:#cccccc;stroke-linecap:round;"/>
     </g>
     <g id="line2d_47"/>
     <g id="text_13">
      <!-- 420 -->
      <g style="fill:#262626;" transform="translate(111.317188 114.801268)scale(0.1 -0.1)">
       <use xlink:href="#ArialMT-34"/>
       <use x="55.615234" xlink:href="#ArialMT-32"/>
       <use x="111.230469" xlink:href="#ArialMT-30"/>
      </g>
     </g>
    </g>
    <g id="ytick_7">
     <g id="line2d_48">
      <path clip-path="url(#p2fc0ff4241)" d="M 135 63.544116 
L 972 63.544116 
" style="fill:none;stroke:#cccccc;stroke-linecap:round;"/>
     </g>
     <g id="line2d_49"/>
     <g id="text_14">
      <!-- 440 -->
      <g style="fill:#262626;" transform="translate(111.317188 67.123022)scale(0.1 -0.1)">
       <use xlink:href="#ArialMT-34"/>
       <use x="55.615234" xlink:href="#ArialMT-34"/>
       <use x="111.230469" xlink:href="#ArialMT-30"/>
      </g>
     </g>
    </g>
   </g>
   <g id="line2d_50">
    <path clip-path="url(#p2fc0ff4241)" d="M 135 301.382532 
L 135.562878 299.042961 
L 136.125757 305.213143 
L 136.688635 295.08368 
L 137.251513 289.606442 
L 137.814391 292.491286 
L 138.940148 295.982436 
L 139.503026 292.875315 
L 140.065905 282.514896 
L 140.628783 286.540996 
L 141.191661 279.35244 
L 141.754539 278.837844 
L 142.317418 304.344522 
L 142.880296 302.281856 
L 143.443174 306.005511 
L 144.006052 305.142158 
L 144.568931 309.848549 
L 145.694687 328.077768 
L 146.257566 327.779933 
L 146.820444 324.323909 
L 147.383322 326.338955 
L 147.9462 329.737547 
L 148.509079 328.514049 
L 149.071957 322.180504 
L 149.634835 325.511586 
L 150.197714 332.188347 
L 150.760592 332.286347 
L 151.32347 328.025508 
L 151.886348 339.545722 
L 152.449227 330.096305 
L 153.012105 328.026669 
L 153.574983 316.165708 
L 154.70074 310.589437 
L 155.263618 312.405804 
L 155.826496 306.911627 
L 156.389375 304.549889 
L 156.952253 315.355112 
L 157.515131 316.124605 
L 158.078009 312.919268 
L 158.640888 307.453232 
L 159.203766 299.739213 
L 159.766644 307.824091 
L 160.329523 302.809046 
L 160.892401 304.724388 
L 161.455279 301.896996 
L 162.018157 295.999433 
L 162.581036 287.981372 
L 163.143914 289.20146 
L 163.706792 283.750427 
L 164.26967 261.203882 
L 164.832549 265.076073 
L 165.395427 263.417334 
L 165.958305 246.305373 
L 166.521184 248.912998 
L 167.084062 254.548644 
L 167.64694 249.28841 
L 168.209818 247.208944 
L 168.772697 277.727951 
L 169.335575 279.790404 
L 170.461332 275.129508 
L 171.02421 286.929693 
L 171.587088 289.924828 
L 172.149966 294.409957 
L 172.712845 309.837946 
L 173.275723 313.028347 
L 173.838601 304.248732 
L 174.401479 310.114661 
L 174.964358 314.652907 
L 175.527236 315.156189 
L 176.090114 320.510497 
L 176.652993 316.056789 
L 177.215871 322.30013 
L 177.778749 314.629987 
L 178.341627 320.076767 
L 178.904506 316.189351 
L 179.467384 315.182701 
L 180.030262 310.513272 
L 180.593141 316.947808 
L 181.156019 313.060358 
L 181.718897 313.421431 
L 182.281775 311.816805 
L 182.844654 319.023431 
L 183.407532 311.699908 
L 183.97041 310.387109 
L 184.533289 302.342924 
L 185.096167 301.298198 
L 185.659045 302.11723 
L 186.221923 297.431874 
L 186.784802 299.374878 
L 187.34768 294.796414 
L 188.473436 303.614007 
L 189.036315 309.069815 
L 189.599193 308.753673 
L 190.162071 302.669578 
L 190.72495 301.377926 
L 191.287828 298.476127 
L 191.850706 293.54289 
L 192.413584 284.00786 
L 192.976463 287.874766 
L 193.539341 297.852038 
L 194.102219 295.565809 
L 194.665098 293.874119 
L 195.227976 294.141107 
L 195.790854 288.420337 
L 196.353732 288.549449 
L 196.916611 312.835081 
L 197.479489 305.839893 
L 198.042367 300.83652 
L 198.605245 315.657281 
L 199.731002 319.287397 
L 200.29388 317.588134 
L 200.856759 328.846358 
L 201.982515 339.609215 
L 202.545393 345.184103 
L 203.108272 343.811926 
L 203.67115 333.491946 
L 204.234028 333.061031 
L 204.796907 336.356139 
L 205.359785 335.461923 
L 205.922663 330.439062 
L 206.485541 328.457606 
L 207.04842 330.122471 
L 207.611298 324.428612 
L 208.174176 317.530885 
L 209.299933 312.996659 
L 209.862811 309.145619 
L 210.425689 302.155661 
L 210.988568 314.411573 
L 211.551446 308.944951 
L 212.114324 311.95309 
L 212.677202 307.244875 
L 213.240081 304.574426 
L 213.802959 313.182149 
L 214.365837 300.064879 
L 214.928716 307.261595 
L 215.491594 302.899608 
L 216.054472 311.00638 
L 216.61735 312.258575 
L 217.743107 316.501788 
L 218.305985 302.290362 
L 218.868863 305.149934 
L 219.431742 315.982048 
L 219.99462 309.492991 
L 220.557498 309.760438 
L 221.120377 306.666777 
L 221.683255 291.217121 
L 222.246133 284.158736 
L 222.809011 263.813069 
L 223.37189 280.652148 
L 223.934768 267.182215 
L 224.497646 292.079398 
L 225.060525 296.401808 
L 225.623403 296.807853 
L 226.186281 299.066051 
L 227.312038 326.366369 
L 227.874916 327.377947 
L 228.437794 329.506745 
L 229.000672 326.598845 
L 229.563551 328.938427 
L 230.126429 332.167519 
L 230.689307 336.371869 
L 231.252186 347.905956 
L 231.815064 348.123932 
L 232.377942 345.807961 
L 232.94082 338.819076 
L 233.503699 336.764271 
L 234.066577 340.107233 
L 234.629455 331.829578 
L 235.192334 320.128713 
L 235.755212 323.13578 
L 236.31809 311.524667 
L 236.880968 311.87942 
L 237.443847 317.79921 
L 238.006725 316.47444 
L 238.569603 317.240675 
L 239.132482 321.396897 
L 239.69536 320.143324 
L 240.258238 315.293471 
L 240.821116 294.638039 
L 241.383995 295.616451 
L 241.946873 294.634979 
L 242.509751 285.472654 
L 243.072629 280.965673 
L 243.635508 280.978985 
L 244.198386 274.53563 
L 244.761264 279.723042 
L 245.324143 277.801922 
L 245.887021 284.762366 
L 246.449899 282.616029 
L 247.575656 246.792911 
L 248.138534 242.329919 
L 248.701412 239.224518 
L 249.264291 203.553616 
L 249.827169 209.885692 
L 250.390047 144.97707 
L 250.952925 140.209599 
L 251.515804 249.053537 
L 252.64156 287.32068 
L 253.204438 303.389761 
L 253.767317 310.726683 
L 254.330195 314.233633 
L 254.893073 328.76587 
L 255.455952 325.549258 
L 256.01883 332.81879 
L 256.581708 331.754318 
L 257.144586 334.857041 
L 257.707465 326.694301 
L 258.270343 339.584326 
L 258.833221 339.457557 
L 259.3961 338.350237 
L 259.958978 346.039112 
L 261.084734 332.656163 
L 261.647613 334.186246 
L 262.210491 328.494241 
L 262.773369 334.824756 
L 263.336247 332.356718 
L 263.899126 335.940535 
L 264.462004 344.042836 
L 265.024882 344.020073 
L 265.587761 340.072611 
L 266.150639 339.588899 
L 266.713517 340.738344 
L 267.276395 340.274242 
L 268.402152 323.645572 
L 268.96503 332.813732 
L 269.527909 332.517942 
L 270.090787 336.374064 
L 270.653665 346.3366 
L 271.779422 330.784618 
L 272.3423 333.223032 
L 272.905178 325.843391 
L 273.468056 324.801873 
L 274.030935 311.078176 
L 274.593813 302.465321 
L 275.156691 312.691275 
L 275.71957 307.644641 
L 276.282448 295.658216 
L 277.408204 311.485225 
L 277.971083 322.708917 
L 278.533961 325.1779 
L 279.659718 343.872797 
L 280.222596 343.431806 
L 280.785474 341.17627 
L 281.348352 340.394396 
L 281.911231 341.204607 
L 283.036987 347.844292 
L 283.599866 341.490952 
L 284.162744 342.998962 
L 284.725622 339.631353 
L 285.2885 346.49236 
L 285.851379 340.487865 
L 286.414257 337.809221 
L 286.977135 332.03203 
L 287.540013 334.163798 
L 288.102892 334.111336 
L 288.66577 334.810924 
L 289.228648 331.297572 
L 289.791527 323.133999 
L 290.354405 324.528557 
L 290.917283 329.661744 
L 291.480161 328.596112 
L 292.04304 322.033293 
L 292.605918 321.753306 
L 293.168796 322.531856 
L 293.731675 312.144273 
L 294.294553 314.973009 
L 294.857431 320.059785 
L 295.420309 311.578307 
L 295.983188 316.889709 
L 296.546066 312.56256 
L 297.108944 311.575621 
L 297.671822 321.479408 
L 298.234701 319.409623 
L 298.797579 320.093879 
L 299.360457 320.14015 
L 300.486214 312.425471 
L 301.049092 321.29178 
L 301.61197 317.030641 
L 302.174849 314.675905 
L 302.737727 309.03849 
L 303.300605 294.140909 
L 303.863484 247.48478 
L 304.426362 238.046309 
L 304.98924 318.132281 
L 305.552118 333.995556 
L 306.114997 341.716692 
L 306.677875 339.91345 
L 307.240753 353.212565 
L 307.803631 351.510354 
L 308.36651 352.402864 
L 308.929388 348.784499 
L 309.492266 352.389 
L 310.055145 351.507783 
L 310.618023 362.121137 
L 311.180901 357.286034 
L 311.743779 355.078338 
L 312.306658 357.72458 
L 312.869536 359.781939 
L 313.432414 359.370814 
L 313.995293 354.191083 
L 314.558171 363.174545 
L 315.121049 347.560441 
L 315.683927 344.572643 
L 316.246806 346.235219 
L 316.809684 335.096595 
L 317.93544 319.727095 
L 318.498319 320.884926 
L 319.061197 318.606285 
L 319.624075 327.818142 
L 320.186954 319.803819 
L 320.749832 321.360029 
L 321.31271 326.756429 
L 321.875588 326.244961 
L 322.438467 334.148681 
L 323.001345 333.552812 
L 323.564223 344.306598 
L 324.127102 338.117152 
L 324.68998 325.440273 
L 325.252858 338.313912 
L 325.815736 342.593311 
L 326.378615 352.156024 
L 326.941493 355.087761 
L 327.504371 353.808633 
L 328.067249 347.814447 
L 328.630128 346.881063 
L 329.193006 350.970423 
L 329.755884 345.183932 
L 330.318763 346.215956 
L 330.881641 352.00246 
L 331.444519 353.839998 
L 332.007397 349.552811 
L 332.570276 355.478208 
L 333.133154 353.752643 
L 333.696032 354.933184 
L 334.258911 355.440782 
L 334.821789 358.533185 
L 335.384667 355.274446 
L 335.947545 355.649212 
L 336.510424 354.917306 
L 337.073302 358.712726 
L 337.63618 356.957909 
L 338.199059 356.478941 
L 338.761937 362.596133 
L 339.324815 360.071282 
L 339.887693 356.891074 
L 340.450572 361.754299 
L 341.01345 358.574988 
L 341.576328 356.066293 
L 342.139206 351.611093 
L 342.702085 346.199318 
L 343.264963 336.347552 
L 343.827841 333.227718 
L 344.39072 324.890185 
L 344.953598 328.367561 
L 345.516476 316.239928 
L 346.079354 322.192895 
L 346.642233 330.325815 
L 347.205111 322.911352 
L 347.767989 329.83419 
L 348.330868 328.636553 
L 348.893746 332.496016 
L 349.456624 329.187956 
L 350.019502 328.933107 
L 350.582381 330.708331 
L 351.145259 327.174311 
L 351.708137 309.16462 
L 352.271015 312.940627 
L 352.833894 304.154473 
L 353.396772 303.4842 
L 353.95965 315.878252 
L 354.522529 319.532979 
L 355.085407 313.224164 
L 356.774042 290.314968 
L 357.33692 291.986825 
L 357.899798 291.182369 
L 358.462677 270.259489 
L 359.588433 326.092564 
L 360.151311 328.784307 
L 360.71419 332.604602 
L 361.277068 342.399305 
L 361.839946 349.302846 
L 362.402824 350.897799 
L 362.965703 345.799564 
L 363.528581 345.794783 
L 364.091459 347.755919 
L 364.654338 343.378816 
L 365.217216 348.828382 
L 365.780094 345.876033 
L 366.342972 349.65059 
L 366.905851 350.024158 
L 367.468729 343.625018 
L 368.594486 349.465242 
L 369.157364 345.767944 
L 369.720242 339.859386 
L 370.28312 341.15041 
L 370.845999 335.257106 
L 371.408877 328.176647 
L 371.971755 324.836037 
L 372.534633 309.43822 
L 373.097512 329.411352 
L 373.66039 328.439343 
L 374.223268 315.302805 
L 374.786147 312.988121 
L 375.349025 330.483116 
L 375.911903 320.961453 
L 376.474781 325.124431 
L 377.03766 327.799114 
L 377.600538 319.76916 
L 378.163416 319.746595 
L 378.726295 317.837023 
L 379.289173 322.607849 
L 379.852051 324.526527 
L 380.414929 319.121016 
L 380.977808 320.427606 
L 381.540686 319.256164 
L 382.103564 307.099902 
L 382.666443 255.011826 
L 383.229321 225.731561 
L 383.792199 216.332293 
L 384.355077 194.157442 
L 385.480834 114.384483 
L 386.043712 141.380759 
L 386.60659 265.37736 
L 387.169469 309.849075 
L 387.732347 327.739397 
L 388.295225 334.18 
L 388.858104 336.134929 
L 389.420982 334.943923 
L 389.98386 339.958167 
L 390.546738 348.826192 
L 391.109617 352.940812 
L 391.672495 354.071197 
L 392.235373 350.620795 
L 392.798252 354.569287 
L 393.36113 347.756906 
L 393.924008 353.18613 
L 394.486886 356.941422 
L 396.175521 350.239304 
L 396.738399 341.765205 
L 397.301278 344.516982 
L 397.864156 332.653545 
L 398.427034 336.941501 
L 398.989913 338.070297 
L 399.552791 336.655553 
L 400.115669 332.200921 
L 400.678547 337.449101 
L 401.241426 340.916144 
L 401.804304 339.22468 
L 402.367182 343.50894 
L 402.930061 339.996895 
L 403.492939 342.854346 
L 404.055817 339.168605 
L 404.618695 338.873711 
L 405.181574 329.186827 
L 405.744452 329.271075 
L 406.30733 322.634866 
L 406.870208 318.574755 
L 407.433087 329.678046 
L 407.995965 331.309956 
L 408.558843 319.179228 
L 409.121722 324.074945 
L 409.6846 314.546092 
L 410.247478 314.666248 
L 410.810356 305.599343 
L 411.373235 311.306327 
L 411.936113 309.689637 
L 412.498991 312.932353 
L 413.06187 320.261034 
L 413.624748 325.286809 
L 414.187626 344.637743 
L 414.750504 333.841582 
L 415.313383 318.876682 
L 415.876261 328.278759 
L 416.439139 343.516906 
L 417.002017 343.928178 
L 417.564896 344.613264 
L 418.127774 346.210424 
L 418.690652 355.641459 
L 419.253531 357.063022 
L 419.816409 356.470348 
L 420.379287 354.170345 
L 420.942165 353.86762 
L 421.505044 348.427326 
L 422.067922 354.007574 
L 422.6308 353.823781 
L 423.193679 344.074861 
L 423.756557 340.322505 
L 424.319435 342.711076 
L 425.445192 335.071908 
L 426.00807 333.470594 
L 426.570948 330.877077 
L 427.133826 329.092352 
L 427.696705 325.014746 
L 428.259583 330.229507 
L 428.822461 327.262763 
L 429.38534 332.903511 
L 429.948218 331.67594 
L 430.511096 333.967866 
L 431.073974 332.644823 
L 431.636853 331.004827 
L 432.199731 327.876224 
L 432.762609 324.076967 
L 433.325488 330.715957 
L 433.888366 332.526141 
L 434.451244 327.651145 
L 435.014122 327.022586 
L 435.577001 331.018257 
L 436.139879 315.852057 
L 436.702757 313.497999 
L 437.265636 309.800653 
L 437.828514 297.105976 
L 438.391392 304.610919 
L 438.95427 304.402516 
L 439.517149 319.023958 
L 440.080027 309.872169 
L 440.642905 314.658375 
L 441.205783 326.889577 
L 441.768662 331.009453 
L 442.33154 328.480782 
L 442.894418 324.695051 
L 443.457297 327.49029 
L 444.020175 335.454242 
L 444.583053 340.410751 
L 445.145931 340.100124 
L 445.70881 348.857952 
L 446.271688 344.045056 
L 446.834566 344.846412 
L 447.397445 342.081976 
L 447.960323 352.578942 
L 448.523201 353.322128 
L 449.086079 353.145769 
L 450.211836 344.123047 
L 450.774714 345.298301 
L 451.337592 336.419026 
L 451.900471 339.870911 
L 452.463349 335.283007 
L 453.026227 335.471223 
L 453.589106 328.31327 
L 454.151984 324.460725 
L 454.714862 330.288751 
L 455.27774 334.862633 
L 455.840619 327.296212 
L 456.403497 333.793297 
L 456.966375 321.326535 
L 458.092132 320.314419 
L 458.65501 316.231903 
L 459.217888 324.638719 
L 459.780767 327.760726 
L 460.343645 313.922658 
L 460.906523 316.745183 
L 462.03228 308.486887 
L 462.595158 307.268852 
L 463.158036 287.997594 
L 463.720915 295.87152 
L 464.283793 297.404929 
L 464.846671 282.177917 
L 465.409549 280.439275 
L 465.972428 272.640467 
L 466.535306 244.257664 
L 467.098184 202.900233 
L 468.786819 294.841374 
L 469.349697 300.904727 
L 469.912576 301.246694 
L 470.475454 296.517964 
L 471.038332 281.439602 
L 471.60121 289.128291 
L 472.164089 299.370929 
L 472.726967 296.019002 
L 473.852724 318.049057 
L 474.415602 315.886969 
L 474.97848 312.751888 
L 475.541358 315.165158 
L 476.104237 306.838634 
L 476.667115 293.039027 
L 477.229993 294.819864 
L 477.792872 280.622481 
L 478.35575 280.903181 
L 478.918628 289.002443 
L 479.481506 289.907195 
L 480.044385 283.27895 
L 480.607263 285.158024 
L 481.170141 276.327498 
L 481.73302 279.385807 
L 482.295898 287.714675 
L 482.858776 292.701349 
L 483.421654 300.715591 
L 483.984533 293.131785 
L 484.547411 288.775293 
L 485.110289 290.460854 
L 485.673167 267.699671 
L 486.236046 271.089879 
L 486.798924 269.270507 
L 487.361802 279.225514 
L 487.924681 277.162235 
L 488.487559 280.216875 
L 489.050437 265.069674 
L 489.613315 252.943107 
L 490.176194 263.531802 
L 490.739072 244.66329 
L 491.30195 245.360116 
L 491.864829 229.794966 
L 492.427707 235.796713 
L 492.990585 220.554618 
L 493.553463 184.31638 
L 494.67922 66.665455 
L 495.242098 214.474306 
L 495.804976 225.091546 
L 496.367855 226.376587 
L 496.930733 235.402302 
L 497.493611 257.204354 
L 498.05649 272.626977 
L 498.619368 281.144595 
L 499.745124 312.863766 
L 500.308003 307.549824 
L 500.870881 307.21097 
L 501.433759 305.2684 
L 501.996638 306.877721 
L 502.559516 304.59074 
L 503.122394 305.538344 
L 503.685272 289.674031 
L 504.248151 284.685865 
L 504.811029 281.88331 
L 505.373907 286.762427 
L 505.936785 287.980499 
L 506.499664 275.084462 
L 507.062542 281.311216 
L 507.62542 280.113282 
L 508.188299 275.296204 
L 508.751177 269.231513 
L 509.314055 278.661951 
L 509.876933 270.152423 
L 510.439812 267.440981 
L 511.00269 275.293646 
L 511.565568 275.226182 
L 512.128447 268.335324 
L 512.691325 258.74483 
L 513.254203 254.081872 
L 513.817081 252.59837 
L 514.37996 256.406343 
L 514.942838 257.283455 
L 515.505716 252.460143 
L 516.068594 265.220599 
L 517.194351 244.096365 
L 517.757229 230.151474 
L 518.320108 244.098922 
L 518.882986 252.576635 
L 520.008742 234.88373 
L 520.571621 223.692145 
L 521.134499 157.29353 
L 521.697377 181.775256 
L 522.260256 254.489083 
L 522.823134 281.385677 
L 523.386012 266.010423 
L 523.94889 261.461939 
L 524.511769 271.628757 
L 525.074647 275.249265 
L 525.637525 276.227376 
L 526.200403 295.13901 
L 527.32616 314.895441 
L 527.889038 307.870879 
L 528.451917 305.972185 
L 529.577673 312.313229 
L 530.140551 304.075413 
L 530.70343 300.367214 
L 531.266308 306.989598 
L 532.392065 288.363492 
L 532.954943 294.915868 
L 533.517821 292.642231 
L 534.080699 285.082976 
L 534.643578 297.249374 
L 535.206456 305.430529 
L 535.769334 294.671229 
L 536.332213 301.351556 
L 536.895091 300.940743 
L 537.457969 293.752604 
L 538.020847 296.539982 
L 538.583726 301.712365 
L 539.146604 297.429727 
L 539.709482 303.700007 
L 540.27236 303.086028 
L 540.835239 308.447511 
L 541.398117 301.772067 
L 541.960995 297.325989 
L 542.523874 295.435225 
L 543.086752 293.068654 
L 543.64963 291.261831 
L 544.212508 286.645039 
L 544.775387 283.881992 
L 545.338265 282.479736 
L 545.901143 292.934747 
L 546.464022 295.006709 
L 547.0269 285.907998 
L 547.589778 274.292382 
L 548.152656 279.588205 
L 548.715535 279.074297 
L 549.278413 279.64969 
L 549.841291 279.838007 
L 550.404169 270.494819 
L 550.967048 273.146648 
L 551.529926 286.381022 
L 552.092804 293.967608 
L 552.655683 282.407875 
L 553.218561 279.677082 
L 553.781439 286.722434 
L 554.344317 305.589086 
L 554.907196 319.589485 
L 555.470074 309.766019 
L 556.032952 318.653542 
L 556.595831 316.20896 
L 557.158709 307.847604 
L 557.721587 309.096024 
L 558.284465 301.948888 
L 558.847344 297.194539 
L 559.410222 299.16939 
L 559.9731 287.595351 
L 560.535978 284.345354 
L 561.098857 290.234769 
L 561.661735 290.436629 
L 562.224613 293.352172 
L 562.787492 297.255843 
L 563.35037 294.89511 
L 563.913248 299.766328 
L 564.476126 298.57053 
L 565.039005 301.889152 
L 565.601883 299.596905 
L 566.164761 301.688646 
L 566.72764 293.511628 
L 567.290518 294.334158 
L 567.853396 277.592083 
L 568.416274 269.654205 
L 568.979153 274.869958 
L 569.542031 292.145214 
L 570.104909 297.808505 
L 570.667787 292.842714 
L 571.230666 280.967054 
L 571.793544 271.753789 
L 572.356422 286.681809 
L 572.919301 292.497763 
L 573.482179 282.502786 
L 574.045057 268.690973 
L 574.607935 279.754301 
L 575.170814 283.210638 
L 575.733692 288.046245 
L 576.29657 283.160539 
L 577.422327 285.082199 
L 577.985205 292.380175 
L 578.548083 296.04354 
L 579.110962 293.548011 
L 579.67384 309.851751 
L 580.236718 315.433933 
L 580.799597 302.521127 
L 581.362475 293.542392 
L 581.925353 301.079048 
L 582.488231 302.372095 
L 583.05111 311.594172 
L 583.613988 316.268492 
L 584.176866 307.249706 
L 584.739744 308.085286 
L 585.302623 307.981345 
L 585.865501 286.633031 
L 586.428379 299.360109 
L 586.991258 302.174507 
L 587.554136 294.609594 
L 588.117014 296.486744 
L 588.679892 303.031828 
L 589.242771 295.151135 
L 589.805649 300.661375 
L 590.368527 298.02384 
L 590.931406 298.131173 
L 592.057162 297.230965 
L 592.62004 297.41242 
L 593.182919 295.85486 
L 593.745797 295.017855 
L 594.308675 293.815545 
L 594.871553 296.573806 
L 595.434432 300.445933 
L 595.99731 299.133175 
L 596.560188 300.456442 
L 597.123067 292.314459 
L 597.685945 294.050474 
L 599.37458 276.989435 
L 599.937458 260.76233 
L 600.500336 270.771685 
L 601.063215 273.903895 
L 601.626093 289.403077 
L 602.188971 277.666448 
L 602.751849 270.83017 
L 603.314728 266.830001 
L 603.877606 289.126738 
L 604.440484 288.350522 
L 605.003362 285.08505 
L 605.566241 298.078842 
L 606.129119 296.951352 
L 606.691997 295.077063 
L 607.254876 307.350668 
L 607.817754 312.137192 
L 608.380632 318.154998 
L 608.94351 328.170518 
L 609.506389 318.197821 
L 610.069267 311.399577 
L 611.195024 313.327149 
L 611.757902 309.175376 
L 612.32078 306.886262 
L 612.883658 310.782544 
L 613.446537 304.525944 
L 614.009415 309.154572 
L 614.572293 312.610295 
L 615.135171 315.050935 
L 615.69805 321.127159 
L 616.260928 318.225772 
L 616.823806 320.727124 
L 617.386685 324.025212 
L 617.949563 318.987158 
L 618.512441 320.838553 
L 619.075319 317.663558 
L 619.638198 316.683544 
L 620.201076 314.225495 
L 620.763954 314.489121 
L 621.326833 312.695468 
L 621.889711 304.396205 
L 622.452589 302.780153 
L 623.015467 304.651116 
L 623.578346 293.013858 
L 624.141224 300.076645 
L 624.704102 294.520055 
L 625.26698 282.677615 
L 625.829859 259.778813 
L 626.392737 261.793688 
L 626.955615 273.712934 
L 627.518494 303.19759 
L 628.081372 278.019116 
L 628.64425 235.471306 
L 629.207128 257.049829 
L 629.770007 215.973803 
L 630.332885 206.356128 
L 630.895763 225.321745 
L 631.458642 234.74052 
L 632.02152 272.896751 
L 632.584398 291.915732 
L 633.147276 279.401325 
L 633.710155 297.015979 
L 634.273033 288.09933 
L 634.835911 292.741266 
L 635.39879 290.668177 
L 635.961668 282.302399 
L 636.524546 285.293599 
L 637.087424 302.317795 
L 637.650303 305.079623 
L 638.213181 313.478002 
L 639.338937 297.688574 
L 639.901816 283.725627 
L 640.464694 289.988082 
L 641.027572 288.094265 
L 641.590451 290.414347 
L 642.153329 294.824083 
L 642.716207 295.581052 
L 643.279085 292.252323 
L 643.841964 290.275633 
L 644.404842 287.5915 
L 644.96772 287.727132 
L 645.530599 284.389595 
L 646.093477 290.278571 
L 646.656355 283.451229 
L 647.219233 274.582082 
L 647.782112 279.254234 
L 648.34499 281.690112 
L 648.907868 280.366112 
L 650.033625 291.57441 
L 650.596503 294.971322 
L 651.159381 297.240591 
L 651.72226 304.100222 
L 652.285138 301.027721 
L 652.848016 291.622644 
L 653.410894 290.43597 
L 653.973773 287.587796 
L 654.536651 279.390219 
L 655.099529 286.92702 
L 656.225286 297.478103 
L 656.788164 280.838694 
L 657.351042 279.325778 
L 657.913921 281.353527 
L 658.476799 284.948286 
L 659.602555 304.257143 
L 660.165434 305.258929 
L 660.728312 303.49588 
L 661.29119 311.132751 
L 661.854069 305.82224 
L 662.416947 314.933114 
L 662.979825 310.877145 
L 663.542703 313.301761 
L 664.105582 316.618981 
L 664.66846 318.094569 
L 665.231338 311.381995 
L 665.794217 316.106839 
L 666.357095 317.896117 
L 666.919973 306.044263 
L 667.482851 304.263507 
L 668.04573 307.109962 
L 668.608608 302.076373 
L 669.171486 302.007211 
L 669.734364 311.526767 
L 670.297243 307.513255 
L 670.860121 308.960283 
L 671.422999 309.47796 
L 671.985878 313.181522 
L 672.548756 307.550813 
L 673.111634 296.755132 
L 673.674512 294.640949 
L 674.237391 293.844701 
L 674.800269 286.8029 
L 675.363147 291.650093 
L 675.926026 294.782154 
L 676.488904 295.885635 
L 677.61466 301.391421 
L 678.177539 296.721139 
L 678.740417 293.765481 
L 679.303295 306.409388 
L 679.866174 305.576087 
L 680.429052 303.210346 
L 680.99193 288.289294 
L 681.554808 287.760319 
L 682.117687 276.047927 
L 682.680565 277.018646 
L 683.243443 280.482578 
L 683.806321 289.280455 
L 684.3692 312.091543 
L 684.932078 313.104803 
L 685.494956 317.029378 
L 686.620713 315.813894 
L 687.183591 325.917757 
L 687.746469 329.155449 
L 688.309348 330.532057 
L 688.872226 335.752674 
L 689.435104 342.714225 
L 689.997983 334.875129 
L 691.123739 329.423322 
L 691.686617 336.379549 
L 692.249496 329.139866 
L 692.812374 317.312213 
L 693.375252 312.173927 
L 693.93813 312.261024 
L 694.501009 309.232673 
L 695.063887 317.721974 
L 695.626765 323.575705 
L 696.189644 318.560288 
L 696.752522 322.15174 
L 697.3154 322.650622 
L 697.878278 321.815248 
L 698.441157 319.570281 
L 699.004035 318.528003 
L 699.566913 318.440044 
L 700.129792 322.141058 
L 700.69267 323.583526 
L 701.255548 314.896381 
L 701.818426 312.490055 
L 702.944183 316.508793 
L 703.507061 313.29259 
L 704.069939 320.080469 
L 704.632818 319.481735 
L 705.195696 315.857602 
L 705.758574 315.067085 
L 706.321453 317.360138 
L 706.884331 313.417247 
L 707.447209 318.480307 
L 708.010087 321.277424 
L 708.572966 317.03272 
L 709.135844 315.829149 
L 709.698722 316.367675 
L 710.261601 316.197477 
L 710.824479 324.947772 
L 711.387357 321.172402 
L 711.950235 325.6308 
L 712.513114 324.138106 
L 713.075992 326.421243 
L 713.63887 323.796629 
L 714.201748 325.559283 
L 714.764627 331.155805 
L 715.327505 333.22688 
L 715.890383 332.13735 
L 716.453262 334.956311 
L 717.01614 335.232181 
L 717.579018 331.439494 
L 718.141896 333.83475 
L 718.704775 333.590307 
L 719.267653 331.286652 
L 719.830531 324.665003 
L 720.39341 323.515193 
L 720.956288 331.50439 
L 721.519166 325.551453 
L 722.082044 325.965662 
L 722.644923 320.253605 
L 723.207801 320.349111 
L 723.770679 320.922072 
L 724.333557 327.223083 
L 724.896436 335.938834 
L 725.459314 335.084876 
L 726.022192 330.213763 
L 726.585071 331.878946 
L 727.147949 331.118592 
L 727.710827 330.926261 
L 728.273705 332.097733 
L 728.836584 327.254006 
L 729.399462 321.445289 
L 729.96234 330.905713 
L 730.525219 330.514786 
L 731.088097 329.944116 
L 731.650975 328.572151 
L 732.213853 328.788191 
L 732.776732 320.864269 
L 733.33961 320.051722 
L 733.902488 325.221443 
L 735.028245 316.185592 
L 735.591123 314.705621 
L 736.154001 320.230391 
L 736.71688 314.324587 
L 737.842636 297.199814 
L 738.405514 304.503893 
L 738.968393 313.676363 
L 739.531271 306.435817 
L 740.094149 309.186373 
L 740.657028 310.560422 
L 741.219906 317.806763 
L 741.782784 307.350147 
L 742.908541 299.489571 
L 743.471419 322.422229 
L 744.034297 331.611472 
L 744.597176 337.191167 
L 745.160054 331.265921 
L 745.722932 330.201672 
L 746.28581 323.279385 
L 746.848689 326.142875 
L 747.411567 307.982037 
L 747.974445 311.414544 
L 748.537323 298.419882 
L 749.100202 297.772848 
L 749.66308 291.480412 
L 750.225958 286.593227 
L 750.788837 295.75628 
L 751.351715 281.926416 
L 751.914593 286.833116 
L 752.477471 283.089408 
L 753.04035 291.342766 
L 753.603228 289.647071 
L 754.166106 293.667098 
L 754.728985 294.788879 
L 755.291863 305.630231 
L 756.417619 309.287728 
L 756.980498 306.65354 
L 757.543376 304.583369 
L 758.106254 300.660491 
L 758.669132 299.977299 
L 759.232011 297.188137 
L 759.794889 298.106962 
L 760.357767 306.489662 
L 760.920646 281.873054 
L 761.483524 281.837902 
L 762.60928 307.676023 
L 763.172159 306.125457 
L 763.735037 296.306469 
L 764.297915 293.232622 
L 764.860794 300.447889 
L 765.423672 309.196443 
L 765.98655 306.479006 
L 766.549428 312.072588 
L 767.112307 319.943574 
L 767.675185 333.592928 
L 768.238063 335.124688 
L 768.800941 332.883316 
L 769.36382 334.90956 
L 769.926698 339.979798 
L 770.489576 343.040317 
L 771.052455 345.461636 
L 772.178211 338.768293 
L 772.741089 340.039425 
L 773.303968 336.542706 
L 773.866846 320.703748 
L 774.429724 321.986526 
L 774.992603 316.626823 
L 775.555481 324.801474 
L 776.118359 322.478856 
L 776.681237 316.776731 
L 777.244116 328.335305 
L 777.806994 328.798817 
L 778.369872 326.346256 
L 778.932751 328.343993 
L 779.495629 326.386633 
L 780.058507 328.336924 
L 780.621385 327.486183 
L 781.184264 327.173769 
L 781.747142 323.394458 
L 782.31002 323.055669 
L 782.872898 327.813843 
L 783.435777 327.750798 
L 783.998655 320.906345 
L 784.561533 323.529075 
L 785.124412 317.870237 
L 785.68729 319.711172 
L 786.250168 312.764486 
L 786.813046 316.286939 
L 787.375925 311.415321 
L 787.938803 310.61339 
L 788.501681 299.560174 
L 789.06456 302.298626 
L 789.627438 283.69296 
L 790.190316 273.867821 
L 790.753194 294.492527 
L 791.316073 278.17035 
L 791.878951 302.040586 
L 792.441829 302.496462 
L 793.567586 314.691326 
L 794.130464 311.757214 
L 794.693342 285.317374 
L 795.256221 287.660391 
L 796.944855 338.705189 
L 797.507734 340.776116 
L 798.070612 338.496535 
L 799.196369 339.074436 
L 799.759247 334.462532 
L 800.322125 324.548913 
L 800.885003 324.904245 
L 801.447882 311.556802 
L 802.01076 315.650997 
L 802.573638 322.251463 
L 803.136516 318.847553 
L 803.699395 321.217963 
L 804.262273 321.116549 
L 804.825151 324.39204 
L 805.950908 315.907306 
L 806.513786 316.368494 
L 807.076664 326.368375 
L 807.639543 318.815614 
L 808.202421 321.922715 
L 808.765299 319.071106 
L 809.328178 311.253245 
L 809.891056 316.867637 
L 810.453934 315.479893 
L 811.016812 318.645848 
L 811.579691 313.087407 
L 812.142569 310.26794 
L 812.705447 313.691978 
L 813.831204 305.5489 
L 814.394082 294.320753 
L 814.95696 290.577724 
L 815.519839 291.619641 
L 816.082717 278.690536 
L 816.645595 273.395857 
L 817.208473 266.124736 
L 817.771352 290.811697 
L 818.897108 269.435093 
L 819.459987 278.029559 
L 820.022865 300.621986 
L 821.148621 283.602926 
L 821.7115 290.867793 
L 822.274378 303.784238 
L 822.837256 297.165989 
L 823.400134 304.775792 
L 823.963013 314.259806 
L 824.525891 317.346855 
L 825.088769 316.66215 
L 825.651648 311.838367 
L 826.214526 314.923743 
L 826.777404 311.924323 
L 827.340282 316.947777 
L 827.903161 312.44789 
L 828.466039 305.566601 
L 829.028917 309.216847 
L 829.591796 310.273558 
L 830.154674 310.158249 
L 830.717552 312.978653 
L 831.28043 313.36776 
L 832.406187 310.899542 
L 832.969065 312.602975 
L 833.531944 311.669163 
L 834.094822 306.702044 
L 834.6577 304.18944 
L 835.220578 310.181327 
L 835.783457 310.402625 
L 836.346335 305.895119 
L 836.909213 306.766237 
L 837.472091 304.510546 
L 838.03497 309.241678 
L 838.597848 308.903185 
L 839.723605 300.583447 
L 840.286483 293.982497 
L 840.849361 285.658008 
L 841.412239 289.651362 
L 841.975118 282.508653 
L 842.537996 287.671666 
L 843.100874 286.790115 
L 843.663753 281.672781 
L 844.226631 271.60108 
L 844.789509 270.277608 
L 845.352387 271.022358 
L 846.478144 297.738451 
L 847.041022 294.183724 
L 847.6039 299.715362 
L 848.166779 295.675619 
L 848.729657 299.734413 
L 849.292535 309.296915 
L 849.855414 309.733519 
L 850.418292 309.845481 
L 850.98117 301.554052 
L 851.544048 303.213247 
L 852.106927 318.451398 
L 852.669805 320.186991 
L 853.232683 327.123746 
L 853.795562 323.480992 
L 854.35844 312.867353 
L 855.484196 308.548866 
L 856.047075 304.563104 
L 856.609953 307.137379 
L 857.172831 305.253638 
L 857.735709 310.08729 
L 858.298588 309.468539 
L 858.861466 304.134642 
L 859.424344 305.403945 
L 859.987223 300.348767 
L 860.550101 308.744787 
L 861.112979 313.337032 
L 861.675857 315.515313 
L 862.238736 314.655129 
L 862.801614 304.305875 
L 863.364492 310.341612 
L 863.927371 303.321994 
L 864.490249 319.383438 
L 865.053127 314.807442 
L 865.616005 305.121489 
L 866.178884 309.666943 
L 866.741762 327.38723 
L 867.30464 312.158422 
L 867.867518 291.301471 
L 868.430397 290.38955 
L 868.993275 314.676324 
L 869.556153 309.90327 
L 870.119032 308.149124 
L 870.68191 312.338076 
L 871.244788 299.150703 
L 871.807666 302.996355 
L 872.370545 305.902053 
L 872.933423 300.635337 
L 874.05918 292.916169 
L 875.184936 313.741727 
L 875.747814 331.501335 
L 876.310693 326.991787 
L 876.873571 327.511337 
L 877.436449 334.856545 
L 877.999328 346.083889 
L 878.562206 342.738395 
L 879.125084 335.405881 
L 879.687962 342.424987 
L 880.250841 343.839083 
L 880.813719 337.165561 
L 881.376597 339.529346 
L 881.939475 333.772997 
L 882.502354 329.4758 
L 883.065232 328.740793 
L 883.62811 331.938814 
L 884.190989 331.646413 
L 884.753867 329.583493 
L 885.316745 323.524281 
L 885.879623 315.703355 
L 886.442502 313.975727 
L 888.131137 331.47118 
L 888.694015 336.526067 
L 889.256893 334.576109 
L 889.819771 331.372094 
L 890.38265 329.018999 
L 890.945528 321.285512 
L 891.508406 333.147953 
L 892.071284 340.793908 
L 892.634163 335.390876 
L 893.197041 339.711397 
L 893.759919 337.237516 
L 894.322798 343.275995 
L 894.885676 342.213651 
L 895.448554 341.990683 
L 896.011432 345.074419 
L 896.574311 340.31508 
L 897.137189 344.366687 
L 897.700067 341.163504 
L 898.262946 340.364934 
L 898.825824 337.884888 
L 899.388702 340.405939 
L 899.95158 341.877225 
L 900.514459 345.866829 
L 901.077337 345.842226 
L 901.640215 350.496379 
L 902.203093 351.359596 
L 902.765972 348.710811 
L 903.32885 354.704089 
L 903.891728 352.497037 
L 904.454607 355.074753 
L 905.017485 352.19614 
L 905.580363 348.413215 
L 906.143241 351.467691 
L 906.70612 348.888063 
L 907.268998 345.328048 
L 907.831876 347.956764 
L 908.394755 347.301745 
L 908.957633 336.095721 
L 910.083389 301.635129 
L 910.646268 292.908415 
L 911.209146 259.669056 
L 911.772024 265.613417 
L 912.334902 288.202619 
L 912.897781 321.997364 
L 913.460659 318.226109 
L 914.023537 316.853455 
L 914.586416 319.99422 
L 915.149294 337.073937 
L 915.712172 331.539792 
L 916.27505 324.327732 
L 916.837929 329.256743 
L 917.400807 314.541886 
L 918.526564 339.108224 
L 919.089442 335.113484 
L 919.65232 335.851566 
L 920.215198 331.164535 
L 920.778077 329.024854 
L 921.340955 326.264055 
L 921.903833 318.219599 
L 922.466711 329.340924 
L 923.592468 314.13645 
L 924.155346 317.621531 
L 924.718225 331.710805 
L 925.281103 339.138682 
L 925.843981 334.794391 
L 926.406859 337.422028 
L 926.969738 337.092555 
L 927.532616 331.365606 
L 928.095494 338.971672 
L 928.658373 338.531613 
L 929.221251 345.564722 
L 929.784129 341.381847 
L 930.347007 341.026818 
L 930.909886 339.295168 
L 931.472764 343.616538 
L 932.035642 340.820861 
L 932.598521 337.190633 
L 933.161399 334.50632 
L 933.724277 345.341466 
L 934.287155 337.92545 
L 934.850034 338.305448 
L 935.412912 337.370517 
L 935.97579 335.40383 
L 936.538668 334.392472 
L 937.101547 335.967126 
L 937.664425 333.262075 
L 938.227303 334.539647 
L 938.790182 338.253555 
L 939.35306 337.870378 
L 939.915938 343.317998 
L 940.478816 339.951035 
L 941.041695 340.906389 
L 941.604573 346.114256 
L 942.167451 345.258537 
L 942.73033 347.313868 
L 943.293208 348.407659 
L 943.856086 345.702007 
L 944.418964 343.708326 
L 944.981843 344.728423 
L 945.544721 347.375782 
L 946.107599 346.387716 
L 946.670477 341.620425 
L 947.233356 340.766546 
L 947.796234 339.250415 
L 948.359112 337.163147 
L 948.921991 337.513164 
L 949.484869 332.626646 
L 950.047747 336.658298 
L 950.610625 333.908946 
L 951.173504 323.177343 
L 951.736382 326.465396 
L 952.862139 303.42243 
L 953.425017 285.714353 
L 953.987895 280.888328 
L 954.550773 301.823188 
L 955.113652 318.174261 
L 955.67653 325.198366 
L 956.239408 333.882558 
L 956.802286 329.106796 
L 957.365165 328.954403 
L 957.928043 331.33566 
L 958.490921 345.074111 
L 959.0538 342.426599 
L 959.616678 337.745607 
L 960.179556 338.724752 
L 960.742434 329.911819 
L 961.305313 338.632806 
L 961.868191 341.696495 
L 962.431069 339.293256 
L 962.993948 334.47008 
L 963.556826 326.474639 
L 964.119704 332.71404 
L 964.682582 337.145124 
L 965.245461 337.784447 
L 966.371217 343.882273 
L 966.934095 338.293625 
L 967.496974 335.413937 
L 968.059852 331.683489 
L 968.62273 339.162253 
L 969.185609 342.290633 
L 969.748487 341.032971 
L 970.311365 346.58268 
L 970.874243 346.168299 
L 971.437122 345.975825 
L 972 341.513139 
L 972 341.513139 
" style="fill:none;stroke:#66c2a5;stroke-linecap:round;stroke-width:1.75;"/>
   </g>
   <g id="patch_3">
    <path d="M 135 378 
L 135 51.84 
" style="fill:none;stroke:#cccccc;stroke-linecap:square;stroke-linejoin:miter;"/>
   </g>
   <g id="patch_4">
    <path d="M 972 378 
L 972 51.84 
" style="fill:none;stroke:#cccccc;stroke-linecap:square;stroke-linejoin:miter;"/>
   </g>
   <g id="patch_5">
    <path d="M 135 378 
L 972 378 
" style="fill:none;stroke:#cccccc;stroke-linecap:square;stroke-linejoin:miter;"/>
   </g>
   <g id="patch_6">
    <path d="M 135 51.84 
L 972 51.84 
" style="fill:none;stroke:#cccccc;stroke-linecap:square;stroke-linejoin:miter;"/>
   </g>
   <g id="legend_1">
    <g id="line2d_51">
     <path d="M 914.439062 64.497812 
L 934.439062 64.497812 
" style="fill:none;stroke:#66c2a5;stroke-linecap:round;stroke-width:1.75;"/>
    </g>
    <g id="line2d_52"/>
    <g id="text_15">
     <!-- CO2 -->
     <defs>
      <path d="M 58.796875 25.09375 
L 68.265625 22.703125 
Q 65.28125 11.03125 57.546875 4.90625 
Q 49.8125 -1.21875 38.625 -1.21875 
Q 27.046875 -1.21875 19.796875 3.484375 
Q 12.546875 8.203125 8.765625 17.140625 
Q 4.984375 26.078125 4.984375 36.328125 
Q 4.984375 47.515625 9.25 55.828125 
Q 13.53125 64.15625 21.40625 68.46875 
Q 29.296875 72.796875 38.765625 72.796875 
Q 49.515625 72.796875 56.828125 67.328125 
Q 64.15625 61.859375 67.046875 51.953125 
L 57.71875 49.75 
Q 55.21875 57.5625 50.484375 61.125 
Q 45.75 64.703125 38.578125 64.703125 
Q 30.328125 64.703125 24.78125 60.734375 
Q 19.234375 56.78125 16.984375 50.109375 
Q 14.75 43.453125 14.75 36.375 
Q 14.75 27.25 17.40625 20.4375 
Q 20.0625 13.625 25.671875 10.25 
Q 31.296875 6.890625 37.84375 6.890625 
Q 45.796875 6.890625 51.3125 11.46875 
Q 56.84375 16.0625 58.796875 25.09375 
z
" id="ArialMT-43"/>
     </defs>
     <g style="fill:#262626;" transform="translate(942.439062 67.997812)scale(0.1 -0.1)">
      <use xlink:href="#ArialMT-43"/>
      <use x="72.216797" xlink:href="#ArialMT-4f"/>
      <use x="150" xlink:href="#ArialMT-32"/>
     </g>
    </g>
   </g>
  </g>
 </g>
 <defs>
  <clipPath id="p2fc0ff4241">
   <rect height="326.16" width="837" x="135" y="51.84"/>
  </clipPath>
 </defs>
</svg>
